<?xml version="1.0" encoding="utf-8" standalone="no"?>
<!DOCTYPE svg PUBLIC "-//W3C//DTD SVG 1.1//EN"
  "http://www.w3.org/Graphics/SVG/1.1/DTD/svg11.dtd">
<svg xmlns:xlink="http://www.w3.org/1999/xlink" width="766.940924pt" height="305.941406pt" viewBox="0 0 766.940924 305.941406" xmlns="http://www.w3.org/2000/svg" version="1.1">
 <metadata>
  <rdf:RDF xmlns:dc="http://purl.org/dc/elements/1.1/" xmlns:cc="http://creativecommons.org/ns#" xmlns:rdf="http://www.w3.org/1999/02/22-rdf-syntax-ns#">
   <cc:Work>
    <dc:type rdf:resource="http://purl.org/dc/dcmitype/StillImage"/>
    <dc:date>2026-06-02T14:48:28.018646</dc:date>
    <dc:format>image/svg+xml</dc:format>
    <dc:creator>
     <cc:Agent>
      <dc:title>Matplotlib v3.10.8, https://matplotlib.org/</dc:title>
     </cc:Agent>
    </dc:creator>
   </cc:Work>
  </rdf:RDF>
 </metadata>
 <defs>
  <style type="text/css">*{stroke-linejoin: round; stroke-linecap: butt}</style>
 </defs>
 <g id="figure_1">
  <g id="patch_1">
   <path d="M 0 305.941406 
L 766.940924 305.941406 
L 766.940924 0 
L 0 0 
z
" style="fill: #ffffff"/>
  </g>
  <g id="axes_1">
   <g id="patch_2">
    <path d="M 183.061094 271.038281 
L 741.061094 271.038281 
L 741.061094 21.558281 
L 183.061094 21.558281 
z
" style="fill: #ffffff"/>
   </g>
   <g id="matplotlib.axis_1">
    <g id="xtick_1">
     <g id="line2d_1">
      <path d="M 277.815811 271.038281 
L 277.815811 21.558281 
" clip-path="url(#p4a517afaef)" style="fill: none; stroke-dasharray: 0.8,1.32; stroke-dashoffset: 0; stroke: #b0b0b0; stroke-opacity: 0.2; stroke-width: 0.8"/>
     </g>
     <g id="line2d_2">
      <defs>
       <path id="m0d0223c4e8" d="M 0 0 
L 0 3.5 
" style="stroke: #000000; stroke-width: 0.8"/>
      </defs>
      <g>
       <use xlink:href="#m0d0223c4e8" x="277.815811" y="271.038281" style="stroke: #000000; stroke-width: 0.8"/>
      </g>
     </g>
     <g id="text_1">
      <!-- 0 -->
      <g transform="translate(275.032686 284.117031) scale(0.08 -0.08)">
       <defs>
        <path id="DejaVuSans-Bold-30" d="M 2944 2338 
Q 2944 3213 2780 3570 
Q 2616 3928 2228 3928 
Q 1841 3928 1675 3570 
Q 1509 3213 1509 2338 
Q 1509 1453 1675 1090 
Q 1841 728 2228 728 
Q 2613 728 2778 1090 
Q 2944 1453 2944 2338 
z
M 4147 2328 
Q 4147 1169 3647 539 
Q 3147 -91 2228 -91 
Q 1306 -91 806 539 
Q 306 1169 306 2328 
Q 306 3491 806 4120 
Q 1306 4750 2228 4750 
Q 3147 4750 3647 4120 
Q 4147 3491 4147 2328 
z
" transform="scale(0.015625)"/>
       </defs>
       <use xlink:href="#DejaVuSans-Bold-30"/>
      </g>
     </g>
    </g>
    <g id="xtick_2">
     <g id="line2d_3">
      <path d="M 383.09883 271.038281 
L 383.09883 21.558281 
" clip-path="url(#p4a517afaef)" style="fill: none; stroke-dasharray: 0.8,1.32; stroke-dashoffset: 0; stroke: #b0b0b0; stroke-opacity: 0.2; stroke-width: 0.8"/>
     </g>
     <g id="line2d_4">
      <g>
       <use xlink:href="#m0d0223c4e8" x="383.09883" y="271.038281" style="stroke: #000000; stroke-width: 0.8"/>
      </g>
     </g>
     <g id="text_2">
      <!-- 5 -->
      <g transform="translate(380.315705 284.117031) scale(0.08 -0.08)">
       <defs>
        <path id="DejaVuSans-Bold-35" d="M 678 4666 
L 3669 4666 
L 3669 3781 
L 1638 3781 
L 1638 3059 
Q 1775 3097 1914 3117 
Q 2053 3138 2203 3138 
Q 3056 3138 3531 2711 
Q 4006 2284 4006 1522 
Q 4006 766 3489 337 
Q 2972 -91 2053 -91 
Q 1656 -91 1267 -14 
Q 878 63 494 219 
L 494 1166 
Q 875 947 1217 837 
Q 1559 728 1863 728 
Q 2300 728 2551 942 
Q 2803 1156 2803 1522 
Q 2803 1891 2551 2103 
Q 2300 2316 1863 2316 
Q 1603 2316 1309 2248 
Q 1016 2181 678 2041 
L 678 4666 
z
" transform="scale(0.015625)"/>
       </defs>
       <use xlink:href="#DejaVuSans-Bold-35"/>
      </g>
     </g>
    </g>
    <g id="xtick_3">
     <g id="line2d_5">
      <path d="M 488.381848 271.038281 
L 488.381848 21.558281 
" clip-path="url(#p4a517afaef)" style="fill: none; stroke-dasharray: 0.8,1.32; stroke-dashoffset: 0; stroke: #b0b0b0; stroke-opacity: 0.2; stroke-width: 0.8"/>
     </g>
     <g id="line2d_6">
      <g>
       <use xlink:href="#m0d0223c4e8" x="488.381848" y="271.038281" style="stroke: #000000; stroke-width: 0.8"/>
      </g>
     </g>
     <g id="text_3">
      <!-- 10 -->
      <g transform="translate(482.815598 284.117031) scale(0.08 -0.08)">
       <defs>
        <path id="DejaVuSans-Bold-31" d="M 750 831 
L 1813 831 
L 1813 3847 
L 722 3622 
L 722 4441 
L 1806 4666 
L 2950 4666 
L 2950 831 
L 4013 831 
L 4013 0 
L 750 0 
L 750 831 
z
" transform="scale(0.015625)"/>
       </defs>
       <use xlink:href="#DejaVuSans-Bold-31"/>
       <use xlink:href="#DejaVuSans-Bold-30" transform="translate(69.580078 0)"/>
      </g>
     </g>
    </g>
    <g id="xtick_4">
     <g id="line2d_7">
      <path d="M 593.664867 271.038281 
L 593.664867 21.558281 
" clip-path="url(#p4a517afaef)" style="fill: none; stroke-dasharray: 0.8,1.32; stroke-dashoffset: 0; stroke: #b0b0b0; stroke-opacity: 0.2; stroke-width: 0.8"/>
     </g>
     <g id="line2d_8">
      <g>
       <use xlink:href="#m0d0223c4e8" x="593.664867" y="271.038281" style="stroke: #000000; stroke-width: 0.8"/>
      </g>
     </g>
     <g id="text_4">
      <!-- 15 -->
      <g transform="translate(588.098617 284.117031) scale(0.08 -0.08)">
       <use xlink:href="#DejaVuSans-Bold-31"/>
       <use xlink:href="#DejaVuSans-Bold-35" transform="translate(69.580078 0)"/>
      </g>
     </g>
    </g>
    <g id="xtick_5">
     <g id="line2d_9">
      <path d="M 698.947886 271.038281 
L 698.947886 21.558281 
" clip-path="url(#p4a517afaef)" style="fill: none; stroke-dasharray: 0.8,1.32; stroke-dashoffset: 0; stroke: #b0b0b0; stroke-opacity: 0.2; stroke-width: 0.8"/>
     </g>
     <g id="line2d_10">
      <g>
       <use xlink:href="#m0d0223c4e8" x="698.947886" y="271.038281" style="stroke: #000000; stroke-width: 0.8"/>
      </g>
     </g>
     <g id="text_5">
      <!-- 20 -->
      <g transform="translate(693.381636 284.117031) scale(0.08 -0.08)">
       <defs>
        <path id="DejaVuSans-Bold-32" d="M 1844 884 
L 3897 884 
L 3897 0 
L 506 0 
L 506 884 
L 2209 2388 
Q 2438 2594 2547 2791 
Q 2656 2988 2656 3200 
Q 2656 3528 2436 3728 
Q 2216 3928 1850 3928 
Q 1569 3928 1234 3808 
Q 900 3688 519 3450 
L 519 4475 
Q 925 4609 1322 4679 
Q 1719 4750 2100 4750 
Q 2938 4750 3402 4381 
Q 3866 4013 3866 3353 
Q 3866 2972 3669 2642 
Q 3472 2313 2841 1759 
L 1844 884 
z
" transform="scale(0.015625)"/>
       </defs>
       <use xlink:href="#DejaVuSans-Bold-32"/>
       <use xlink:href="#DejaVuSans-Bold-30" transform="translate(69.580078 0)"/>
      </g>
     </g>
    </g>
    <g id="text_6">
     <!-- Δ = faers_only proportion − concordant_positive proportion (percentage points; 95% Newcombe CI) -->
     <g transform="translate(208.597187 296.619375) scale(0.09 -0.09)">
      <defs>
       <path id="DejaVuSans-Bold-394" d="M 4922 0 
L 31 0 
L 1759 4666 
L 3194 4666 
L 4922 0 
z
M 1559 909 
L 3384 909 
L 2478 3572 
L 1559 909 
z
" transform="scale(0.015625)"/>
       <path id="DejaVuSans-Bold-20" transform="scale(0.015625)"/>
       <path id="DejaVuSans-Bold-3d" d="M 678 3084 
L 4684 3084 
L 4684 2350 
L 678 2350 
L 678 3084 
z
M 678 1663 
L 4684 1663 
L 4684 922 
L 678 922 
L 678 1663 
z
" transform="scale(0.015625)"/>
       <path id="DejaVuSans-Bold-66" d="M 2841 4863 
L 2841 4128 
L 2222 4128 
Q 1984 4128 1890 4042 
Q 1797 3956 1797 3744 
L 1797 3500 
L 2753 3500 
L 2753 2700 
L 1797 2700 
L 1797 0 
L 678 0 
L 678 2700 
L 122 2700 
L 122 3500 
L 678 3500 
L 678 3744 
Q 678 4316 997 4589 
Q 1316 4863 1984 4863 
L 2841 4863 
z
" transform="scale(0.015625)"/>
       <path id="DejaVuSans-Bold-61" d="M 2106 1575 
Q 1756 1575 1579 1456 
Q 1403 1338 1403 1106 
Q 1403 894 1545 773 
Q 1688 653 1941 653 
Q 2256 653 2472 879 
Q 2688 1106 2688 1447 
L 2688 1575 
L 2106 1575 
z
M 3816 1997 
L 3816 0 
L 2688 0 
L 2688 519 
Q 2463 200 2181 54 
Q 1900 -91 1497 -91 
Q 953 -91 614 226 
Q 275 544 275 1050 
Q 275 1666 698 1953 
Q 1122 2241 2028 2241 
L 2688 2241 
L 2688 2328 
Q 2688 2594 2478 2717 
Q 2269 2841 1825 2841 
Q 1466 2841 1156 2769 
Q 847 2697 581 2553 
L 581 3406 
Q 941 3494 1303 3539 
Q 1666 3584 2028 3584 
Q 2975 3584 3395 3211 
Q 3816 2838 3816 1997 
z
" transform="scale(0.015625)"/>
       <path id="DejaVuSans-Bold-65" d="M 4031 1759 
L 4031 1441 
L 1416 1441 
Q 1456 1047 1700 850 
Q 1944 653 2381 653 
Q 2734 653 3104 758 
Q 3475 863 3866 1075 
L 3866 213 
Q 3469 63 3072 -14 
Q 2675 -91 2278 -91 
Q 1328 -91 801 392 
Q 275 875 275 1747 
Q 275 2603 792 3093 
Q 1309 3584 2216 3584 
Q 3041 3584 3536 3087 
Q 4031 2591 4031 1759 
z
M 2881 2131 
Q 2881 2450 2695 2645 
Q 2509 2841 2209 2841 
Q 1884 2841 1681 2658 
Q 1478 2475 1428 2131 
L 2881 2131 
z
" transform="scale(0.015625)"/>
       <path id="DejaVuSans-Bold-72" d="M 3138 2547 
Q 2991 2616 2845 2648 
Q 2700 2681 2553 2681 
Q 2122 2681 1889 2404 
Q 1656 2128 1656 1613 
L 1656 0 
L 538 0 
L 538 3500 
L 1656 3500 
L 1656 2925 
Q 1872 3269 2151 3426 
Q 2431 3584 2822 3584 
Q 2878 3584 2943 3579 
Q 3009 3575 3134 3559 
L 3138 2547 
z
" transform="scale(0.015625)"/>
       <path id="DejaVuSans-Bold-73" d="M 3272 3391 
L 3272 2541 
Q 2913 2691 2578 2766 
Q 2244 2841 1947 2841 
Q 1628 2841 1473 2761 
Q 1319 2681 1319 2516 
Q 1319 2381 1436 2309 
Q 1553 2238 1856 2203 
L 2053 2175 
Q 2913 2066 3209 1816 
Q 3506 1566 3506 1031 
Q 3506 472 3093 190 
Q 2681 -91 1863 -91 
Q 1516 -91 1145 -36 
Q 775 19 384 128 
L 384 978 
Q 719 816 1070 734 
Q 1422 653 1784 653 
Q 2113 653 2278 743 
Q 2444 834 2444 1013 
Q 2444 1163 2330 1236 
Q 2216 1309 1875 1350 
L 1678 1375 
Q 931 1469 631 1722 
Q 331 1975 331 2491 
Q 331 3047 712 3315 
Q 1094 3584 1881 3584 
Q 2191 3584 2531 3537 
Q 2872 3491 3272 3391 
z
" transform="scale(0.015625)"/>
       <path id="DejaVuSans-Bold-5f" d="M 3200 -916 
L 3200 -1509 
L 0 -1509 
L 0 -916 
L 3200 -916 
z
" transform="scale(0.015625)"/>
       <path id="DejaVuSans-Bold-6f" d="M 2203 2784 
Q 1831 2784 1636 2517 
Q 1441 2250 1441 1747 
Q 1441 1244 1636 976 
Q 1831 709 2203 709 
Q 2569 709 2762 976 
Q 2956 1244 2956 1747 
Q 2956 2250 2762 2517 
Q 2569 2784 2203 2784 
z
M 2203 3584 
Q 3106 3584 3614 3096 
Q 4122 2609 4122 1747 
Q 4122 884 3614 396 
Q 3106 -91 2203 -91 
Q 1297 -91 786 396 
Q 275 884 275 1747 
Q 275 2609 786 3096 
Q 1297 3584 2203 3584 
z
" transform="scale(0.015625)"/>
       <path id="DejaVuSans-Bold-6e" d="M 4056 2131 
L 4056 0 
L 2931 0 
L 2931 347 
L 2931 1631 
Q 2931 2084 2911 2256 
Q 2891 2428 2841 2509 
Q 2775 2619 2662 2680 
Q 2550 2741 2406 2741 
Q 2056 2741 1856 2470 
Q 1656 2200 1656 1722 
L 1656 0 
L 538 0 
L 538 3500 
L 1656 3500 
L 1656 2988 
Q 1909 3294 2193 3439 
Q 2478 3584 2822 3584 
Q 3428 3584 3742 3212 
Q 4056 2841 4056 2131 
z
" transform="scale(0.015625)"/>
       <path id="DejaVuSans-Bold-6c" d="M 538 4863 
L 1656 4863 
L 1656 0 
L 538 0 
L 538 4863 
z
" transform="scale(0.015625)"/>
       <path id="DejaVuSans-Bold-79" d="M 78 3500 
L 1197 3500 
L 2138 1125 
L 2938 3500 
L 4056 3500 
L 2584 -331 
Q 2363 -916 2067 -1148 
Q 1772 -1381 1288 -1381 
L 641 -1381 
L 641 -647 
L 991 -647 
Q 1275 -647 1404 -556 
Q 1534 -466 1606 -231 
L 1638 -134 
L 78 3500 
z
" transform="scale(0.015625)"/>
       <path id="DejaVuSans-Bold-70" d="M 1656 506 
L 1656 -1331 
L 538 -1331 
L 538 3500 
L 1656 3500 
L 1656 2988 
Q 1888 3294 2169 3439 
Q 2450 3584 2816 3584 
Q 3463 3584 3878 3070 
Q 4294 2556 4294 1747 
Q 4294 938 3878 423 
Q 3463 -91 2816 -91 
Q 2450 -91 2169 54 
Q 1888 200 1656 506 
z
M 2400 2772 
Q 2041 2772 1848 2508 
Q 1656 2244 1656 1747 
Q 1656 1250 1848 986 
Q 2041 722 2400 722 
Q 2759 722 2948 984 
Q 3138 1247 3138 1747 
Q 3138 2247 2948 2509 
Q 2759 2772 2400 2772 
z
" transform="scale(0.015625)"/>
       <path id="DejaVuSans-Bold-74" d="M 1759 4494 
L 1759 3500 
L 2913 3500 
L 2913 2700 
L 1759 2700 
L 1759 1216 
Q 1759 972 1856 886 
Q 1953 800 2241 800 
L 2816 800 
L 2816 0 
L 1856 0 
Q 1194 0 917 276 
Q 641 553 641 1216 
L 641 2700 
L 84 2700 
L 84 3500 
L 641 3500 
L 641 4494 
L 1759 4494 
z
" transform="scale(0.015625)"/>
       <path id="DejaVuSans-Bold-69" d="M 538 3500 
L 1656 3500 
L 1656 0 
L 538 0 
L 538 3500 
z
M 538 4863 
L 1656 4863 
L 1656 3950 
L 538 3950 
L 538 4863 
z
" transform="scale(0.015625)"/>
       <path id="DejaVuSans-Bold-2212" d="M 678 2375 
L 4684 2375 
L 4684 1638 
L 678 1638 
L 678 2375 
z
" transform="scale(0.015625)"/>
       <path id="DejaVuSans-Bold-63" d="M 3366 3391 
L 3366 2478 
Q 3138 2634 2908 2709 
Q 2678 2784 2431 2784 
Q 1963 2784 1702 2511 
Q 1441 2238 1441 1747 
Q 1441 1256 1702 982 
Q 1963 709 2431 709 
Q 2694 709 2930 787 
Q 3166 866 3366 1019 
L 3366 103 
Q 3103 6 2833 -42 
Q 2563 -91 2291 -91 
Q 1344 -91 809 395 
Q 275 881 275 1747 
Q 275 2613 809 3098 
Q 1344 3584 2291 3584 
Q 2566 3584 2833 3536 
Q 3100 3488 3366 3391 
z
" transform="scale(0.015625)"/>
       <path id="DejaVuSans-Bold-64" d="M 2919 2988 
L 2919 4863 
L 4044 4863 
L 4044 0 
L 2919 0 
L 2919 506 
Q 2688 197 2409 53 
Q 2131 -91 1766 -91 
Q 1119 -91 703 423 
Q 288 938 288 1747 
Q 288 2556 703 3070 
Q 1119 3584 1766 3584 
Q 2128 3584 2408 3439 
Q 2688 3294 2919 2988 
z
M 2181 722 
Q 2541 722 2730 984 
Q 2919 1247 2919 1747 
Q 2919 2247 2730 2509 
Q 2541 2772 2181 2772 
Q 1825 2772 1636 2509 
Q 1447 2247 1447 1747 
Q 1447 1247 1636 984 
Q 1825 722 2181 722 
z
" transform="scale(0.015625)"/>
       <path id="DejaVuSans-Bold-76" d="M 97 3500 
L 1216 3500 
L 2088 1081 
L 2956 3500 
L 4078 3500 
L 2700 0 
L 1472 0 
L 97 3500 
z
" transform="scale(0.015625)"/>
       <path id="DejaVuSans-Bold-28" d="M 2413 -844 
L 1484 -844 
Q 1006 -72 778 623 
Q 550 1319 550 2003 
Q 550 2688 779 3389 
Q 1009 4091 1484 4856 
L 2413 4856 
Q 2013 4116 1813 3408 
Q 1613 2700 1613 2009 
Q 1613 1319 1811 609 
Q 2009 -100 2413 -844 
z
" transform="scale(0.015625)"/>
       <path id="DejaVuSans-Bold-67" d="M 2919 594 
Q 2688 288 2409 144 
Q 2131 0 1766 0 
Q 1125 0 706 504 
Q 288 1009 288 1791 
Q 288 2575 706 3076 
Q 1125 3578 1766 3578 
Q 2131 3578 2409 3434 
Q 2688 3291 2919 2981 
L 2919 3500 
L 4044 3500 
L 4044 353 
Q 4044 -491 3511 -936 
Q 2978 -1381 1966 -1381 
Q 1638 -1381 1331 -1331 
Q 1025 -1281 716 -1178 
L 716 -306 
Q 1009 -475 1290 -558 
Q 1572 -641 1856 -641 
Q 2406 -641 2662 -400 
Q 2919 -159 2919 353 
L 2919 594 
z
M 2181 2772 
Q 1834 2772 1640 2515 
Q 1447 2259 1447 1791 
Q 1447 1309 1634 1061 
Q 1822 813 2181 813 
Q 2531 813 2725 1069 
Q 2919 1325 2919 1791 
Q 2919 2259 2725 2515 
Q 2531 2772 2181 2772 
z
" transform="scale(0.015625)"/>
       <path id="DejaVuSans-Bold-3b" d="M 716 1209 
L 1844 1209 
L 1844 256 
L 1069 -909 
L 403 -909 
L 716 256 
L 716 1209 
z
M 716 3500 
L 1844 3500 
L 1844 2291 
L 716 2291 
L 716 3500 
z
" transform="scale(0.015625)"/>
       <path id="DejaVuSans-Bold-39" d="M 641 103 
L 641 966 
Q 928 831 1190 764 
Q 1453 697 1709 697 
Q 2247 697 2547 995 
Q 2847 1294 2900 1881 
Q 2688 1725 2447 1647 
Q 2206 1569 1925 1569 
Q 1209 1569 770 1986 
Q 331 2403 331 3084 
Q 331 3838 820 4291 
Q 1309 4744 2131 4744 
Q 3044 4744 3544 4128 
Q 4044 3513 4044 2388 
Q 4044 1231 3459 570 
Q 2875 -91 1856 -91 
Q 1528 -91 1228 -42 
Q 928 6 641 103 
z
M 2125 2350 
Q 2441 2350 2600 2554 
Q 2759 2759 2759 3169 
Q 2759 3575 2600 3781 
Q 2441 3988 2125 3988 
Q 1809 3988 1650 3781 
Q 1491 3575 1491 3169 
Q 1491 2759 1650 2554 
Q 1809 2350 2125 2350 
z
" transform="scale(0.015625)"/>
       <path id="DejaVuSans-Bold-25" d="M 4959 1925 
Q 4738 1925 4616 1733 
Q 4494 1541 4494 1184 
Q 4494 825 4614 633 
Q 4734 441 4959 441 
Q 5184 441 5303 633 
Q 5422 825 5422 1184 
Q 5422 1541 5301 1733 
Q 5181 1925 4959 1925 
z
M 4959 2450 
Q 5541 2450 5875 2112 
Q 6209 1775 6209 1184 
Q 6209 594 5875 251 
Q 5541 -91 4959 -91 
Q 4378 -91 4042 251 
Q 3706 594 3706 1184 
Q 3706 1772 4042 2111 
Q 4378 2450 4959 2450 
z
M 2094 -91 
L 1403 -91 
L 4319 4750 
L 5013 4750 
L 2094 -91 
z
M 1453 4750 
Q 2034 4750 2367 4411 
Q 2700 4072 2700 3481 
Q 2700 2891 2367 2550 
Q 2034 2209 1453 2209 
Q 872 2209 539 2550 
Q 206 2891 206 3481 
Q 206 4072 539 4411 
Q 872 4750 1453 4750 
z
M 1453 4225 
Q 1228 4225 1106 4031 
Q 984 3838 984 3481 
Q 984 3122 1106 2926 
Q 1228 2731 1453 2731 
Q 1678 2731 1798 2926 
Q 1919 3122 1919 3481 
Q 1919 3838 1797 4031 
Q 1675 4225 1453 4225 
z
" transform="scale(0.015625)"/>
       <path id="DejaVuSans-Bold-4e" d="M 588 4666 
L 1931 4666 
L 3628 1466 
L 3628 4666 
L 4769 4666 
L 4769 0 
L 3425 0 
L 1728 3200 
L 1728 0 
L 588 0 
L 588 4666 
z
" transform="scale(0.015625)"/>
       <path id="DejaVuSans-Bold-77" d="M 225 3500 
L 1313 3500 
L 1900 1088 
L 2491 3500 
L 3425 3500 
L 4013 1113 
L 4603 3500 
L 5691 3500 
L 4769 0 
L 3547 0 
L 2956 2406 
L 2369 0 
L 1147 0 
L 225 3500 
z
" transform="scale(0.015625)"/>
       <path id="DejaVuSans-Bold-6d" d="M 3781 2919 
Q 3994 3244 4286 3414 
Q 4578 3584 4928 3584 
Q 5531 3584 5847 3212 
Q 6163 2841 6163 2131 
L 6163 0 
L 5038 0 
L 5038 1825 
Q 5041 1866 5042 1909 
Q 5044 1953 5044 2034 
Q 5044 2406 4934 2573 
Q 4825 2741 4581 2741 
Q 4263 2741 4089 2478 
Q 3916 2216 3909 1719 
L 3909 0 
L 2784 0 
L 2784 1825 
Q 2784 2406 2684 2573 
Q 2584 2741 2328 2741 
Q 2006 2741 1831 2477 
Q 1656 2213 1656 1722 
L 1656 0 
L 531 0 
L 531 3500 
L 1656 3500 
L 1656 2988 
Q 1863 3284 2130 3434 
Q 2397 3584 2719 3584 
Q 3081 3584 3359 3409 
Q 3638 3234 3781 2919 
z
" transform="scale(0.015625)"/>
       <path id="DejaVuSans-Bold-62" d="M 2400 722 
Q 2759 722 2948 984 
Q 3138 1247 3138 1747 
Q 3138 2247 2948 2509 
Q 2759 2772 2400 2772 
Q 2041 2772 1848 2508 
Q 1656 2244 1656 1747 
Q 1656 1250 1848 986 
Q 2041 722 2400 722 
z
M 1656 2988 
Q 1888 3294 2169 3439 
Q 2450 3584 2816 3584 
Q 3463 3584 3878 3070 
Q 4294 2556 4294 1747 
Q 4294 938 3878 423 
Q 3463 -91 2816 -91 
Q 2450 -91 2169 54 
Q 1888 200 1656 506 
L 1656 0 
L 538 0 
L 538 4863 
L 1656 4863 
L 1656 2988 
z
" transform="scale(0.015625)"/>
       <path id="DejaVuSans-Bold-43" d="M 4288 256 
Q 3956 84 3597 -3 
Q 3238 -91 2847 -91 
Q 1681 -91 1000 561 
Q 319 1213 319 2328 
Q 319 3447 1000 4098 
Q 1681 4750 2847 4750 
Q 3238 4750 3597 4662 
Q 3956 4575 4288 4403 
L 4288 3438 
Q 3953 3666 3628 3772 
Q 3303 3878 2944 3878 
Q 2300 3878 1931 3465 
Q 1563 3053 1563 2328 
Q 1563 1606 1931 1193 
Q 2300 781 2944 781 
Q 3303 781 3628 887 
Q 3953 994 4288 1222 
L 4288 256 
z
" transform="scale(0.015625)"/>
       <path id="DejaVuSans-Bold-49" d="M 588 4666 
L 1791 4666 
L 1791 0 
L 588 0 
L 588 4666 
z
" transform="scale(0.015625)"/>
       <path id="DejaVuSans-Bold-29" d="M 513 -844 
Q 913 -100 1113 609 
Q 1313 1319 1313 2009 
Q 1313 2700 1113 3408 
Q 913 4116 513 4856 
L 1441 4856 
Q 1916 4091 2145 3389 
Q 2375 2688 2375 2003 
Q 2375 1319 2147 623 
Q 1919 -72 1441 -844 
L 513 -844 
z
" transform="scale(0.015625)"/>
      </defs>
      <use xlink:href="#DejaVuSans-Bold-394"/>
      <use xlink:href="#DejaVuSans-Bold-20" transform="translate(77.392578 0)"/>
      <use xlink:href="#DejaVuSans-Bold-3d" transform="translate(112.207031 0)"/>
      <use xlink:href="#DejaVuSans-Bold-20" transform="translate(195.996094 0)"/>
      <use xlink:href="#DejaVuSans-Bold-66" transform="translate(230.810547 0)"/>
      <use xlink:href="#DejaVuSans-Bold-61" transform="translate(274.316406 0)"/>
      <use xlink:href="#DejaVuSans-Bold-65" transform="translate(341.796875 0)"/>
      <use xlink:href="#DejaVuSans-Bold-72" transform="translate(409.619141 0)"/>
      <use xlink:href="#DejaVuSans-Bold-73" transform="translate(458.935547 0)"/>
      <use xlink:href="#DejaVuSans-Bold-5f" transform="translate(518.457031 0)"/>
      <use xlink:href="#DejaVuSans-Bold-6f" transform="translate(568.457031 0)"/>
      <use xlink:href="#DejaVuSans-Bold-6e" transform="translate(637.158203 0)"/>
      <use xlink:href="#DejaVuSans-Bold-6c" transform="translate(708.349609 0)"/>
      <use xlink:href="#DejaVuSans-Bold-79" transform="translate(742.626953 0)"/>
      <use xlink:href="#DejaVuSans-Bold-20" transform="translate(807.8125 0)"/>
      <use xlink:href="#DejaVuSans-Bold-70" transform="translate(842.626953 0)"/>
      <use xlink:href="#DejaVuSans-Bold-72" transform="translate(914.208984 0)"/>
      <use xlink:href="#DejaVuSans-Bold-6f" transform="translate(963.525391 0)"/>
      <use xlink:href="#DejaVuSans-Bold-70" transform="translate(1032.226562 0)"/>
      <use xlink:href="#DejaVuSans-Bold-6f" transform="translate(1103.808594 0)"/>
      <use xlink:href="#DejaVuSans-Bold-72" transform="translate(1172.509766 0)"/>
      <use xlink:href="#DejaVuSans-Bold-74" transform="translate(1221.826172 0)"/>
      <use xlink:href="#DejaVuSans-Bold-69" transform="translate(1269.628906 0)"/>
      <use xlink:href="#DejaVuSans-Bold-6f" transform="translate(1303.90625 0)"/>
      <use xlink:href="#DejaVuSans-Bold-6e" transform="translate(1372.607422 0)"/>
      <use xlink:href="#DejaVuSans-Bold-20" transform="translate(1443.798828 0)"/>
      <use xlink:href="#DejaVuSans-Bold-2212" transform="translate(1478.613281 0)"/>
      <use xlink:href="#DejaVuSans-Bold-20" transform="translate(1562.402344 0)"/>
      <use xlink:href="#DejaVuSans-Bold-63" transform="translate(1597.216797 0)"/>
      <use xlink:href="#DejaVuSans-Bold-6f" transform="translate(1656.494141 0)"/>
      <use xlink:href="#DejaVuSans-Bold-6e" transform="translate(1725.195312 0)"/>
      <use xlink:href="#DejaVuSans-Bold-63" transform="translate(1796.386719 0)"/>
      <use xlink:href="#DejaVuSans-Bold-6f" transform="translate(1855.664062 0)"/>
      <use xlink:href="#DejaVuSans-Bold-72" transform="translate(1924.365234 0)"/>
      <use xlink:href="#DejaVuSans-Bold-64" transform="translate(1973.681641 0)"/>
      <use xlink:href="#DejaVuSans-Bold-61" transform="translate(2045.263672 0)"/>
      <use xlink:href="#DejaVuSans-Bold-6e" transform="translate(2112.744141 0)"/>
      <use xlink:href="#DejaVuSans-Bold-74" transform="translate(2183.935547 0)"/>
      <use xlink:href="#DejaVuSans-Bold-5f" transform="translate(2231.738281 0)"/>
      <use xlink:href="#DejaVuSans-Bold-70" transform="translate(2281.738281 0)"/>
      <use xlink:href="#DejaVuSans-Bold-6f" transform="translate(2353.320312 0)"/>
      <use xlink:href="#DejaVuSans-Bold-73" transform="translate(2422.021484 0)"/>
      <use xlink:href="#DejaVuSans-Bold-69" transform="translate(2481.542969 0)"/>
      <use xlink:href="#DejaVuSans-Bold-74" transform="translate(2515.820312 0)"/>
      <use xlink:href="#DejaVuSans-Bold-69" transform="translate(2563.623047 0)"/>
      <use xlink:href="#DejaVuSans-Bold-76" transform="translate(2597.900391 0)"/>
      <use xlink:href="#DejaVuSans-Bold-65" transform="translate(2663.085938 0)"/>
      <use xlink:href="#DejaVuSans-Bold-20" transform="translate(2730.908203 0)"/>
      <use xlink:href="#DejaVuSans-Bold-70" transform="translate(2765.722656 0)"/>
      <use xlink:href="#DejaVuSans-Bold-72" transform="translate(2837.304688 0)"/>
      <use xlink:href="#DejaVuSans-Bold-6f" transform="translate(2886.621094 0)"/>
      <use xlink:href="#DejaVuSans-Bold-70" transform="translate(2955.322266 0)"/>
      <use xlink:href="#DejaVuSans-Bold-6f" transform="translate(3026.904297 0)"/>
      <use xlink:href="#DejaVuSans-Bold-72" transform="translate(3095.605469 0)"/>
      <use xlink:href="#DejaVuSans-Bold-74" transform="translate(3144.921875 0)"/>
      <use xlink:href="#DejaVuSans-Bold-69" transform="translate(3192.724609 0)"/>
      <use xlink:href="#DejaVuSans-Bold-6f" transform="translate(3227.001953 0)"/>
      <use xlink:href="#DejaVuSans-Bold-6e" transform="translate(3295.703125 0)"/>
      <use xlink:href="#DejaVuSans-Bold-20" transform="translate(3366.894531 0)"/>
      <use xlink:href="#DejaVuSans-Bold-28" transform="translate(3401.708984 0)"/>
      <use xlink:href="#DejaVuSans-Bold-70" transform="translate(3447.412109 0)"/>
      <use xlink:href="#DejaVuSans-Bold-65" transform="translate(3518.994141 0)"/>
      <use xlink:href="#DejaVuSans-Bold-72" transform="translate(3586.816406 0)"/>
      <use xlink:href="#DejaVuSans-Bold-63" transform="translate(3636.132812 0)"/>
      <use xlink:href="#DejaVuSans-Bold-65" transform="translate(3695.410156 0)"/>
      <use xlink:href="#DejaVuSans-Bold-6e" transform="translate(3763.232422 0)"/>
      <use xlink:href="#DejaVuSans-Bold-74" transform="translate(3834.423828 0)"/>
      <use xlink:href="#DejaVuSans-Bold-61" transform="translate(3882.226562 0)"/>
      <use xlink:href="#DejaVuSans-Bold-67" transform="translate(3949.707031 0)"/>
      <use xlink:href="#DejaVuSans-Bold-65" transform="translate(4021.289062 0)"/>
      <use xlink:href="#DejaVuSans-Bold-20" transform="translate(4089.111328 0)"/>
      <use xlink:href="#DejaVuSans-Bold-70" transform="translate(4123.925781 0)"/>
      <use xlink:href="#DejaVuSans-Bold-6f" transform="translate(4195.507812 0)"/>
      <use xlink:href="#DejaVuSans-Bold-69" transform="translate(4264.208984 0)"/>
      <use xlink:href="#DejaVuSans-Bold-6e" transform="translate(4298.486328 0)"/>
      <use xlink:href="#DejaVuSans-Bold-74" transform="translate(4369.677734 0)"/>
      <use xlink:href="#DejaVuSans-Bold-73" transform="translate(4417.480469 0)"/>
      <use xlink:href="#DejaVuSans-Bold-3b" transform="translate(4477.001953 0)"/>
      <use xlink:href="#DejaVuSans-Bold-20" transform="translate(4516.992188 0)"/>
      <use xlink:href="#DejaVuSans-Bold-39" transform="translate(4551.806641 0)"/>
      <use xlink:href="#DejaVuSans-Bold-35" transform="translate(4621.386719 0)"/>
      <use xlink:href="#DejaVuSans-Bold-25" transform="translate(4690.966797 0)"/>
      <use xlink:href="#DejaVuSans-Bold-20" transform="translate(4791.162109 0)"/>
      <use xlink:href="#DejaVuSans-Bold-4e" transform="translate(4825.976562 0)"/>
      <use xlink:href="#DejaVuSans-Bold-65" transform="translate(4909.667969 0)"/>
      <use xlink:href="#DejaVuSans-Bold-77" transform="translate(4977.490234 0)"/>
      <use xlink:href="#DejaVuSans-Bold-63" transform="translate(5069.873047 0)"/>
      <use xlink:href="#DejaVuSans-Bold-6f" transform="translate(5129.150391 0)"/>
      <use xlink:href="#DejaVuSans-Bold-6d" transform="translate(5197.851562 0)"/>
      <use xlink:href="#DejaVuSans-Bold-62" transform="translate(5302.050781 0)"/>
      <use xlink:href="#DejaVuSans-Bold-65" transform="translate(5373.632812 0)"/>
      <use xlink:href="#DejaVuSans-Bold-20" transform="translate(5441.455078 0)"/>
      <use xlink:href="#DejaVuSans-Bold-43" transform="translate(5476.269531 0)"/>
      <use xlink:href="#DejaVuSans-Bold-49" transform="translate(5549.658203 0)"/>
      <use xlink:href="#DejaVuSans-Bold-29" transform="translate(5586.865234 0)"/>
     </g>
    </g>
   </g>
   <g id="matplotlib.axis_2">
    <g id="ytick_1">
     <g id="line2d_11">
      <defs>
       <path id="m399730d44e" d="M 0 0 
L -3.5 0 
" style="stroke: #000000; stroke-width: 0.8"/>
      </defs>
      <g>
       <use xlink:href="#m399730d44e" x="183.061094" y="32.898281" style="stroke: #000000; stroke-width: 0.8"/>
      </g>
     </g>
     <g id="text_7">
      <!-- H5a: Consumer share ≥ 10 pp lift -->
      <g transform="translate(7.2 36.317578) scale(0.09 -0.09)">
       <defs>
        <path id="DejaVuSans-Bold-48" d="M 588 4666 
L 1791 4666 
L 1791 2888 
L 3566 2888 
L 3566 4666 
L 4769 4666 
L 4769 0 
L 3566 0 
L 3566 1978 
L 1791 1978 
L 1791 0 
L 588 0 
L 588 4666 
z
" transform="scale(0.015625)"/>
        <path id="DejaVuSans-Bold-3a" d="M 716 3500 
L 1844 3500 
L 1844 2291 
L 716 2291 
L 716 3500 
z
M 716 1209 
L 1844 1209 
L 1844 0 
L 716 0 
L 716 1209 
z
" transform="scale(0.015625)"/>
        <path id="DejaVuSans-Bold-75" d="M 500 1363 
L 500 3500 
L 1625 3500 
L 1625 3150 
Q 1625 2866 1622 2436 
Q 1619 2006 1619 1863 
Q 1619 1441 1641 1255 
Q 1663 1069 1716 984 
Q 1784 875 1895 815 
Q 2006 756 2150 756 
Q 2500 756 2700 1025 
Q 2900 1294 2900 1772 
L 2900 3500 
L 4019 3500 
L 4019 0 
L 2900 0 
L 2900 506 
Q 2647 200 2364 54 
Q 2081 -91 1741 -91 
Q 1134 -91 817 281 
Q 500 653 500 1363 
z
" transform="scale(0.015625)"/>
        <path id="DejaVuSans-Bold-68" d="M 4056 2131 
L 4056 0 
L 2931 0 
L 2931 347 
L 2931 1625 
Q 2931 2084 2911 2256 
Q 2891 2428 2841 2509 
Q 2775 2619 2662 2680 
Q 2550 2741 2406 2741 
Q 2056 2741 1856 2470 
Q 1656 2200 1656 1722 
L 1656 0 
L 538 0 
L 538 4863 
L 1656 4863 
L 1656 2988 
Q 1909 3294 2193 3439 
Q 2478 3584 2822 3584 
Q 3428 3584 3742 3212 
Q 4056 2841 4056 2131 
z
" transform="scale(0.015625)"/>
        <path id="DejaVuSans-Bold-2265" d="M 678 744 
L 4684 744 
L 4684 0 
L 678 0 
L 678 744 
z
M 678 2963 
L 678 3725 
L 4684 2681 
L 4684 1947 
L 678 897 
L 678 1656 
L 3481 2309 
L 678 2963 
z
" transform="scale(0.015625)"/>
       </defs>
       <use xlink:href="#DejaVuSans-Bold-48"/>
       <use xlink:href="#DejaVuSans-Bold-35" transform="translate(83.691406 0)"/>
       <use xlink:href="#DejaVuSans-Bold-61" transform="translate(153.271484 0)"/>
       <use xlink:href="#DejaVuSans-Bold-3a" transform="translate(220.751953 0)"/>
       <use xlink:href="#DejaVuSans-Bold-20" transform="translate(260.742188 0)"/>
       <use xlink:href="#DejaVuSans-Bold-43" transform="translate(295.556641 0)"/>
       <use xlink:href="#DejaVuSans-Bold-6f" transform="translate(368.945312 0)"/>
       <use xlink:href="#DejaVuSans-Bold-6e" transform="translate(437.646484 0)"/>
       <use xlink:href="#DejaVuSans-Bold-73" transform="translate(508.837891 0)"/>
       <use xlink:href="#DejaVuSans-Bold-75" transform="translate(568.359375 0)"/>
       <use xlink:href="#DejaVuSans-Bold-6d" transform="translate(639.550781 0)"/>
       <use xlink:href="#DejaVuSans-Bold-65" transform="translate(743.75 0)"/>
       <use xlink:href="#DejaVuSans-Bold-72" transform="translate(811.572266 0)"/>
       <use xlink:href="#DejaVuSans-Bold-20" transform="translate(860.888672 0)"/>
       <use xlink:href="#DejaVuSans-Bold-73" transform="translate(895.703125 0)"/>
       <use xlink:href="#DejaVuSans-Bold-68" transform="translate(955.224609 0)"/>
       <use xlink:href="#DejaVuSans-Bold-61" transform="translate(1026.416016 0)"/>
       <use xlink:href="#DejaVuSans-Bold-72" transform="translate(1093.896484 0)"/>
       <use xlink:href="#DejaVuSans-Bold-65" transform="translate(1143.212891 0)"/>
       <use xlink:href="#DejaVuSans-Bold-20" transform="translate(1211.035156 0)"/>
       <use xlink:href="#DejaVuSans-Bold-2265" transform="translate(1245.849609 0)"/>
       <use xlink:href="#DejaVuSans-Bold-20" transform="translate(1329.638672 0)"/>
       <use xlink:href="#DejaVuSans-Bold-31" transform="translate(1364.453125 0)"/>
       <use xlink:href="#DejaVuSans-Bold-30" transform="translate(1434.033203 0)"/>
       <use xlink:href="#DejaVuSans-Bold-20" transform="translate(1503.613281 0)"/>
       <use xlink:href="#DejaVuSans-Bold-70" transform="translate(1538.427734 0)"/>
       <use xlink:href="#DejaVuSans-Bold-70" transform="translate(1610.009766 0)"/>
       <use xlink:href="#DejaVuSans-Bold-20" transform="translate(1681.591797 0)"/>
       <use xlink:href="#DejaVuSans-Bold-6c" transform="translate(1716.40625 0)"/>
       <use xlink:href="#DejaVuSans-Bold-69" transform="translate(1750.683594 0)"/>
       <use xlink:href="#DejaVuSans-Bold-66" transform="translate(1784.960938 0)"/>
       <use xlink:href="#DejaVuSans-Bold-74" transform="translate(1828.466797 0)"/>
      </g>
     </g>
    </g>
    <g id="ytick_2">
     <g id="line2d_12">
      <g>
       <use xlink:href="#m399730d44e" x="183.061094" y="108.498281" style="stroke: #000000; stroke-width: 0.8"/>
      </g>
     </g>
     <g id="text_8">
      <!-- H5d: Mass-tort drug membership -->
      <g transform="translate(7.259062 111.917578) scale(0.09 -0.09)">
       <defs>
        <path id="DejaVuSans-Bold-4d" d="M 588 4666 
L 2119 4666 
L 3181 2169 
L 4250 4666 
L 5778 4666 
L 5778 0 
L 4641 0 
L 4641 3413 
L 3566 897 
L 2803 897 
L 1728 3413 
L 1728 0 
L 588 0 
L 588 4666 
z
" transform="scale(0.015625)"/>
        <path id="DejaVuSans-Bold-2d" d="M 347 2297 
L 2309 2297 
L 2309 1388 
L 347 1388 
L 347 2297 
z
" transform="scale(0.015625)"/>
       </defs>
       <use xlink:href="#DejaVuSans-Bold-48"/>
       <use xlink:href="#DejaVuSans-Bold-35" transform="translate(83.691406 0)"/>
       <use xlink:href="#DejaVuSans-Bold-64" transform="translate(153.271484 0)"/>
       <use xlink:href="#DejaVuSans-Bold-3a" transform="translate(224.853516 0)"/>
       <use xlink:href="#DejaVuSans-Bold-20" transform="translate(264.84375 0)"/>
       <use xlink:href="#DejaVuSans-Bold-4d" transform="translate(299.658203 0)"/>
       <use xlink:href="#DejaVuSans-Bold-61" transform="translate(399.169922 0)"/>
       <use xlink:href="#DejaVuSans-Bold-73" transform="translate(466.650391 0)"/>
       <use xlink:href="#DejaVuSans-Bold-73" transform="translate(526.171875 0)"/>
       <use xlink:href="#DejaVuSans-Bold-2d" transform="translate(585.693359 0)"/>
       <use xlink:href="#DejaVuSans-Bold-74" transform="translate(627.197266 0)"/>
       <use xlink:href="#DejaVuSans-Bold-6f" transform="translate(675 0)"/>
       <use xlink:href="#DejaVuSans-Bold-72" transform="translate(743.701172 0)"/>
       <use xlink:href="#DejaVuSans-Bold-74" transform="translate(793.017578 0)"/>
       <use xlink:href="#DejaVuSans-Bold-20" transform="translate(840.820312 0)"/>
       <use xlink:href="#DejaVuSans-Bold-64" transform="translate(875.634766 0)"/>
       <use xlink:href="#DejaVuSans-Bold-72" transform="translate(947.216797 0)"/>
       <use xlink:href="#DejaVuSans-Bold-75" transform="translate(996.533203 0)"/>
       <use xlink:href="#DejaVuSans-Bold-67" transform="translate(1067.724609 0)"/>
       <use xlink:href="#DejaVuSans-Bold-20" transform="translate(1139.306641 0)"/>
       <use xlink:href="#DejaVuSans-Bold-6d" transform="translate(1174.121094 0)"/>
       <use xlink:href="#DejaVuSans-Bold-65" transform="translate(1278.320312 0)"/>
       <use xlink:href="#DejaVuSans-Bold-6d" transform="translate(1346.142578 0)"/>
       <use xlink:href="#DejaVuSans-Bold-62" transform="translate(1450.341797 0)"/>
       <use xlink:href="#DejaVuSans-Bold-65" transform="translate(1521.923828 0)"/>
       <use xlink:href="#DejaVuSans-Bold-72" transform="translate(1589.746094 0)"/>
       <use xlink:href="#DejaVuSans-Bold-73" transform="translate(1639.0625 0)"/>
       <use xlink:href="#DejaVuSans-Bold-68" transform="translate(1698.583984 0)"/>
       <use xlink:href="#DejaVuSans-Bold-69" transform="translate(1769.775391 0)"/>
       <use xlink:href="#DejaVuSans-Bold-70" transform="translate(1804.052734 0)"/>
      </g>
     </g>
    </g>
    <g id="ytick_3">
     <g id="line2d_13">
      <g>
       <use xlink:href="#m399730d44e" x="183.061094" y="184.098281" style="stroke: #000000; stroke-width: 0.8"/>
      </g>
     </g>
     <g id="text_9">
      <!-- H5b: Lawyer share ≥ 5 pp lift -->
      <g transform="translate(27.440156 187.517578) scale(0.09 -0.09)">
       <defs>
        <path id="DejaVuSans-Bold-4c" d="M 588 4666 
L 1791 4666 
L 1791 909 
L 3903 909 
L 3903 0 
L 588 0 
L 588 4666 
z
" transform="scale(0.015625)"/>
       </defs>
       <use xlink:href="#DejaVuSans-Bold-48"/>
       <use xlink:href="#DejaVuSans-Bold-35" transform="translate(83.691406 0)"/>
       <use xlink:href="#DejaVuSans-Bold-62" transform="translate(153.271484 0)"/>
       <use xlink:href="#DejaVuSans-Bold-3a" transform="translate(224.853516 0)"/>
       <use xlink:href="#DejaVuSans-Bold-20" transform="translate(264.84375 0)"/>
       <use xlink:href="#DejaVuSans-Bold-4c" transform="translate(299.658203 0)"/>
       <use xlink:href="#DejaVuSans-Bold-61" transform="translate(363.378906 0)"/>
       <use xlink:href="#DejaVuSans-Bold-77" transform="translate(430.859375 0)"/>
       <use xlink:href="#DejaVuSans-Bold-79" transform="translate(523.242188 0)"/>
       <use xlink:href="#DejaVuSans-Bold-65" transform="translate(588.427734 0)"/>
       <use xlink:href="#DejaVuSans-Bold-72" transform="translate(656.25 0)"/>
       <use xlink:href="#DejaVuSans-Bold-20" transform="translate(705.566406 0)"/>
       <use xlink:href="#DejaVuSans-Bold-73" transform="translate(740.380859 0)"/>
       <use xlink:href="#DejaVuSans-Bold-68" transform="translate(799.902344 0)"/>
       <use xlink:href="#DejaVuSans-Bold-61" transform="translate(871.09375 0)"/>
       <use xlink:href="#DejaVuSans-Bold-72" transform="translate(938.574219 0)"/>
       <use xlink:href="#DejaVuSans-Bold-65" transform="translate(987.890625 0)"/>
       <use xlink:href="#DejaVuSans-Bold-20" transform="translate(1055.712891 0)"/>
       <use xlink:href="#DejaVuSans-Bold-2265" transform="translate(1090.527344 0)"/>
       <use xlink:href="#DejaVuSans-Bold-20" transform="translate(1174.316406 0)"/>
       <use xlink:href="#DejaVuSans-Bold-35" transform="translate(1209.130859 0)"/>
       <use xlink:href="#DejaVuSans-Bold-20" transform="translate(1278.710938 0)"/>
       <use xlink:href="#DejaVuSans-Bold-70" transform="translate(1313.525391 0)"/>
       <use xlink:href="#DejaVuSans-Bold-70" transform="translate(1385.107422 0)"/>
       <use xlink:href="#DejaVuSans-Bold-20" transform="translate(1456.689453 0)"/>
       <use xlink:href="#DejaVuSans-Bold-6c" transform="translate(1491.503906 0)"/>
       <use xlink:href="#DejaVuSans-Bold-69" transform="translate(1525.78125 0)"/>
       <use xlink:href="#DejaVuSans-Bold-66" transform="translate(1560.058594 0)"/>
       <use xlink:href="#DejaVuSans-Bold-74" transform="translate(1603.564453 0)"/>
      </g>
     </g>
    </g>
    <g id="ytick_4">
     <g id="line2d_14">
      <g>
       <use xlink:href="#m399730d44e" x="183.061094" y="259.698281" style="stroke: #000000; stroke-width: 0.8"/>
      </g>
     </g>
     <g id="text_10">
      <!-- H5c: Bai-Perron alert alignment -->
      <g transform="translate(14.724844 263.117578) scale(0.09 -0.09)">
       <defs>
        <path id="DejaVuSans-Bold-42" d="M 2456 2859 
Q 2741 2859 2887 2984 
Q 3034 3109 3034 3353 
Q 3034 3594 2887 3720 
Q 2741 3847 2456 3847 
L 1791 3847 
L 1791 2859 
L 2456 2859 
z
M 2497 819 
Q 2859 819 3042 972 
Q 3225 1125 3225 1434 
Q 3225 1738 3044 1889 
Q 2863 2041 2497 2041 
L 1791 2041 
L 1791 819 
L 2497 819 
z
M 3616 2497 
Q 4003 2384 4215 2081 
Q 4428 1778 4428 1338 
Q 4428 663 3972 331 
Q 3516 0 2584 0 
L 588 0 
L 588 4666 
L 2394 4666 
Q 3366 4666 3802 4372 
Q 4238 4078 4238 3431 
Q 4238 3091 4078 2852 
Q 3919 2613 3616 2497 
z
" transform="scale(0.015625)"/>
        <path id="DejaVuSans-Bold-50" d="M 588 4666 
L 2584 4666 
Q 3475 4666 3951 4270 
Q 4428 3875 4428 3144 
Q 4428 2409 3951 2014 
Q 3475 1619 2584 1619 
L 1791 1619 
L 1791 0 
L 588 0 
L 588 4666 
z
M 1791 3794 
L 1791 2491 
L 2456 2491 
Q 2806 2491 2997 2661 
Q 3188 2831 3188 3144 
Q 3188 3456 2997 3625 
Q 2806 3794 2456 3794 
L 1791 3794 
z
" transform="scale(0.015625)"/>
       </defs>
       <use xlink:href="#DejaVuSans-Bold-48"/>
       <use xlink:href="#DejaVuSans-Bold-35" transform="translate(83.691406 0)"/>
       <use xlink:href="#DejaVuSans-Bold-63" transform="translate(153.271484 0)"/>
       <use xlink:href="#DejaVuSans-Bold-3a" transform="translate(212.548828 0)"/>
       <use xlink:href="#DejaVuSans-Bold-20" transform="translate(252.539062 0)"/>
       <use xlink:href="#DejaVuSans-Bold-42" transform="translate(287.353516 0)"/>
       <use xlink:href="#DejaVuSans-Bold-61" transform="translate(363.574219 0)"/>
       <use xlink:href="#DejaVuSans-Bold-69" transform="translate(431.054688 0)"/>
       <use xlink:href="#DejaVuSans-Bold-2d" transform="translate(465.332031 0)"/>
       <use xlink:href="#DejaVuSans-Bold-50" transform="translate(506.835938 0)"/>
       <use xlink:href="#DejaVuSans-Bold-65" transform="translate(580.126953 0)"/>
       <use xlink:href="#DejaVuSans-Bold-72" transform="translate(647.949219 0)"/>
       <use xlink:href="#DejaVuSans-Bold-72" transform="translate(697.265625 0)"/>
       <use xlink:href="#DejaVuSans-Bold-6f" transform="translate(746.582031 0)"/>
       <use xlink:href="#DejaVuSans-Bold-6e" transform="translate(815.283203 0)"/>
       <use xlink:href="#DejaVuSans-Bold-20" transform="translate(886.474609 0)"/>
       <use xlink:href="#DejaVuSans-Bold-61" transform="translate(921.289062 0)"/>
       <use xlink:href="#DejaVuSans-Bold-6c" transform="translate(988.769531 0)"/>
       <use xlink:href="#DejaVuSans-Bold-65" transform="translate(1023.046875 0)"/>
       <use xlink:href="#DejaVuSans-Bold-72" transform="translate(1090.869141 0)"/>
       <use xlink:href="#DejaVuSans-Bold-74" transform="translate(1140.185547 0)"/>
       <use xlink:href="#DejaVuSans-Bold-20" transform="translate(1187.988281 0)"/>
       <use xlink:href="#DejaVuSans-Bold-61" transform="translate(1222.802734 0)"/>
       <use xlink:href="#DejaVuSans-Bold-6c" transform="translate(1290.283203 0)"/>
       <use xlink:href="#DejaVuSans-Bold-69" transform="translate(1324.560547 0)"/>
       <use xlink:href="#DejaVuSans-Bold-67" transform="translate(1358.837891 0)"/>
       <use xlink:href="#DejaVuSans-Bold-6e" transform="translate(1430.419922 0)"/>
       <use xlink:href="#DejaVuSans-Bold-6d" transform="translate(1501.611328 0)"/>
       <use xlink:href="#DejaVuSans-Bold-65" transform="translate(1605.810547 0)"/>
       <use xlink:href="#DejaVuSans-Bold-6e" transform="translate(1673.632812 0)"/>
       <use xlink:href="#DejaVuSans-Bold-74" transform="translate(1744.824219 0)"/>
      </g>
     </g>
    </g>
   </g>
   <g id="LineCollection_1">
    <path d="M 359.936565 32.898281 
L 470.273169 32.898281 
" clip-path="url(#p4a517afaef)" style="fill: none; stroke: #2c5f2c; stroke-width: 2"/>
   </g>
   <g id="line2d_15">
    <defs>
     <path id="m507e5c1350" d="M 0 4 
L 0 -4 
" style="stroke: #2c5f2c"/>
    </defs>
    <g clip-path="url(#p4a517afaef)">
     <use xlink:href="#m507e5c1350" x="359.936565" y="32.898281" style="fill: #2c5f2c; stroke: #2c5f2c"/>
    </g>
   </g>
   <g id="line2d_16">
    <g clip-path="url(#p4a517afaef)">
     <use xlink:href="#m507e5c1350" x="470.273169" y="32.898281" style="fill: #2c5f2c; stroke: #2c5f2c"/>
    </g>
   </g>
   <g id="LineCollection_2">
    <path d="M 288.975811 108.498281 
L 331.089018 108.498281 
" clip-path="url(#p4a517afaef)" style="fill: none; stroke: #2c5f2c; stroke-width: 2"/>
   </g>
   <g id="line2d_17">
    <g clip-path="url(#p4a517afaef)">
     <use xlink:href="#m507e5c1350" x="288.975811" y="108.498281" style="fill: #2c5f2c; stroke: #2c5f2c"/>
    </g>
   </g>
   <g id="line2d_18">
    <g clip-path="url(#p4a517afaef)">
     <use xlink:href="#m507e5c1350" x="331.089018" y="108.498281" style="fill: #2c5f2c; stroke: #2c5f2c"/>
    </g>
   </g>
   <g id="LineCollection_3">
    <path d="M 235.070905 184.098281 
L 275.078452 184.098281 
" clip-path="url(#p4a517afaef)" style="fill: none; stroke: #c0392b; stroke-width: 2"/>
   </g>
   <g id="line2d_19">
    <defs>
     <path id="m1229d12f0d" d="M 0 4 
L 0 -4 
" style="stroke: #c0392b"/>
    </defs>
    <g clip-path="url(#p4a517afaef)">
     <use xlink:href="#m1229d12f0d" x="235.070905" y="184.098281" style="fill: #c0392b; stroke: #c0392b"/>
    </g>
   </g>
   <g id="line2d_20">
    <g clip-path="url(#p4a517afaef)">
     <use xlink:href="#m1229d12f0d" x="275.078452" y="184.098281" style="fill: #c0392b; stroke: #c0392b"/>
    </g>
   </g>
   <g id="LineCollection_4">
    <path d="M 269.182603 259.698281 
L 280.342603 259.698281 
" clip-path="url(#p4a517afaef)" style="fill: none; stroke: #888888; stroke-width: 2"/>
   </g>
   <g id="line2d_21">
    <defs>
     <path id="m35b041c947" d="M 0 4 
L 0 -4 
" style="stroke: #888888"/>
    </defs>
    <g clip-path="url(#p4a517afaef)">
     <use xlink:href="#m35b041c947" x="269.182603" y="259.698281" style="fill: #888888; stroke: #888888"/>
    </g>
   </g>
   <g id="line2d_22">
    <g clip-path="url(#p4a517afaef)">
     <use xlink:href="#m35b041c947" x="280.342603" y="259.698281" style="fill: #888888; stroke: #888888"/>
    </g>
   </g>
   <g id="line2d_23">
    <path d="M 277.815811 271.038281 
L 277.815811 21.558281 
" clip-path="url(#p4a517afaef)" style="fill: none; stroke-dasharray: 2.96,1.28; stroke-dashoffset: 0; stroke: #888888; stroke-width: 0.8"/>
   </g>
   <g id="line2d_24">
    <defs>
     <path id="m674e9e666b" d="M 0 5 
C 1.326016 5 2.597899 4.473168 3.535534 3.535534 
C 4.473168 2.597899 5 1.326016 5 0 
C 5 -1.326016 4.473168 -2.597899 3.535534 -3.535534 
C 2.597899 -4.473168 1.326016 -5 0 -5 
C -1.326016 -5 -2.597899 -4.473168 -3.535534 -3.535534 
C -4.473168 -2.597899 -5 -1.326016 -5 0 
C -5 1.326016 -4.473168 2.597899 -3.535534 3.535534 
C -2.597899 4.473168 -1.326016 5 0 5 
z
" style="stroke: #2c5f2c"/>
    </defs>
    <g clip-path="url(#p4a517afaef)">
     <use xlink:href="#m674e9e666b" x="417.210528" y="32.898281" style="fill: #2c5f2c; stroke: #2c5f2c"/>
    </g>
   </g>
   <g id="line2d_25">
    <g clip-path="url(#p4a517afaef)">
     <use xlink:href="#m674e9e666b" x="312.559207" y="108.498281" style="fill: #2c5f2c; stroke: #2c5f2c"/>
    </g>
   </g>
   <g id="line2d_26">
    <defs>
     <path id="mfda09dad89" d="M 0 5 
C 1.326016 5 2.597899 4.473168 3.535534 3.535534 
C 4.473168 2.597899 5 1.326016 5 0 
C 5 -1.326016 4.473168 -2.597899 3.535534 -3.535534 
C 2.597899 -4.473168 1.326016 -5 0 -5 
C -1.326016 -5 -2.597899 -4.473168 -3.535534 -3.535534 
C -4.473168 -2.597899 -5 -1.326016 -5 0 
C -5 1.326016 -4.473168 2.597899 -3.535534 3.535534 
C -2.597899 4.473168 -1.326016 5 0 5 
z
" style="stroke: #c0392b"/>
    </defs>
    <g clip-path="url(#p4a517afaef)">
     <use xlink:href="#mfda09dad89" x="258.233169" y="184.098281" style="fill: #c0392b; stroke: #c0392b"/>
    </g>
   </g>
   <g id="line2d_27">
    <defs>
     <path id="m6c7bb98f94" d="M 0 5 
C 1.326016 5 2.597899 4.473168 3.535534 3.535534 
C 4.473168 2.597899 5 1.326016 5 0 
C 5 -1.326016 4.473168 -2.597899 3.535534 -3.535534 
C 2.597899 -4.473168 1.326016 -5 0 -5 
C -1.326016 -5 -2.597899 -4.473168 -3.535534 -3.535534 
C -4.473168 -2.597899 -5 -1.326016 -5 0 
C -5 1.326016 -4.473168 2.597899 -3.535534 3.535534 
C -2.597899 4.473168 -1.326016 5 0 5 
z
" style="stroke: #888888"/>
    </defs>
    <g clip-path="url(#p4a517afaef)">
     <use xlink:href="#m6c7bb98f94" x="277.815811" y="259.698281" style="fill: #888888; stroke: #888888"/>
    </g>
   </g>
   <g id="patch_3">
    <path d="M 183.061094 271.038281 
L 183.061094 21.558281 
" style="fill: none; stroke: #000000; stroke-width: 0.8; stroke-linejoin: miter; stroke-linecap: square"/>
   </g>
   <g id="patch_4">
    <path d="M 183.061094 271.038281 
L 741.061094 271.038281 
" style="fill: none; stroke: #000000; stroke-width: 0.8; stroke-linejoin: miter; stroke-linecap: square"/>
   </g>
   <g id="text_11">
    <!--   Δ = +6.62 pp  [+3.90, +9.14]   p = 0.0001   Holm: REJECT -->
    <g style="fill: #2c5f2c" transform="translate(480.801471 35.24375) scale(0.085 -0.085)">
     <defs>
      <path id="DejaVuSans-Bold-2b" d="M 3053 4013 
L 3053 2375 
L 4684 2375 
L 4684 1638 
L 3053 1638 
L 3053 0 
L 2309 0 
L 2309 1638 
L 678 1638 
L 678 2375 
L 2309 2375 
L 2309 4013 
L 3053 4013 
z
" transform="scale(0.015625)"/>
      <path id="DejaVuSans-Bold-36" d="M 2316 2303 
Q 2000 2303 1842 2098 
Q 1684 1894 1684 1484 
Q 1684 1075 1842 870 
Q 2000 666 2316 666 
Q 2634 666 2792 870 
Q 2950 1075 2950 1484 
Q 2950 1894 2792 2098 
Q 2634 2303 2316 2303 
z
M 3803 4544 
L 3803 3681 
Q 3506 3822 3243 3889 
Q 2981 3956 2731 3956 
Q 2194 3956 1894 3657 
Q 1594 3359 1544 2772 
Q 1750 2925 1990 3001 
Q 2231 3078 2516 3078 
Q 3231 3078 3670 2659 
Q 4109 2241 4109 1563 
Q 4109 813 3618 361 
Q 3128 -91 2303 -91 
Q 1394 -91 895 523 
Q 397 1138 397 2266 
Q 397 3422 980 4083 
Q 1563 4744 2578 4744 
Q 2900 4744 3203 4694 
Q 3506 4644 3803 4544 
z
" transform="scale(0.015625)"/>
      <path id="DejaVuSans-Bold-2e" d="M 653 1209 
L 1778 1209 
L 1778 0 
L 653 0 
L 653 1209 
z
" transform="scale(0.015625)"/>
      <path id="DejaVuSans-Bold-5b" d="M 550 4863 
L 2491 4863 
L 2491 4159 
L 1613 4159 
L 1613 -141 
L 2491 -141 
L 2491 -844 
L 550 -844 
L 550 4863 
z
" transform="scale(0.015625)"/>
      <path id="DejaVuSans-Bold-33" d="M 2981 2516 
Q 3453 2394 3698 2092 
Q 3944 1791 3944 1325 
Q 3944 631 3412 270 
Q 2881 -91 1863 -91 
Q 1503 -91 1142 -33 
Q 781 25 428 141 
L 428 1069 
Q 766 900 1098 814 
Q 1431 728 1753 728 
Q 2231 728 2486 893 
Q 2741 1059 2741 1369 
Q 2741 1688 2480 1852 
Q 2219 2016 1709 2016 
L 1228 2016 
L 1228 2791 
L 1734 2791 
Q 2188 2791 2409 2933 
Q 2631 3075 2631 3366 
Q 2631 3634 2415 3781 
Q 2200 3928 1806 3928 
Q 1516 3928 1219 3862 
Q 922 3797 628 3669 
L 628 4550 
Q 984 4650 1334 4700 
Q 1684 4750 2022 4750 
Q 2931 4750 3382 4451 
Q 3834 4153 3834 3553 
Q 3834 3144 3618 2883 
Q 3403 2622 2981 2516 
z
" transform="scale(0.015625)"/>
      <path id="DejaVuSans-Bold-2c" d="M 653 1209 
L 1778 1209 
L 1778 256 
L 1006 -909 
L 341 -909 
L 653 256 
L 653 1209 
z
" transform="scale(0.015625)"/>
      <path id="DejaVuSans-Bold-34" d="M 2356 3675 
L 1038 1722 
L 2356 1722 
L 2356 3675 
z
M 2156 4666 
L 3494 4666 
L 3494 1722 
L 4159 1722 
L 4159 850 
L 3494 850 
L 3494 0 
L 2356 0 
L 2356 850 
L 288 850 
L 288 1881 
L 2156 4666 
z
" transform="scale(0.015625)"/>
      <path id="DejaVuSans-Bold-5d" d="M 2375 -844 
L 434 -844 
L 434 -141 
L 1313 -141 
L 1313 4159 
L 434 4159 
L 434 4863 
L 2375 4863 
L 2375 -844 
z
" transform="scale(0.015625)"/>
      <path id="DejaVuSans-Bold-52" d="M 2297 2597 
Q 2675 2597 2839 2737 
Q 3003 2878 3003 3200 
Q 3003 3519 2839 3656 
Q 2675 3794 2297 3794 
L 1791 3794 
L 1791 2597 
L 2297 2597 
z
M 1791 1766 
L 1791 0 
L 588 0 
L 588 4666 
L 2425 4666 
Q 3347 4666 3776 4356 
Q 4206 4047 4206 3378 
Q 4206 2916 3982 2619 
Q 3759 2322 3309 2181 
Q 3556 2125 3751 1926 
Q 3947 1728 4147 1325 
L 4800 0 
L 3519 0 
L 2950 1159 
Q 2778 1509 2601 1637 
Q 2425 1766 2131 1766 
L 1791 1766 
z
" transform="scale(0.015625)"/>
      <path id="DejaVuSans-Bold-45" d="M 588 4666 
L 3834 4666 
L 3834 3756 
L 1791 3756 
L 1791 2888 
L 3713 2888 
L 3713 1978 
L 1791 1978 
L 1791 909 
L 3903 909 
L 3903 0 
L 588 0 
L 588 4666 
z
" transform="scale(0.015625)"/>
      <path id="DejaVuSans-Bold-4a" d="M 588 4666 
L 1791 4666 
L 1791 453 
Q 1791 -419 1317 -850 
Q 844 -1281 -116 -1281 
L -359 -1281 
L -359 -372 
L -172 -372 
Q 203 -372 395 -162 
Q 588 47 588 453 
L 588 4666 
z
" transform="scale(0.015625)"/>
      <path id="DejaVuSans-Bold-54" d="M 31 4666 
L 4331 4666 
L 4331 3756 
L 2784 3756 
L 2784 0 
L 1581 0 
L 1581 3756 
L 31 3756 
L 31 4666 
z
" transform="scale(0.015625)"/>
     </defs>
     <use xlink:href="#DejaVuSans-Bold-20"/>
     <use xlink:href="#DejaVuSans-Bold-20" transform="translate(34.814453 0)"/>
     <use xlink:href="#DejaVuSans-Bold-394" transform="translate(69.628906 0)"/>
     <use xlink:href="#DejaVuSans-Bold-20" transform="translate(147.021484 0)"/>
     <use xlink:href="#DejaVuSans-Bold-3d" transform="translate(181.835938 0)"/>
     <use xlink:href="#DejaVuSans-Bold-20" transform="translate(265.625 0)"/>
     <use xlink:href="#DejaVuSans-Bold-2b" transform="translate(300.439453 0)"/>
     <use xlink:href="#DejaVuSans-Bold-36" transform="translate(384.228516 0)"/>
     <use xlink:href="#DejaVuSans-Bold-2e" transform="translate(453.808594 0)"/>
     <use xlink:href="#DejaVuSans-Bold-36" transform="translate(491.796875 0)"/>
     <use xlink:href="#DejaVuSans-Bold-32" transform="translate(561.376953 0)"/>
     <use xlink:href="#DejaVuSans-Bold-20" transform="translate(630.957031 0)"/>
     <use xlink:href="#DejaVuSans-Bold-70" transform="translate(665.771484 0)"/>
     <use xlink:href="#DejaVuSans-Bold-70" transform="translate(737.353516 0)"/>
     <use xlink:href="#DejaVuSans-Bold-20" transform="translate(808.935547 0)"/>
     <use xlink:href="#DejaVuSans-Bold-20" transform="translate(843.75 0)"/>
     <use xlink:href="#DejaVuSans-Bold-5b" transform="translate(878.564453 0)"/>
     <use xlink:href="#DejaVuSans-Bold-2b" transform="translate(924.267578 0)"/>
     <use xlink:href="#DejaVuSans-Bold-33" transform="translate(1008.056641 0)"/>
     <use xlink:href="#DejaVuSans-Bold-2e" transform="translate(1077.636719 0)"/>
     <use xlink:href="#DejaVuSans-Bold-39" transform="translate(1115.625 0)"/>
     <use xlink:href="#DejaVuSans-Bold-30" transform="translate(1185.205078 0)"/>
     <use xlink:href="#DejaVuSans-Bold-2c" transform="translate(1254.785156 0)"/>
     <use xlink:href="#DejaVuSans-Bold-20" transform="translate(1292.773438 0)"/>
     <use xlink:href="#DejaVuSans-Bold-2b" transform="translate(1327.587891 0)"/>
     <use xlink:href="#DejaVuSans-Bold-39" transform="translate(1411.376953 0)"/>
     <use xlink:href="#DejaVuSans-Bold-2e" transform="translate(1480.957031 0)"/>
     <use xlink:href="#DejaVuSans-Bold-31" transform="translate(1518.945312 0)"/>
     <use xlink:href="#DejaVuSans-Bold-34" transform="translate(1588.525391 0)"/>
     <use xlink:href="#DejaVuSans-Bold-5d" transform="translate(1658.105469 0)"/>
     <use xlink:href="#DejaVuSans-Bold-20" transform="translate(1703.808594 0)"/>
     <use xlink:href="#DejaVuSans-Bold-20" transform="translate(1738.623047 0)"/>
     <use xlink:href="#DejaVuSans-Bold-20" transform="translate(1773.4375 0)"/>
     <use xlink:href="#DejaVuSans-Bold-70" transform="translate(1808.251953 0)"/>
     <use xlink:href="#DejaVuSans-Bold-20" transform="translate(1879.833984 0)"/>
     <use xlink:href="#DejaVuSans-Bold-3d" transform="translate(1914.648438 0)"/>
     <use xlink:href="#DejaVuSans-Bold-20" transform="translate(1998.4375 0)"/>
     <use xlink:href="#DejaVuSans-Bold-30" transform="translate(2033.251953 0)"/>
     <use xlink:href="#DejaVuSans-Bold-2e" transform="translate(2102.832031 0)"/>
     <use xlink:href="#DejaVuSans-Bold-30" transform="translate(2140.820312 0)"/>
     <use xlink:href="#DejaVuSans-Bold-30" transform="translate(2210.400391 0)"/>
     <use xlink:href="#DejaVuSans-Bold-30" transform="translate(2279.980469 0)"/>
     <use xlink:href="#DejaVuSans-Bold-31" transform="translate(2349.560547 0)"/>
     <use xlink:href="#DejaVuSans-Bold-20" transform="translate(2419.140625 0)"/>
     <use xlink:href="#DejaVuSans-Bold-20" transform="translate(2453.955078 0)"/>
     <use xlink:href="#DejaVuSans-Bold-20" transform="translate(2488.769531 0)"/>
     <use xlink:href="#DejaVuSans-Bold-48" transform="translate(2523.583984 0)"/>
     <use xlink:href="#DejaVuSans-Bold-6f" transform="translate(2607.275391 0)"/>
     <use xlink:href="#DejaVuSans-Bold-6c" transform="translate(2675.976562 0)"/>
     <use xlink:href="#DejaVuSans-Bold-6d" transform="translate(2710.253906 0)"/>
     <use xlink:href="#DejaVuSans-Bold-3a" transform="translate(2814.453125 0)"/>
     <use xlink:href="#DejaVuSans-Bold-20" transform="translate(2854.443359 0)"/>
     <use xlink:href="#DejaVuSans-Bold-52" transform="translate(2889.257812 0)"/>
     <use xlink:href="#DejaVuSans-Bold-45" transform="translate(2966.259766 0)"/>
     <use xlink:href="#DejaVuSans-Bold-4a" transform="translate(3034.570312 0)"/>
     <use xlink:href="#DejaVuSans-Bold-45" transform="translate(3071.777344 0)"/>
     <use xlink:href="#DejaVuSans-Bold-43" transform="translate(3140.087891 0)"/>
     <use xlink:href="#DejaVuSans-Bold-54" transform="translate(3213.476562 0)"/>
    </g>
   </g>
   <g id="text_12">
    <!--   Δ = +1.65 pp  [+0.53, +2.53]   p = 0.006   Holm: REJECT -->
    <g style="fill: #2c5f2c" transform="translate(341.61732 110.84375) scale(0.085 -0.085)">
     <use xlink:href="#DejaVuSans-Bold-20"/>
     <use xlink:href="#DejaVuSans-Bold-20" transform="translate(34.814453 0)"/>
     <use xlink:href="#DejaVuSans-Bold-394" transform="translate(69.628906 0)"/>
     <use xlink:href="#DejaVuSans-Bold-20" transform="translate(147.021484 0)"/>
     <use xlink:href="#DejaVuSans-Bold-3d" transform="translate(181.835938 0)"/>
     <use xlink:href="#DejaVuSans-Bold-20" transform="translate(265.625 0)"/>
     <use xlink:href="#DejaVuSans-Bold-2b" transform="translate(300.439453 0)"/>
     <use xlink:href="#DejaVuSans-Bold-31" transform="translate(384.228516 0)"/>
     <use xlink:href="#DejaVuSans-Bold-2e" transform="translate(453.808594 0)"/>
     <use xlink:href="#DejaVuSans-Bold-36" transform="translate(491.796875 0)"/>
     <use xlink:href="#DejaVuSans-Bold-35" transform="translate(561.376953 0)"/>
     <use xlink:href="#DejaVuSans-Bold-20" transform="translate(630.957031 0)"/>
     <use xlink:href="#DejaVuSans-Bold-70" transform="translate(665.771484 0)"/>
     <use xlink:href="#DejaVuSans-Bold-70" transform="translate(737.353516 0)"/>
     <use xlink:href="#DejaVuSans-Bold-20" transform="translate(808.935547 0)"/>
     <use xlink:href="#DejaVuSans-Bold-20" transform="translate(843.75 0)"/>
     <use xlink:href="#DejaVuSans-Bold-5b" transform="translate(878.564453 0)"/>
     <use xlink:href="#DejaVuSans-Bold-2b" transform="translate(924.267578 0)"/>
     <use xlink:href="#DejaVuSans-Bold-30" transform="translate(1008.056641 0)"/>
     <use xlink:href="#DejaVuSans-Bold-2e" transform="translate(1077.636719 0)"/>
     <use xlink:href="#DejaVuSans-Bold-35" transform="translate(1115.625 0)"/>
     <use xlink:href="#DejaVuSans-Bold-33" transform="translate(1185.205078 0)"/>
     <use xlink:href="#DejaVuSans-Bold-2c" transform="translate(1254.785156 0)"/>
     <use xlink:href="#DejaVuSans-Bold-20" transform="translate(1292.773438 0)"/>
     <use xlink:href="#DejaVuSans-Bold-2b" transform="translate(1327.587891 0)"/>
     <use xlink:href="#DejaVuSans-Bold-32" transform="translate(1411.376953 0)"/>
     <use xlink:href="#DejaVuSans-Bold-2e" transform="translate(1480.957031 0)"/>
     <use xlink:href="#DejaVuSans-Bold-35" transform="translate(1518.945312 0)"/>
     <use xlink:href="#DejaVuSans-Bold-33" transform="translate(1588.525391 0)"/>
     <use xlink:href="#DejaVuSans-Bold-5d" transform="translate(1658.105469 0)"/>
     <use xlink:href="#DejaVuSans-Bold-20" transform="translate(1703.808594 0)"/>
     <use xlink:href="#DejaVuSans-Bold-20" transform="translate(1738.623047 0)"/>
     <use xlink:href="#DejaVuSans-Bold-20" transform="translate(1773.4375 0)"/>
     <use xlink:href="#DejaVuSans-Bold-70" transform="translate(1808.251953 0)"/>
     <use xlink:href="#DejaVuSans-Bold-20" transform="translate(1879.833984 0)"/>
     <use xlink:href="#DejaVuSans-Bold-3d" transform="translate(1914.648438 0)"/>
     <use xlink:href="#DejaVuSans-Bold-20" transform="translate(1998.4375 0)"/>
     <use xlink:href="#DejaVuSans-Bold-30" transform="translate(2033.251953 0)"/>
     <use xlink:href="#DejaVuSans-Bold-2e" transform="translate(2102.832031 0)"/>
     <use xlink:href="#DejaVuSans-Bold-30" transform="translate(2140.820312 0)"/>
     <use xlink:href="#DejaVuSans-Bold-30" transform="translate(2210.400391 0)"/>
     <use xlink:href="#DejaVuSans-Bold-36" transform="translate(2279.980469 0)"/>
     <use xlink:href="#DejaVuSans-Bold-20" transform="translate(2349.560547 0)"/>
     <use xlink:href="#DejaVuSans-Bold-20" transform="translate(2384.375 0)"/>
     <use xlink:href="#DejaVuSans-Bold-20" transform="translate(2419.189453 0)"/>
     <use xlink:href="#DejaVuSans-Bold-48" transform="translate(2454.003906 0)"/>
     <use xlink:href="#DejaVuSans-Bold-6f" transform="translate(2537.695312 0)"/>
     <use xlink:href="#DejaVuSans-Bold-6c" transform="translate(2606.396484 0)"/>
     <use xlink:href="#DejaVuSans-Bold-6d" transform="translate(2640.673828 0)"/>
     <use xlink:href="#DejaVuSans-Bold-3a" transform="translate(2744.873047 0)"/>
     <use xlink:href="#DejaVuSans-Bold-20" transform="translate(2784.863281 0)"/>
     <use xlink:href="#DejaVuSans-Bold-52" transform="translate(2819.677734 0)"/>
     <use xlink:href="#DejaVuSans-Bold-45" transform="translate(2896.679688 0)"/>
     <use xlink:href="#DejaVuSans-Bold-4a" transform="translate(2964.990234 0)"/>
     <use xlink:href="#DejaVuSans-Bold-45" transform="translate(3002.197266 0)"/>
     <use xlink:href="#DejaVuSans-Bold-43" transform="translate(3070.507812 0)"/>
     <use xlink:href="#DejaVuSans-Bold-54" transform="translate(3143.896484 0)"/>
    </g>
   </g>
   <g id="text_13">
    <!--   Δ = -0.93 pp  [-2.03, -0.13]   p = 0.019   Holm: REJECT (contradictory) -->
    <g style="fill: #c0392b" transform="translate(285.606754 186.410547) scale(0.085 -0.085)">
     <use xlink:href="#DejaVuSans-Bold-20"/>
     <use xlink:href="#DejaVuSans-Bold-20" transform="translate(34.814453 0)"/>
     <use xlink:href="#DejaVuSans-Bold-394" transform="translate(69.628906 0)"/>
     <use xlink:href="#DejaVuSans-Bold-20" transform="translate(147.021484 0)"/>
     <use xlink:href="#DejaVuSans-Bold-3d" transform="translate(181.835938 0)"/>
     <use xlink:href="#DejaVuSans-Bold-20" transform="translate(265.625 0)"/>
     <use xlink:href="#DejaVuSans-Bold-2d" transform="translate(300.439453 0)"/>
     <use xlink:href="#DejaVuSans-Bold-30" transform="translate(341.943359 0)"/>
     <use xlink:href="#DejaVuSans-Bold-2e" transform="translate(411.523438 0)"/>
     <use xlink:href="#DejaVuSans-Bold-39" transform="translate(449.511719 0)"/>
     <use xlink:href="#DejaVuSans-Bold-33" transform="translate(519.091797 0)"/>
     <use xlink:href="#DejaVuSans-Bold-20" transform="translate(588.671875 0)"/>
     <use xlink:href="#DejaVuSans-Bold-70" transform="translate(623.486328 0)"/>
     <use xlink:href="#DejaVuSans-Bold-70" transform="translate(695.068359 0)"/>
     <use xlink:href="#DejaVuSans-Bold-20" transform="translate(766.650391 0)"/>
     <use xlink:href="#DejaVuSans-Bold-20" transform="translate(801.464844 0)"/>
     <use xlink:href="#DejaVuSans-Bold-5b" transform="translate(836.279297 0)"/>
     <use xlink:href="#DejaVuSans-Bold-2d" transform="translate(881.982422 0)"/>
     <use xlink:href="#DejaVuSans-Bold-32" transform="translate(923.486328 0)"/>
     <use xlink:href="#DejaVuSans-Bold-2e" transform="translate(993.066406 0)"/>
     <use xlink:href="#DejaVuSans-Bold-30" transform="translate(1031.054688 0)"/>
     <use xlink:href="#DejaVuSans-Bold-33" transform="translate(1100.634766 0)"/>
     <use xlink:href="#DejaVuSans-Bold-2c" transform="translate(1170.214844 0)"/>
     <use xlink:href="#DejaVuSans-Bold-20" transform="translate(1208.203125 0)"/>
     <use xlink:href="#DejaVuSans-Bold-2d" transform="translate(1243.017578 0)"/>
     <use xlink:href="#DejaVuSans-Bold-30" transform="translate(1284.521484 0)"/>
     <use xlink:href="#DejaVuSans-Bold-2e" transform="translate(1354.101562 0)"/>
     <use xlink:href="#DejaVuSans-Bold-31" transform="translate(1392.089844 0)"/>
     <use xlink:href="#DejaVuSans-Bold-33" transform="translate(1461.669922 0)"/>
     <use xlink:href="#DejaVuSans-Bold-5d" transform="translate(1531.25 0)"/>
     <use xlink:href="#DejaVuSans-Bold-20" transform="translate(1576.953125 0)"/>
     <use xlink:href="#DejaVuSans-Bold-20" transform="translate(1611.767578 0)"/>
     <use xlink:href="#DejaVuSans-Bold-20" transform="translate(1646.582031 0)"/>
     <use xlink:href="#DejaVuSans-Bold-70" transform="translate(1681.396484 0)"/>
     <use xlink:href="#DejaVuSans-Bold-20" transform="translate(1752.978516 0)"/>
     <use xlink:href="#DejaVuSans-Bold-3d" transform="translate(1787.792969 0)"/>
     <use xlink:href="#DejaVuSans-Bold-20" transform="translate(1871.582031 0)"/>
     <use xlink:href="#DejaVuSans-Bold-30" transform="translate(1906.396484 0)"/>
     <use xlink:href="#DejaVuSans-Bold-2e" transform="translate(1975.976562 0)"/>
     <use xlink:href="#DejaVuSans-Bold-30" transform="translate(2013.964844 0)"/>
     <use xlink:href="#DejaVuSans-Bold-31" transform="translate(2083.544922 0)"/>
     <use xlink:href="#DejaVuSans-Bold-39" transform="translate(2153.125 0)"/>
     <use xlink:href="#DejaVuSans-Bold-20" transform="translate(2222.705078 0)"/>
     <use xlink:href="#DejaVuSans-Bold-20" transform="translate(2257.519531 0)"/>
     <use xlink:href="#DejaVuSans-Bold-20" transform="translate(2292.333984 0)"/>
     <use xlink:href="#DejaVuSans-Bold-48" transform="translate(2327.148438 0)"/>
     <use xlink:href="#DejaVuSans-Bold-6f" transform="translate(2410.839844 0)"/>
     <use xlink:href="#DejaVuSans-Bold-6c" transform="translate(2479.541016 0)"/>
     <use xlink:href="#DejaVuSans-Bold-6d" transform="translate(2513.818359 0)"/>
     <use xlink:href="#DejaVuSans-Bold-3a" transform="translate(2618.017578 0)"/>
     <use xlink:href="#DejaVuSans-Bold-20" transform="translate(2658.007812 0)"/>
     <use xlink:href="#DejaVuSans-Bold-52" transform="translate(2692.822266 0)"/>
     <use xlink:href="#DejaVuSans-Bold-45" transform="translate(2769.824219 0)"/>
     <use xlink:href="#DejaVuSans-Bold-4a" transform="translate(2838.134766 0)"/>
     <use xlink:href="#DejaVuSans-Bold-45" transform="translate(2875.341797 0)"/>
     <use xlink:href="#DejaVuSans-Bold-43" transform="translate(2943.652344 0)"/>
     <use xlink:href="#DejaVuSans-Bold-54" transform="translate(3017.041016 0)"/>
     <use xlink:href="#DejaVuSans-Bold-20" transform="translate(3085.253906 0)"/>
     <use xlink:href="#DejaVuSans-Bold-28" transform="translate(3120.068359 0)"/>
     <use xlink:href="#DejaVuSans-Bold-63" transform="translate(3165.771484 0)"/>
     <use xlink:href="#DejaVuSans-Bold-6f" transform="translate(3225.048828 0)"/>
     <use xlink:href="#DejaVuSans-Bold-6e" transform="translate(3293.75 0)"/>
     <use xlink:href="#DejaVuSans-Bold-74" transform="translate(3364.941406 0)"/>
     <use xlink:href="#DejaVuSans-Bold-72" transform="translate(3412.744141 0)"/>
     <use xlink:href="#DejaVuSans-Bold-61" transform="translate(3462.060547 0)"/>
     <use xlink:href="#DejaVuSans-Bold-64" transform="translate(3529.541016 0)"/>
     <use xlink:href="#DejaVuSans-Bold-69" transform="translate(3601.123047 0)"/>
     <use xlink:href="#DejaVuSans-Bold-63" transform="translate(3635.400391 0)"/>
     <use xlink:href="#DejaVuSans-Bold-74" transform="translate(3694.677734 0)"/>
     <use xlink:href="#DejaVuSans-Bold-6f" transform="translate(3742.480469 0)"/>
     <use xlink:href="#DejaVuSans-Bold-72" transform="translate(3811.181641 0)"/>
     <use xlink:href="#DejaVuSans-Bold-79" transform="translate(3860.498047 0)"/>
     <use xlink:href="#DejaVuSans-Bold-29" transform="translate(3925.683594 0)"/>
    </g>
   </g>
   <g id="text_14">
    <!--   Δ = +0.00 pp  [-0.41, +0.12]   p = —   Holm: FAIL -->
    <g style="fill: #888888" transform="translate(290.870905 262.04375) scale(0.085 -0.085)">
     <defs>
      <path id="DejaVuSans-Bold-2014" d="M 344 2156 
L 6056 2156 
L 6056 1350 
L 344 1350 
L 344 2156 
z
" transform="scale(0.015625)"/>
      <path id="DejaVuSans-Bold-46" d="M 588 4666 
L 3834 4666 
L 3834 3756 
L 1791 3756 
L 1791 2888 
L 3713 2888 
L 3713 1978 
L 1791 1978 
L 1791 0 
L 588 0 
L 588 4666 
z
" transform="scale(0.015625)"/>
      <path id="DejaVuSans-Bold-41" d="M 3419 850 
L 1538 850 
L 1241 0 
L 31 0 
L 1759 4666 
L 3194 4666 
L 4922 0 
L 3713 0 
L 3419 850 
z
M 1838 1716 
L 3116 1716 
L 2478 3572 
L 1838 1716 
z
" transform="scale(0.015625)"/>
     </defs>
     <use xlink:href="#DejaVuSans-Bold-20"/>
     <use xlink:href="#DejaVuSans-Bold-20" transform="translate(34.814453 0)"/>
     <use xlink:href="#DejaVuSans-Bold-394" transform="translate(69.628906 0)"/>
     <use xlink:href="#DejaVuSans-Bold-20" transform="translate(147.021484 0)"/>
     <use xlink:href="#DejaVuSans-Bold-3d" transform="translate(181.835938 0)"/>
     <use xlink:href="#DejaVuSans-Bold-20" transform="translate(265.625 0)"/>
     <use xlink:href="#DejaVuSans-Bold-2b" transform="translate(300.439453 0)"/>
     <use xlink:href="#DejaVuSans-Bold-30" transform="translate(384.228516 0)"/>
     <use xlink:href="#DejaVuSans-Bold-2e" transform="translate(453.808594 0)"/>
     <use xlink:href="#DejaVuSans-Bold-30" transform="translate(491.796875 0)"/>
     <use xlink:href="#DejaVuSans-Bold-30" transform="translate(561.376953 0)"/>
     <use xlink:href="#DejaVuSans-Bold-20" transform="translate(630.957031 0)"/>
     <use xlink:href="#DejaVuSans-Bold-70" transform="translate(665.771484 0)"/>
     <use xlink:href="#DejaVuSans-Bold-70" transform="translate(737.353516 0)"/>
     <use xlink:href="#DejaVuSans-Bold-20" transform="translate(808.935547 0)"/>
     <use xlink:href="#DejaVuSans-Bold-20" transform="translate(843.75 0)"/>
     <use xlink:href="#DejaVuSans-Bold-5b" transform="translate(878.564453 0)"/>
     <use xlink:href="#DejaVuSans-Bold-2d" transform="translate(924.267578 0)"/>
     <use xlink:href="#DejaVuSans-Bold-30" transform="translate(965.771484 0)"/>
     <use xlink:href="#DejaVuSans-Bold-2e" transform="translate(1035.351562 0)"/>
     <use xlink:href="#DejaVuSans-Bold-34" transform="translate(1073.339844 0)"/>
     <use xlink:href="#DejaVuSans-Bold-31" transform="translate(1142.919922 0)"/>
     <use xlink:href="#DejaVuSans-Bold-2c" transform="translate(1212.5 0)"/>
     <use xlink:href="#DejaVuSans-Bold-20" transform="translate(1250.488281 0)"/>
     <use xlink:href="#DejaVuSans-Bold-2b" transform="translate(1285.302734 0)"/>
     <use xlink:href="#DejaVuSans-Bold-30" transform="translate(1369.091797 0)"/>
     <use xlink:href="#DejaVuSans-Bold-2e" transform="translate(1438.671875 0)"/>
     <use xlink:href="#DejaVuSans-Bold-31" transform="translate(1476.660156 0)"/>
     <use xlink:href="#DejaVuSans-Bold-32" transform="translate(1546.240234 0)"/>
     <use xlink:href="#DejaVuSans-Bold-5d" transform="translate(1615.820312 0)"/>
     <use xlink:href="#DejaVuSans-Bold-20" transform="translate(1661.523438 0)"/>
     <use xlink:href="#DejaVuSans-Bold-20" transform="translate(1696.337891 0)"/>
     <use xlink:href="#DejaVuSans-Bold-20" transform="translate(1731.152344 0)"/>
     <use xlink:href="#DejaVuSans-Bold-70" transform="translate(1765.966797 0)"/>
     <use xlink:href="#DejaVuSans-Bold-20" transform="translate(1837.548828 0)"/>
     <use xlink:href="#DejaVuSans-Bold-3d" transform="translate(1872.363281 0)"/>
     <use xlink:href="#DejaVuSans-Bold-20" transform="translate(1956.152344 0)"/>
     <use xlink:href="#DejaVuSans-Bold-2014" transform="translate(1990.966797 0)"/>
     <use xlink:href="#DejaVuSans-Bold-20" transform="translate(2090.966797 0)"/>
     <use xlink:href="#DejaVuSans-Bold-20" transform="translate(2125.78125 0)"/>
     <use xlink:href="#DejaVuSans-Bold-20" transform="translate(2160.595703 0)"/>
     <use xlink:href="#DejaVuSans-Bold-48" transform="translate(2195.410156 0)"/>
     <use xlink:href="#DejaVuSans-Bold-6f" transform="translate(2279.101562 0)"/>
     <use xlink:href="#DejaVuSans-Bold-6c" transform="translate(2347.802734 0)"/>
     <use xlink:href="#DejaVuSans-Bold-6d" transform="translate(2382.080078 0)"/>
     <use xlink:href="#DejaVuSans-Bold-3a" transform="translate(2486.279297 0)"/>
     <use xlink:href="#DejaVuSans-Bold-20" transform="translate(2526.269531 0)"/>
     <use xlink:href="#DejaVuSans-Bold-46" transform="translate(2561.083984 0)"/>
     <use xlink:href="#DejaVuSans-Bold-41" transform="translate(2617.894531 0)"/>
     <use xlink:href="#DejaVuSans-Bold-49" transform="translate(2695.287109 0)"/>
     <use xlink:href="#DejaVuSans-Bold-4c" transform="translate(2732.494141 0)"/>
    </g>
   </g>
   <g id="text_15">
    <!-- Family 3 mechanism arm: discordance-associated effect sizes (H5a–H5d) -->
    <g transform="translate(183.061094 15.558281) scale(0.11 -0.11)">
     <defs>
      <path id="DejaVuSans-Bold-7a" d="M 366 3500 
L 3419 3500 
L 3419 2719 
L 1575 800 
L 3419 800 
L 3419 0 
L 288 0 
L 288 781 
L 2131 2700 
L 366 2700 
L 366 3500 
z
" transform="scale(0.015625)"/>
      <path id="DejaVuSans-Bold-2013" d="M 344 2156 
L 2856 2156 
L 2856 1350 
L 344 1350 
L 344 2156 
z
" transform="scale(0.015625)"/>
     </defs>
     <use xlink:href="#DejaVuSans-Bold-46"/>
     <use xlink:href="#DejaVuSans-Bold-61" transform="translate(62.435547 0)"/>
     <use xlink:href="#DejaVuSans-Bold-6d" transform="translate(129.916016 0)"/>
     <use xlink:href="#DejaVuSans-Bold-69" transform="translate(234.115234 0)"/>
     <use xlink:href="#DejaVuSans-Bold-6c" transform="translate(268.392578 0)"/>
     <use xlink:href="#DejaVuSans-Bold-79" transform="translate(302.669922 0)"/>
     <use xlink:href="#DejaVuSans-Bold-20" transform="translate(367.855469 0)"/>
     <use xlink:href="#DejaVuSans-Bold-33" transform="translate(402.669922 0)"/>
     <use xlink:href="#DejaVuSans-Bold-20" transform="translate(472.25 0)"/>
     <use xlink:href="#DejaVuSans-Bold-6d" transform="translate(507.064453 0)"/>
     <use xlink:href="#DejaVuSans-Bold-65" transform="translate(611.263672 0)"/>
     <use xlink:href="#DejaVuSans-Bold-63" transform="translate(679.085938 0)"/>
     <use xlink:href="#DejaVuSans-Bold-68" transform="translate(738.363281 0)"/>
     <use xlink:href="#DejaVuSans-Bold-61" transform="translate(809.554688 0)"/>
     <use xlink:href="#DejaVuSans-Bold-6e" transform="translate(877.035156 0)"/>
     <use xlink:href="#DejaVuSans-Bold-69" transform="translate(948.226562 0)"/>
     <use xlink:href="#DejaVuSans-Bold-73" transform="translate(982.503906 0)"/>
     <use xlink:href="#DejaVuSans-Bold-6d" transform="translate(1042.025391 0)"/>
     <use xlink:href="#DejaVuSans-Bold-20" transform="translate(1146.224609 0)"/>
     <use xlink:href="#DejaVuSans-Bold-61" transform="translate(1181.039062 0)"/>
     <use xlink:href="#DejaVuSans-Bold-72" transform="translate(1248.519531 0)"/>
     <use xlink:href="#DejaVuSans-Bold-6d" transform="translate(1297.835938 0)"/>
     <use xlink:href="#DejaVuSans-Bold-3a" transform="translate(1402.035156 0)"/>
     <use xlink:href="#DejaVuSans-Bold-20" transform="translate(1442.025391 0)"/>
     <use xlink:href="#DejaVuSans-Bold-64" transform="translate(1476.839844 0)"/>
     <use xlink:href="#DejaVuSans-Bold-69" transform="translate(1548.421875 0)"/>
     <use xlink:href="#DejaVuSans-Bold-73" transform="translate(1582.699219 0)"/>
     <use xlink:href="#DejaVuSans-Bold-63" transform="translate(1642.220703 0)"/>
     <use xlink:href="#DejaVuSans-Bold-6f" transform="translate(1701.498047 0)"/>
     <use xlink:href="#DejaVuSans-Bold-72" transform="translate(1770.199219 0)"/>
     <use xlink:href="#DejaVuSans-Bold-64" transform="translate(1819.515625 0)"/>
     <use xlink:href="#DejaVuSans-Bold-61" transform="translate(1891.097656 0)"/>
     <use xlink:href="#DejaVuSans-Bold-6e" transform="translate(1958.578125 0)"/>
     <use xlink:href="#DejaVuSans-Bold-63" transform="translate(2029.769531 0)"/>
     <use xlink:href="#DejaVuSans-Bold-65" transform="translate(2089.046875 0)"/>
     <use xlink:href="#DejaVuSans-Bold-2d" transform="translate(2156.869141 0)"/>
     <use xlink:href="#DejaVuSans-Bold-61" transform="translate(2198.373047 0)"/>
     <use xlink:href="#DejaVuSans-Bold-73" transform="translate(2265.853516 0)"/>
     <use xlink:href="#DejaVuSans-Bold-73" transform="translate(2325.375 0)"/>
     <use xlink:href="#DejaVuSans-Bold-6f" transform="translate(2384.896484 0)"/>
     <use xlink:href="#DejaVuSans-Bold-63" transform="translate(2453.597656 0)"/>
     <use xlink:href="#DejaVuSans-Bold-69" transform="translate(2512.875 0)"/>
     <use xlink:href="#DejaVuSans-Bold-61" transform="translate(2547.152344 0)"/>
     <use xlink:href="#DejaVuSans-Bold-74" transform="translate(2614.632812 0)"/>
     <use xlink:href="#DejaVuSans-Bold-65" transform="translate(2662.435547 0)"/>
     <use xlink:href="#DejaVuSans-Bold-64" transform="translate(2730.257812 0)"/>
     <use xlink:href="#DejaVuSans-Bold-20" transform="translate(2801.839844 0)"/>
     <use xlink:href="#DejaVuSans-Bold-65" transform="translate(2836.654297 0)"/>
     <use xlink:href="#DejaVuSans-Bold-66" transform="translate(2904.476562 0)"/>
     <use xlink:href="#DejaVuSans-Bold-66" transform="translate(2947.982422 0)"/>
     <use xlink:href="#DejaVuSans-Bold-65" transform="translate(2991.488281 0)"/>
     <use xlink:href="#DejaVuSans-Bold-63" transform="translate(3059.310547 0)"/>
     <use xlink:href="#DejaVuSans-Bold-74" transform="translate(3118.587891 0)"/>
     <use xlink:href="#DejaVuSans-Bold-20" transform="translate(3166.390625 0)"/>
     <use xlink:href="#DejaVuSans-Bold-73" transform="translate(3201.205078 0)"/>
     <use xlink:href="#DejaVuSans-Bold-69" transform="translate(3260.726562 0)"/>
     <use xlink:href="#DejaVuSans-Bold-7a" transform="translate(3295.003906 0)"/>
     <use xlink:href="#DejaVuSans-Bold-65" transform="translate(3353.207031 0)"/>
     <use xlink:href="#DejaVuSans-Bold-73" transform="translate(3421.029297 0)"/>
     <use xlink:href="#DejaVuSans-Bold-20" transform="translate(3480.550781 0)"/>
     <use xlink:href="#DejaVuSans-Bold-28" transform="translate(3515.365234 0)"/>
     <use xlink:href="#DejaVuSans-Bold-48" transform="translate(3561.068359 0)"/>
     <use xlink:href="#DejaVuSans-Bold-35" transform="translate(3644.759766 0)"/>
     <use xlink:href="#DejaVuSans-Bold-61" transform="translate(3714.339844 0)"/>
     <use xlink:href="#DejaVuSans-Bold-2013" transform="translate(3781.820312 0)"/>
     <use xlink:href="#DejaVuSans-Bold-48" transform="translate(3831.820312 0)"/>
     <use xlink:href="#DejaVuSans-Bold-35" transform="translate(3915.511719 0)"/>
     <use xlink:href="#DejaVuSans-Bold-64" transform="translate(3985.091797 0)"/>
     <use xlink:href="#DejaVuSans-Bold-29" transform="translate(4056.673828 0)"/>
    </g>
   </g>
  </g>
 </g>
 <defs>
  <clipPath id="p4a517afaef">
   <rect x="183.061094" y="21.558281" width="558" height="249.48"/>
  </clipPath>
 </defs>
</svg>
