<?xml version="1.0" encoding="utf-8" standalone="no"?>
<!DOCTYPE svg PUBLIC "-//W3C//DTD SVG 1.1//EN"
  "http://www.w3.org/Graphics/SVG/1.1/DTD/svg11.dtd">
<svg xmlns:xlink="http://www.w3.org/1999/xlink" width="833.1475pt" height="333.481406pt" viewBox="0 0 833.1475 333.481406" xmlns="http://www.w3.org/2000/svg" version="1.1">
 <metadata>
  <rdf:RDF xmlns:dc="http://purl.org/dc/elements/1.1/" xmlns:cc="http://creativecommons.org/ns#" xmlns:rdf="http://www.w3.org/1999/02/22-rdf-syntax-ns#">
   <cc:Work>
    <dc:type rdf:resource="http://purl.org/dc/dcmitype/StillImage"/>
    <dc:date>2026-06-02T14:48:28.718151</dc:date>
    <dc:format>image/svg+xml</dc:format>
    <dc:creator>
     <cc:Agent>
      <dc:title>Matplotlib v3.10.8, https://matplotlib.org/</dc:title>
     </cc:Agent>
    </dc:creator>
   </cc:Work>
  </rdf:RDF>
 </metadata>
 <defs>
  <style type="text/css">*{stroke-linejoin: round; stroke-linecap: butt}</style>
 </defs>
 <g id="figure_1">
  <g id="patch_1">
   <path d="M 0 333.481406 
L 833.1475 333.481406 
L 833.1475 0 
L 0 0 
z
" style="fill: #ffffff"/>
  </g>
  <g id="axes_1">
   <g id="patch_2">
    <path d="M 267.9475 298.758281 
L 825.9475 298.758281 
L 825.9475 21.558281 
L 267.9475 21.558281 
z
" style="fill: #ffffff"/>
   </g>
   <g id="patch_3">
    <path d="M -382932.354232 34.158281 
L 378.873546 34.158281 
L 378.873546 52.824948 
L -382932.354232 52.824948 
z
" clip-path="url(#p42605f4b43)" style="fill: #2c5f2c; stroke: #ffffff; stroke-width: 0.5; stroke-linejoin: miter"/>
   </g>
   <g id="patch_4">
    <path d="M -382932.354232 57.491615 
L 438.22179 57.491615 
L 438.22179 76.158281 
L -382932.354232 76.158281 
z
" clip-path="url(#p42605f4b43)" style="fill: #c0392b; stroke: #ffffff; stroke-width: 0.5; stroke-linejoin: miter"/>
   </g>
   <g id="patch_5">
    <path d="M -382932.354232 80.824948 
L 439.526382 80.824948 
L 439.526382 99.491615 
L -382932.354232 99.491615 
z
" clip-path="url(#p42605f4b43)" style="fill: #c0392b; stroke: #ffffff; stroke-width: 0.5; stroke-linejoin: miter"/>
   </g>
   <g id="patch_6">
    <path d="M -382932.354232 104.158281 
L 461.802655 104.158281 
L 461.802655 122.824948 
L -382932.354232 122.824948 
z
" clip-path="url(#p42605f4b43)" style="fill: #2c5f2c; stroke: #ffffff; stroke-width: 0.5; stroke-linejoin: miter"/>
   </g>
   <g id="patch_7">
    <path d="M -382932.354232 127.491615 
L 465.705397 127.491615 
L 465.705397 146.158281 
L -382932.354232 146.158281 
z
" clip-path="url(#p42605f4b43)" style="fill: #2c5f2c; stroke: #ffffff; stroke-width: 0.5; stroke-linejoin: miter"/>
   </g>
   <g id="patch_8">
    <path d="M -382932.354232 150.824948 
L 470.454962 150.824948 
L 470.454962 169.491615 
L -382932.354232 169.491615 
z
" clip-path="url(#p42605f4b43)" style="fill: #c0392b; stroke: #ffffff; stroke-width: 0.5; stroke-linejoin: miter"/>
   </g>
   <g id="patch_9">
    <path d="M -382932.354232 174.158281 
L 504.696577 174.158281 
L 504.696577 192.824948 
L -382932.354232 192.824948 
z
" clip-path="url(#p42605f4b43)" style="fill: #2c5f2c; stroke: #ffffff; stroke-width: 0.5; stroke-linejoin: miter"/>
   </g>
   <g id="patch_10">
    <path d="M -382932.354232 197.491615 
L 509.76664 197.491615 
L 509.76664 216.158281 
L -382932.354232 216.158281 
z
" clip-path="url(#p42605f4b43)" style="fill: #c0392b; stroke: #ffffff; stroke-width: 0.5; stroke-linejoin: miter"/>
   </g>
   <g id="patch_11">
    <path d="M -382932.354232 220.824948 
L 521.722623 220.824948 
L 521.722623 239.491615 
L -382932.354232 239.491615 
z
" clip-path="url(#p42605f4b43)" style="fill: #c0392b; stroke: #ffffff; stroke-width: 0.5; stroke-linejoin: miter"/>
   </g>
   <g id="patch_12">
    <path d="M -382932.354232 244.158281 
L 613.177912 244.158281 
L 613.177912 262.824948 
L -382932.354232 262.824948 
z
" clip-path="url(#p42605f4b43)" style="fill: #c0392b; stroke: #ffffff; stroke-width: 0.5; stroke-linejoin: miter"/>
   </g>
   <g id="patch_13">
    <path d="M -382932.354232 267.491615 
L 649.696114 267.491615 
L 649.696114 286.158281 
L -382932.354232 286.158281 
z
" clip-path="url(#p42605f4b43)" style="fill: #c0392b; stroke: #ffffff; stroke-width: 0.5; stroke-linejoin: miter"/>
   </g>
   <g id="matplotlib.axis_1">
    <g id="xtick_1">
     <g id="line2d_1">
      <defs>
       <path id="mb7019aa026" d="M 0 0 
L 0 3.5 
" style="stroke: #000000; stroke-width: 0.8"/>
      </defs>
      <g>
       <use xlink:href="#mb7019aa026" x="327.315174" y="298.758281" style="stroke: #000000; stroke-width: 0.8"/>
      </g>
     </g>
     <g id="text_1">
      <!-- $\mathdefault{10^{0}}$ -->
      <g transform="translate(319.635174 311.837031) scale(0.08 -0.08)">
       <defs>
        <path id="DejaVuSans-Bold-31" d="M 750 831 
L 1813 831 
L 1813 3847 
L 722 3622 
L 722 4441 
L 1806 4666 
L 2950 4666 
L 2950 831 
L 4013 831 
L 4013 0 
L 750 0 
L 750 831 
z
" transform="scale(0.015625)"/>
        <path id="DejaVuSans-Bold-30" d="M 2944 2338 
Q 2944 3213 2780 3570 
Q 2616 3928 2228 3928 
Q 1841 3928 1675 3570 
Q 1509 3213 1509 2338 
Q 1509 1453 1675 1090 
Q 1841 728 2228 728 
Q 2613 728 2778 1090 
Q 2944 1453 2944 2338 
z
M 4147 2328 
Q 4147 1169 3647 539 
Q 3147 -91 2228 -91 
Q 1306 -91 806 539 
Q 306 1169 306 2328 
Q 306 3491 806 4120 
Q 1306 4750 2228 4750 
Q 3147 4750 3647 4120 
Q 4147 3491 4147 2328 
z
" transform="scale(0.015625)"/>
       </defs>
       <use xlink:href="#DejaVuSans-Bold-31" transform="translate(0 0.765625)"/>
       <use xlink:href="#DejaVuSans-Bold-30" transform="translate(69.580078 0.765625)"/>
       <use xlink:href="#DejaVuSans-Bold-30" transform="translate(140.117188 39.046875) scale(0.7)"/>
      </g>
     </g>
    </g>
    <g id="xtick_2">
     <g id="line2d_2">
      <g>
       <use xlink:href="#mb7019aa026" x="710.574843" y="298.758281" style="stroke: #000000; stroke-width: 0.8"/>
      </g>
     </g>
     <g id="text_2">
      <!-- $\mathdefault{10^{1}}$ -->
      <g transform="translate(702.894843 311.837031) scale(0.08 -0.08)">
       <use xlink:href="#DejaVuSans-Bold-31" transform="translate(0 0.684375)"/>
       <use xlink:href="#DejaVuSans-Bold-30" transform="translate(69.580078 0.684375)"/>
       <use xlink:href="#DejaVuSans-Bold-31" transform="translate(140.117188 38.965625) scale(0.7)"/>
      </g>
     </g>
    </g>
    <g id="xtick_3">
     <g id="line2d_3">
      <defs>
       <path id="medcd229917" d="M 0 0 
L 0 2 
" style="stroke: #000000; stroke-width: 0.6"/>
      </defs>
      <g>
       <use xlink:href="#medcd229917" x="267.9475" y="298.758281" style="stroke: #000000; stroke-width: 0.6"/>
      </g>
     </g>
    </g>
    <g id="xtick_4">
     <g id="line2d_4">
      <g>
       <use xlink:href="#medcd229917" x="290.173474" y="298.758281" style="stroke: #000000; stroke-width: 0.6"/>
      </g>
     </g>
    </g>
    <g id="xtick_5">
     <g id="line2d_5">
      <g>
       <use xlink:href="#medcd229917" x="309.778173" y="298.758281" style="stroke: #000000; stroke-width: 0.6"/>
      </g>
     </g>
    </g>
    <g id="xtick_6">
     <g id="line2d_6">
      <g>
       <use xlink:href="#medcd229917" x="442.687831" y="298.758281" style="stroke: #000000; stroke-width: 0.6"/>
      </g>
     </g>
    </g>
    <g id="xtick_7">
     <g id="line2d_7">
      <g>
       <use xlink:href="#medcd229917" x="510.176508" y="298.758281" style="stroke: #000000; stroke-width: 0.6"/>
      </g>
     </g>
    </g>
    <g id="xtick_8">
     <g id="line2d_8">
      <g>
       <use xlink:href="#medcd229917" x="558.060487" y="298.758281" style="stroke: #000000; stroke-width: 0.6"/>
      </g>
     </g>
    </g>
    <g id="xtick_9">
     <g id="line2d_9">
      <g>
       <use xlink:href="#medcd229917" x="595.202187" y="298.758281" style="stroke: #000000; stroke-width: 0.6"/>
      </g>
     </g>
    </g>
    <g id="xtick_10">
     <g id="line2d_10">
      <g>
       <use xlink:href="#medcd229917" x="625.549165" y="298.758281" style="stroke: #000000; stroke-width: 0.6"/>
      </g>
     </g>
    </g>
    <g id="xtick_11">
     <g id="line2d_11">
      <g>
       <use xlink:href="#medcd229917" x="651.207169" y="298.758281" style="stroke: #000000; stroke-width: 0.6"/>
      </g>
     </g>
    </g>
    <g id="xtick_12">
     <g id="line2d_12">
      <g>
       <use xlink:href="#medcd229917" x="673.433144" y="298.758281" style="stroke: #000000; stroke-width: 0.6"/>
      </g>
     </g>
    </g>
    <g id="xtick_13">
     <g id="line2d_13">
      <g>
       <use xlink:href="#medcd229917" x="693.037843" y="298.758281" style="stroke: #000000; stroke-width: 0.6"/>
      </g>
     </g>
    </g>
    <g id="xtick_14">
     <g id="line2d_14">
      <g>
       <use xlink:href="#medcd229917" x="825.9475" y="298.758281" style="stroke: #000000; stroke-width: 0.6"/>
      </g>
     </g>
    </g>
    <g id="text_3">
     <!-- DAEN ROR point estimate (log scale) -->
     <g transform="translate(453.791875 324.339375) scale(0.09 -0.09)">
      <defs>
       <path id="DejaVuSans-Bold-44" d="M 1791 3756 
L 1791 909 
L 2222 909 
Q 2959 909 3348 1275 
Q 3738 1641 3738 2338 
Q 3738 3031 3350 3393 
Q 2963 3756 2222 3756 
L 1791 3756 
z
M 588 4666 
L 1856 4666 
Q 2919 4666 3439 4514 
Q 3959 4363 4331 4000 
Q 4659 3684 4818 3271 
Q 4978 2859 4978 2338 
Q 4978 1809 4818 1395 
Q 4659 981 4331 666 
Q 3956 303 3431 151 
Q 2906 0 1856 0 
L 588 0 
L 588 4666 
z
" transform="scale(0.015625)"/>
       <path id="DejaVuSans-Bold-41" d="M 3419 850 
L 1538 850 
L 1241 0 
L 31 0 
L 1759 4666 
L 3194 4666 
L 4922 0 
L 3713 0 
L 3419 850 
z
M 1838 1716 
L 3116 1716 
L 2478 3572 
L 1838 1716 
z
" transform="scale(0.015625)"/>
       <path id="DejaVuSans-Bold-45" d="M 588 4666 
L 3834 4666 
L 3834 3756 
L 1791 3756 
L 1791 2888 
L 3713 2888 
L 3713 1978 
L 1791 1978 
L 1791 909 
L 3903 909 
L 3903 0 
L 588 0 
L 588 4666 
z
" transform="scale(0.015625)"/>
       <path id="DejaVuSans-Bold-4e" d="M 588 4666 
L 1931 4666 
L 3628 1466 
L 3628 4666 
L 4769 4666 
L 4769 0 
L 3425 0 
L 1728 3200 
L 1728 0 
L 588 0 
L 588 4666 
z
" transform="scale(0.015625)"/>
       <path id="DejaVuSans-Bold-20" transform="scale(0.015625)"/>
       <path id="DejaVuSans-Bold-52" d="M 2297 2597 
Q 2675 2597 2839 2737 
Q 3003 2878 3003 3200 
Q 3003 3519 2839 3656 
Q 2675 3794 2297 3794 
L 1791 3794 
L 1791 2597 
L 2297 2597 
z
M 1791 1766 
L 1791 0 
L 588 0 
L 588 4666 
L 2425 4666 
Q 3347 4666 3776 4356 
Q 4206 4047 4206 3378 
Q 4206 2916 3982 2619 
Q 3759 2322 3309 2181 
Q 3556 2125 3751 1926 
Q 3947 1728 4147 1325 
L 4800 0 
L 3519 0 
L 2950 1159 
Q 2778 1509 2601 1637 
Q 2425 1766 2131 1766 
L 1791 1766 
z
" transform="scale(0.015625)"/>
       <path id="DejaVuSans-Bold-4f" d="M 2719 3878 
Q 2169 3878 1866 3472 
Q 1563 3066 1563 2328 
Q 1563 1594 1866 1187 
Q 2169 781 2719 781 
Q 3272 781 3575 1187 
Q 3878 1594 3878 2328 
Q 3878 3066 3575 3472 
Q 3272 3878 2719 3878 
z
M 2719 4750 
Q 3844 4750 4481 4106 
Q 5119 3463 5119 2328 
Q 5119 1197 4481 553 
Q 3844 -91 2719 -91 
Q 1597 -91 958 553 
Q 319 1197 319 2328 
Q 319 3463 958 4106 
Q 1597 4750 2719 4750 
z
" transform="scale(0.015625)"/>
       <path id="DejaVuSans-Bold-70" d="M 1656 506 
L 1656 -1331 
L 538 -1331 
L 538 3500 
L 1656 3500 
L 1656 2988 
Q 1888 3294 2169 3439 
Q 2450 3584 2816 3584 
Q 3463 3584 3878 3070 
Q 4294 2556 4294 1747 
Q 4294 938 3878 423 
Q 3463 -91 2816 -91 
Q 2450 -91 2169 54 
Q 1888 200 1656 506 
z
M 2400 2772 
Q 2041 2772 1848 2508 
Q 1656 2244 1656 1747 
Q 1656 1250 1848 986 
Q 2041 722 2400 722 
Q 2759 722 2948 984 
Q 3138 1247 3138 1747 
Q 3138 2247 2948 2509 
Q 2759 2772 2400 2772 
z
" transform="scale(0.015625)"/>
       <path id="DejaVuSans-Bold-6f" d="M 2203 2784 
Q 1831 2784 1636 2517 
Q 1441 2250 1441 1747 
Q 1441 1244 1636 976 
Q 1831 709 2203 709 
Q 2569 709 2762 976 
Q 2956 1244 2956 1747 
Q 2956 2250 2762 2517 
Q 2569 2784 2203 2784 
z
M 2203 3584 
Q 3106 3584 3614 3096 
Q 4122 2609 4122 1747 
Q 4122 884 3614 396 
Q 3106 -91 2203 -91 
Q 1297 -91 786 396 
Q 275 884 275 1747 
Q 275 2609 786 3096 
Q 1297 3584 2203 3584 
z
" transform="scale(0.015625)"/>
       <path id="DejaVuSans-Bold-69" d="M 538 3500 
L 1656 3500 
L 1656 0 
L 538 0 
L 538 3500 
z
M 538 4863 
L 1656 4863 
L 1656 3950 
L 538 3950 
L 538 4863 
z
" transform="scale(0.015625)"/>
       <path id="DejaVuSans-Bold-6e" d="M 4056 2131 
L 4056 0 
L 2931 0 
L 2931 347 
L 2931 1631 
Q 2931 2084 2911 2256 
Q 2891 2428 2841 2509 
Q 2775 2619 2662 2680 
Q 2550 2741 2406 2741 
Q 2056 2741 1856 2470 
Q 1656 2200 1656 1722 
L 1656 0 
L 538 0 
L 538 3500 
L 1656 3500 
L 1656 2988 
Q 1909 3294 2193 3439 
Q 2478 3584 2822 3584 
Q 3428 3584 3742 3212 
Q 4056 2841 4056 2131 
z
" transform="scale(0.015625)"/>
       <path id="DejaVuSans-Bold-74" d="M 1759 4494 
L 1759 3500 
L 2913 3500 
L 2913 2700 
L 1759 2700 
L 1759 1216 
Q 1759 972 1856 886 
Q 1953 800 2241 800 
L 2816 800 
L 2816 0 
L 1856 0 
Q 1194 0 917 276 
Q 641 553 641 1216 
L 641 2700 
L 84 2700 
L 84 3500 
L 641 3500 
L 641 4494 
L 1759 4494 
z
" transform="scale(0.015625)"/>
       <path id="DejaVuSans-Bold-65" d="M 4031 1759 
L 4031 1441 
L 1416 1441 
Q 1456 1047 1700 850 
Q 1944 653 2381 653 
Q 2734 653 3104 758 
Q 3475 863 3866 1075 
L 3866 213 
Q 3469 63 3072 -14 
Q 2675 -91 2278 -91 
Q 1328 -91 801 392 
Q 275 875 275 1747 
Q 275 2603 792 3093 
Q 1309 3584 2216 3584 
Q 3041 3584 3536 3087 
Q 4031 2591 4031 1759 
z
M 2881 2131 
Q 2881 2450 2695 2645 
Q 2509 2841 2209 2841 
Q 1884 2841 1681 2658 
Q 1478 2475 1428 2131 
L 2881 2131 
z
" transform="scale(0.015625)"/>
       <path id="DejaVuSans-Bold-73" d="M 3272 3391 
L 3272 2541 
Q 2913 2691 2578 2766 
Q 2244 2841 1947 2841 
Q 1628 2841 1473 2761 
Q 1319 2681 1319 2516 
Q 1319 2381 1436 2309 
Q 1553 2238 1856 2203 
L 2053 2175 
Q 2913 2066 3209 1816 
Q 3506 1566 3506 1031 
Q 3506 472 3093 190 
Q 2681 -91 1863 -91 
Q 1516 -91 1145 -36 
Q 775 19 384 128 
L 384 978 
Q 719 816 1070 734 
Q 1422 653 1784 653 
Q 2113 653 2278 743 
Q 2444 834 2444 1013 
Q 2444 1163 2330 1236 
Q 2216 1309 1875 1350 
L 1678 1375 
Q 931 1469 631 1722 
Q 331 1975 331 2491 
Q 331 3047 712 3315 
Q 1094 3584 1881 3584 
Q 2191 3584 2531 3537 
Q 2872 3491 3272 3391 
z
" transform="scale(0.015625)"/>
       <path id="DejaVuSans-Bold-6d" d="M 3781 2919 
Q 3994 3244 4286 3414 
Q 4578 3584 4928 3584 
Q 5531 3584 5847 3212 
Q 6163 2841 6163 2131 
L 6163 0 
L 5038 0 
L 5038 1825 
Q 5041 1866 5042 1909 
Q 5044 1953 5044 2034 
Q 5044 2406 4934 2573 
Q 4825 2741 4581 2741 
Q 4263 2741 4089 2478 
Q 3916 2216 3909 1719 
L 3909 0 
L 2784 0 
L 2784 1825 
Q 2784 2406 2684 2573 
Q 2584 2741 2328 2741 
Q 2006 2741 1831 2477 
Q 1656 2213 1656 1722 
L 1656 0 
L 531 0 
L 531 3500 
L 1656 3500 
L 1656 2988 
Q 1863 3284 2130 3434 
Q 2397 3584 2719 3584 
Q 3081 3584 3359 3409 
Q 3638 3234 3781 2919 
z
" transform="scale(0.015625)"/>
       <path id="DejaVuSans-Bold-61" d="M 2106 1575 
Q 1756 1575 1579 1456 
Q 1403 1338 1403 1106 
Q 1403 894 1545 773 
Q 1688 653 1941 653 
Q 2256 653 2472 879 
Q 2688 1106 2688 1447 
L 2688 1575 
L 2106 1575 
z
M 3816 1997 
L 3816 0 
L 2688 0 
L 2688 519 
Q 2463 200 2181 54 
Q 1900 -91 1497 -91 
Q 953 -91 614 226 
Q 275 544 275 1050 
Q 275 1666 698 1953 
Q 1122 2241 2028 2241 
L 2688 2241 
L 2688 2328 
Q 2688 2594 2478 2717 
Q 2269 2841 1825 2841 
Q 1466 2841 1156 2769 
Q 847 2697 581 2553 
L 581 3406 
Q 941 3494 1303 3539 
Q 1666 3584 2028 3584 
Q 2975 3584 3395 3211 
Q 3816 2838 3816 1997 
z
" transform="scale(0.015625)"/>
       <path id="DejaVuSans-Bold-28" d="M 2413 -844 
L 1484 -844 
Q 1006 -72 778 623 
Q 550 1319 550 2003 
Q 550 2688 779 3389 
Q 1009 4091 1484 4856 
L 2413 4856 
Q 2013 4116 1813 3408 
Q 1613 2700 1613 2009 
Q 1613 1319 1811 609 
Q 2009 -100 2413 -844 
z
" transform="scale(0.015625)"/>
       <path id="DejaVuSans-Bold-6c" d="M 538 4863 
L 1656 4863 
L 1656 0 
L 538 0 
L 538 4863 
z
" transform="scale(0.015625)"/>
       <path id="DejaVuSans-Bold-67" d="M 2919 594 
Q 2688 288 2409 144 
Q 2131 0 1766 0 
Q 1125 0 706 504 
Q 288 1009 288 1791 
Q 288 2575 706 3076 
Q 1125 3578 1766 3578 
Q 2131 3578 2409 3434 
Q 2688 3291 2919 2981 
L 2919 3500 
L 4044 3500 
L 4044 353 
Q 4044 -491 3511 -936 
Q 2978 -1381 1966 -1381 
Q 1638 -1381 1331 -1331 
Q 1025 -1281 716 -1178 
L 716 -306 
Q 1009 -475 1290 -558 
Q 1572 -641 1856 -641 
Q 2406 -641 2662 -400 
Q 2919 -159 2919 353 
L 2919 594 
z
M 2181 2772 
Q 1834 2772 1640 2515 
Q 1447 2259 1447 1791 
Q 1447 1309 1634 1061 
Q 1822 813 2181 813 
Q 2531 813 2725 1069 
Q 2919 1325 2919 1791 
Q 2919 2259 2725 2515 
Q 2531 2772 2181 2772 
z
" transform="scale(0.015625)"/>
       <path id="DejaVuSans-Bold-63" d="M 3366 3391 
L 3366 2478 
Q 3138 2634 2908 2709 
Q 2678 2784 2431 2784 
Q 1963 2784 1702 2511 
Q 1441 2238 1441 1747 
Q 1441 1256 1702 982 
Q 1963 709 2431 709 
Q 2694 709 2930 787 
Q 3166 866 3366 1019 
L 3366 103 
Q 3103 6 2833 -42 
Q 2563 -91 2291 -91 
Q 1344 -91 809 395 
Q 275 881 275 1747 
Q 275 2613 809 3098 
Q 1344 3584 2291 3584 
Q 2566 3584 2833 3536 
Q 3100 3488 3366 3391 
z
" transform="scale(0.015625)"/>
       <path id="DejaVuSans-Bold-29" d="M 513 -844 
Q 913 -100 1113 609 
Q 1313 1319 1313 2009 
Q 1313 2700 1113 3408 
Q 913 4116 513 4856 
L 1441 4856 
Q 1916 4091 2145 3389 
Q 2375 2688 2375 2003 
Q 2375 1319 2147 623 
Q 1919 -72 1441 -844 
L 513 -844 
z
" transform="scale(0.015625)"/>
      </defs>
      <use xlink:href="#DejaVuSans-Bold-44"/>
      <use xlink:href="#DejaVuSans-Bold-41" transform="translate(83.007812 0)"/>
      <use xlink:href="#DejaVuSans-Bold-45" transform="translate(160.400391 0)"/>
      <use xlink:href="#DejaVuSans-Bold-4e" transform="translate(228.710938 0)"/>
      <use xlink:href="#DejaVuSans-Bold-20" transform="translate(312.402344 0)"/>
      <use xlink:href="#DejaVuSans-Bold-52" transform="translate(347.216797 0)"/>
      <use xlink:href="#DejaVuSans-Bold-4f" transform="translate(424.21875 0)"/>
      <use xlink:href="#DejaVuSans-Bold-52" transform="translate(509.228516 0)"/>
      <use xlink:href="#DejaVuSans-Bold-20" transform="translate(586.230469 0)"/>
      <use xlink:href="#DejaVuSans-Bold-70" transform="translate(621.044922 0)"/>
      <use xlink:href="#DejaVuSans-Bold-6f" transform="translate(692.626953 0)"/>
      <use xlink:href="#DejaVuSans-Bold-69" transform="translate(761.328125 0)"/>
      <use xlink:href="#DejaVuSans-Bold-6e" transform="translate(795.605469 0)"/>
      <use xlink:href="#DejaVuSans-Bold-74" transform="translate(866.796875 0)"/>
      <use xlink:href="#DejaVuSans-Bold-20" transform="translate(914.599609 0)"/>
      <use xlink:href="#DejaVuSans-Bold-65" transform="translate(949.414062 0)"/>
      <use xlink:href="#DejaVuSans-Bold-73" transform="translate(1017.236328 0)"/>
      <use xlink:href="#DejaVuSans-Bold-74" transform="translate(1076.757812 0)"/>
      <use xlink:href="#DejaVuSans-Bold-69" transform="translate(1124.560547 0)"/>
      <use xlink:href="#DejaVuSans-Bold-6d" transform="translate(1158.837891 0)"/>
      <use xlink:href="#DejaVuSans-Bold-61" transform="translate(1263.037109 0)"/>
      <use xlink:href="#DejaVuSans-Bold-74" transform="translate(1330.517578 0)"/>
      <use xlink:href="#DejaVuSans-Bold-65" transform="translate(1378.320312 0)"/>
      <use xlink:href="#DejaVuSans-Bold-20" transform="translate(1446.142578 0)"/>
      <use xlink:href="#DejaVuSans-Bold-28" transform="translate(1480.957031 0)"/>
      <use xlink:href="#DejaVuSans-Bold-6c" transform="translate(1526.660156 0)"/>
      <use xlink:href="#DejaVuSans-Bold-6f" transform="translate(1560.9375 0)"/>
      <use xlink:href="#DejaVuSans-Bold-67" transform="translate(1629.638672 0)"/>
      <use xlink:href="#DejaVuSans-Bold-20" transform="translate(1701.220703 0)"/>
      <use xlink:href="#DejaVuSans-Bold-73" transform="translate(1736.035156 0)"/>
      <use xlink:href="#DejaVuSans-Bold-63" transform="translate(1795.556641 0)"/>
      <use xlink:href="#DejaVuSans-Bold-61" transform="translate(1854.833984 0)"/>
      <use xlink:href="#DejaVuSans-Bold-6c" transform="translate(1922.314453 0)"/>
      <use xlink:href="#DejaVuSans-Bold-65" transform="translate(1956.591797 0)"/>
      <use xlink:href="#DejaVuSans-Bold-29" transform="translate(2024.414062 0)"/>
     </g>
    </g>
   </g>
   <g id="matplotlib.axis_2">
    <g id="ytick_1">
     <g id="line2d_15">
      <defs>
       <path id="mc2f43b2964" d="M 0 0 
L -3.5 0 
" style="stroke: #000000; stroke-width: 0.8"/>
      </defs>
      <g>
       <use xlink:href="#mc2f43b2964" x="267.9475" y="43.491615" style="stroke: #000000; stroke-width: 0.8"/>
      </g>
     </g>
     <g id="text_4">
      <!-- Clozapine × OMOP Acute Liver Failure 1 -->
      <g transform="translate(81.535 46.53099) scale(0.08 -0.08)">
       <defs>
        <path id="DejaVuSans-Bold-43" d="M 4288 256 
Q 3956 84 3597 -3 
Q 3238 -91 2847 -91 
Q 1681 -91 1000 561 
Q 319 1213 319 2328 
Q 319 3447 1000 4098 
Q 1681 4750 2847 4750 
Q 3238 4750 3597 4662 
Q 3956 4575 4288 4403 
L 4288 3438 
Q 3953 3666 3628 3772 
Q 3303 3878 2944 3878 
Q 2300 3878 1931 3465 
Q 1563 3053 1563 2328 
Q 1563 1606 1931 1193 
Q 2300 781 2944 781 
Q 3303 781 3628 887 
Q 3953 994 4288 1222 
L 4288 256 
z
" transform="scale(0.015625)"/>
        <path id="DejaVuSans-Bold-7a" d="M 366 3500 
L 3419 3500 
L 3419 2719 
L 1575 800 
L 3419 800 
L 3419 0 
L 288 0 
L 288 781 
L 2131 2700 
L 366 2700 
L 366 3500 
z
" transform="scale(0.015625)"/>
        <path id="DejaVuSans-Bold-d7" d="M 4563 3359 
L 3206 2003 
L 4563 653 
L 4038 128 
L 2681 1478 
L 1325 128 
L 800 653 
L 2156 2003 
L 800 3359 
L 1325 3884 
L 2681 2528 
L 4038 3884 
L 4563 3359 
z
" transform="scale(0.015625)"/>
        <path id="DejaVuSans-Bold-4d" d="M 588 4666 
L 2119 4666 
L 3181 2169 
L 4250 4666 
L 5778 4666 
L 5778 0 
L 4641 0 
L 4641 3413 
L 3566 897 
L 2803 897 
L 1728 3413 
L 1728 0 
L 588 0 
L 588 4666 
z
" transform="scale(0.015625)"/>
        <path id="DejaVuSans-Bold-50" d="M 588 4666 
L 2584 4666 
Q 3475 4666 3951 4270 
Q 4428 3875 4428 3144 
Q 4428 2409 3951 2014 
Q 3475 1619 2584 1619 
L 1791 1619 
L 1791 0 
L 588 0 
L 588 4666 
z
M 1791 3794 
L 1791 2491 
L 2456 2491 
Q 2806 2491 2997 2661 
Q 3188 2831 3188 3144 
Q 3188 3456 2997 3625 
Q 2806 3794 2456 3794 
L 1791 3794 
z
" transform="scale(0.015625)"/>
        <path id="DejaVuSans-Bold-75" d="M 500 1363 
L 500 3500 
L 1625 3500 
L 1625 3150 
Q 1625 2866 1622 2436 
Q 1619 2006 1619 1863 
Q 1619 1441 1641 1255 
Q 1663 1069 1716 984 
Q 1784 875 1895 815 
Q 2006 756 2150 756 
Q 2500 756 2700 1025 
Q 2900 1294 2900 1772 
L 2900 3500 
L 4019 3500 
L 4019 0 
L 2900 0 
L 2900 506 
Q 2647 200 2364 54 
Q 2081 -91 1741 -91 
Q 1134 -91 817 281 
Q 500 653 500 1363 
z
" transform="scale(0.015625)"/>
        <path id="DejaVuSans-Bold-4c" d="M 588 4666 
L 1791 4666 
L 1791 909 
L 3903 909 
L 3903 0 
L 588 0 
L 588 4666 
z
" transform="scale(0.015625)"/>
        <path id="DejaVuSans-Bold-76" d="M 97 3500 
L 1216 3500 
L 2088 1081 
L 2956 3500 
L 4078 3500 
L 2700 0 
L 1472 0 
L 97 3500 
z
" transform="scale(0.015625)"/>
        <path id="DejaVuSans-Bold-72" d="M 3138 2547 
Q 2991 2616 2845 2648 
Q 2700 2681 2553 2681 
Q 2122 2681 1889 2404 
Q 1656 2128 1656 1613 
L 1656 0 
L 538 0 
L 538 3500 
L 1656 3500 
L 1656 2925 
Q 1872 3269 2151 3426 
Q 2431 3584 2822 3584 
Q 2878 3584 2943 3579 
Q 3009 3575 3134 3559 
L 3138 2547 
z
" transform="scale(0.015625)"/>
        <path id="DejaVuSans-Bold-46" d="M 588 4666 
L 3834 4666 
L 3834 3756 
L 1791 3756 
L 1791 2888 
L 3713 2888 
L 3713 1978 
L 1791 1978 
L 1791 0 
L 588 0 
L 588 4666 
z
" transform="scale(0.015625)"/>
       </defs>
       <use xlink:href="#DejaVuSans-Bold-43"/>
       <use xlink:href="#DejaVuSans-Bold-6c" transform="translate(73.388672 0)"/>
       <use xlink:href="#DejaVuSans-Bold-6f" transform="translate(107.666016 0)"/>
       <use xlink:href="#DejaVuSans-Bold-7a" transform="translate(176.367188 0)"/>
       <use xlink:href="#DejaVuSans-Bold-61" transform="translate(234.570312 0)"/>
       <use xlink:href="#DejaVuSans-Bold-70" transform="translate(302.050781 0)"/>
       <use xlink:href="#DejaVuSans-Bold-69" transform="translate(373.632812 0)"/>
       <use xlink:href="#DejaVuSans-Bold-6e" transform="translate(407.910156 0)"/>
       <use xlink:href="#DejaVuSans-Bold-65" transform="translate(479.101562 0)"/>
       <use xlink:href="#DejaVuSans-Bold-20" transform="translate(546.923828 0)"/>
       <use xlink:href="#DejaVuSans-Bold-d7" transform="translate(581.738281 0)"/>
       <use xlink:href="#DejaVuSans-Bold-20" transform="translate(665.527344 0)"/>
       <use xlink:href="#DejaVuSans-Bold-4f" transform="translate(700.341797 0)"/>
       <use xlink:href="#DejaVuSans-Bold-4d" transform="translate(785.351562 0)"/>
       <use xlink:href="#DejaVuSans-Bold-4f" transform="translate(884.863281 0)"/>
       <use xlink:href="#DejaVuSans-Bold-50" transform="translate(969.873047 0)"/>
       <use xlink:href="#DejaVuSans-Bold-20" transform="translate(1043.164062 0)"/>
       <use xlink:href="#DejaVuSans-Bold-41" transform="translate(1077.978516 0)"/>
       <use xlink:href="#DejaVuSans-Bold-63" transform="translate(1155.371094 0)"/>
       <use xlink:href="#DejaVuSans-Bold-75" transform="translate(1214.648438 0)"/>
       <use xlink:href="#DejaVuSans-Bold-74" transform="translate(1285.839844 0)"/>
       <use xlink:href="#DejaVuSans-Bold-65" transform="translate(1333.642578 0)"/>
       <use xlink:href="#DejaVuSans-Bold-20" transform="translate(1401.464844 0)"/>
       <use xlink:href="#DejaVuSans-Bold-4c" transform="translate(1436.279297 0)"/>
       <use xlink:href="#DejaVuSans-Bold-69" transform="translate(1500 0)"/>
       <use xlink:href="#DejaVuSans-Bold-76" transform="translate(1534.277344 0)"/>
       <use xlink:href="#DejaVuSans-Bold-65" transform="translate(1599.462891 0)"/>
       <use xlink:href="#DejaVuSans-Bold-72" transform="translate(1667.285156 0)"/>
       <use xlink:href="#DejaVuSans-Bold-20" transform="translate(1716.601562 0)"/>
       <use xlink:href="#DejaVuSans-Bold-46" transform="translate(1751.416016 0)"/>
       <use xlink:href="#DejaVuSans-Bold-61" transform="translate(1813.851562 0)"/>
       <use xlink:href="#DejaVuSans-Bold-69" transform="translate(1881.332031 0)"/>
       <use xlink:href="#DejaVuSans-Bold-6c" transform="translate(1915.609375 0)"/>
       <use xlink:href="#DejaVuSans-Bold-75" transform="translate(1949.886719 0)"/>
       <use xlink:href="#DejaVuSans-Bold-72" transform="translate(2021.078125 0)"/>
       <use xlink:href="#DejaVuSans-Bold-65" transform="translate(2070.394531 0)"/>
       <use xlink:href="#DejaVuSans-Bold-20" transform="translate(2138.216797 0)"/>
       <use xlink:href="#DejaVuSans-Bold-31" transform="translate(2173.03125 0)"/>
      </g>
     </g>
    </g>
    <g id="ytick_2">
     <g id="line2d_16">
      <g>
       <use xlink:href="#mc2f43b2964" x="267.9475" y="66.824948" style="stroke: #000000; stroke-width: 0.8"/>
      </g>
     </g>
     <g id="text_5">
      <!-- oxybutynin × OMOP Acute Liver Failure 1 -->
      <g transform="translate(74.82625 69.864323) scale(0.08 -0.08)">
       <defs>
        <path id="DejaVuSans-Bold-78" d="M 1422 1791 
L 159 3500 
L 1344 3500 
L 2059 2463 
L 2784 3500 
L 3969 3500 
L 2706 1797 
L 4031 0 
L 2847 0 
L 2059 1106 
L 1281 0 
L 97 0 
L 1422 1791 
z
" transform="scale(0.015625)"/>
        <path id="DejaVuSans-Bold-79" d="M 78 3500 
L 1197 3500 
L 2138 1125 
L 2938 3500 
L 4056 3500 
L 2584 -331 
Q 2363 -916 2067 -1148 
Q 1772 -1381 1288 -1381 
L 641 -1381 
L 641 -647 
L 991 -647 
Q 1275 -647 1404 -556 
Q 1534 -466 1606 -231 
L 1638 -134 
L 78 3500 
z
" transform="scale(0.015625)"/>
        <path id="DejaVuSans-Bold-62" d="M 2400 722 
Q 2759 722 2948 984 
Q 3138 1247 3138 1747 
Q 3138 2247 2948 2509 
Q 2759 2772 2400 2772 
Q 2041 2772 1848 2508 
Q 1656 2244 1656 1747 
Q 1656 1250 1848 986 
Q 2041 722 2400 722 
z
M 1656 2988 
Q 1888 3294 2169 3439 
Q 2450 3584 2816 3584 
Q 3463 3584 3878 3070 
Q 4294 2556 4294 1747 
Q 4294 938 3878 423 
Q 3463 -91 2816 -91 
Q 2450 -91 2169 54 
Q 1888 200 1656 506 
L 1656 0 
L 538 0 
L 538 4863 
L 1656 4863 
L 1656 2988 
z
" transform="scale(0.015625)"/>
       </defs>
       <use xlink:href="#DejaVuSans-Bold-6f"/>
       <use xlink:href="#DejaVuSans-Bold-78" transform="translate(68.701172 0)"/>
       <use xlink:href="#DejaVuSans-Bold-79" transform="translate(133.203125 0)"/>
       <use xlink:href="#DejaVuSans-Bold-62" transform="translate(198.388672 0)"/>
       <use xlink:href="#DejaVuSans-Bold-75" transform="translate(269.970703 0)"/>
       <use xlink:href="#DejaVuSans-Bold-74" transform="translate(341.162109 0)"/>
       <use xlink:href="#DejaVuSans-Bold-79" transform="translate(388.964844 0)"/>
       <use xlink:href="#DejaVuSans-Bold-6e" transform="translate(454.150391 0)"/>
       <use xlink:href="#DejaVuSans-Bold-69" transform="translate(525.341797 0)"/>
       <use xlink:href="#DejaVuSans-Bold-6e" transform="translate(559.619141 0)"/>
       <use xlink:href="#DejaVuSans-Bold-20" transform="translate(630.810547 0)"/>
       <use xlink:href="#DejaVuSans-Bold-d7" transform="translate(665.625 0)"/>
       <use xlink:href="#DejaVuSans-Bold-20" transform="translate(749.414062 0)"/>
       <use xlink:href="#DejaVuSans-Bold-4f" transform="translate(784.228516 0)"/>
       <use xlink:href="#DejaVuSans-Bold-4d" transform="translate(869.238281 0)"/>
       <use xlink:href="#DejaVuSans-Bold-4f" transform="translate(968.75 0)"/>
       <use xlink:href="#DejaVuSans-Bold-50" transform="translate(1053.759766 0)"/>
       <use xlink:href="#DejaVuSans-Bold-20" transform="translate(1127.050781 0)"/>
       <use xlink:href="#DejaVuSans-Bold-41" transform="translate(1161.865234 0)"/>
       <use xlink:href="#DejaVuSans-Bold-63" transform="translate(1239.257812 0)"/>
       <use xlink:href="#DejaVuSans-Bold-75" transform="translate(1298.535156 0)"/>
       <use xlink:href="#DejaVuSans-Bold-74" transform="translate(1369.726562 0)"/>
       <use xlink:href="#DejaVuSans-Bold-65" transform="translate(1417.529297 0)"/>
       <use xlink:href="#DejaVuSans-Bold-20" transform="translate(1485.351562 0)"/>
       <use xlink:href="#DejaVuSans-Bold-4c" transform="translate(1520.166016 0)"/>
       <use xlink:href="#DejaVuSans-Bold-69" transform="translate(1583.886719 0)"/>
       <use xlink:href="#DejaVuSans-Bold-76" transform="translate(1618.164062 0)"/>
       <use xlink:href="#DejaVuSans-Bold-65" transform="translate(1683.349609 0)"/>
       <use xlink:href="#DejaVuSans-Bold-72" transform="translate(1751.171875 0)"/>
       <use xlink:href="#DejaVuSans-Bold-20" transform="translate(1800.488281 0)"/>
       <use xlink:href="#DejaVuSans-Bold-46" transform="translate(1835.302734 0)"/>
       <use xlink:href="#DejaVuSans-Bold-61" transform="translate(1897.738281 0)"/>
       <use xlink:href="#DejaVuSans-Bold-69" transform="translate(1965.21875 0)"/>
       <use xlink:href="#DejaVuSans-Bold-6c" transform="translate(1999.496094 0)"/>
       <use xlink:href="#DejaVuSans-Bold-75" transform="translate(2033.773438 0)"/>
       <use xlink:href="#DejaVuSans-Bold-72" transform="translate(2104.964844 0)"/>
       <use xlink:href="#DejaVuSans-Bold-65" transform="translate(2154.28125 0)"/>
       <use xlink:href="#DejaVuSans-Bold-20" transform="translate(2222.103516 0)"/>
       <use xlink:href="#DejaVuSans-Bold-31" transform="translate(2256.917969 0)"/>
      </g>
     </g>
    </g>
    <g id="ytick_3">
     <g id="line2d_17">
      <g>
       <use xlink:href="#mc2f43b2964" x="267.9475" y="90.158281" style="stroke: #000000; stroke-width: 0.8"/>
      </g>
     </g>
     <g id="text_6">
      <!-- fluticasone × HOI Upper GI #3 -->
      <g transform="translate(124.71 93.197656) scale(0.08 -0.08)">
       <defs>
        <path id="DejaVuSans-Bold-66" d="M 2841 4863 
L 2841 4128 
L 2222 4128 
Q 1984 4128 1890 4042 
Q 1797 3956 1797 3744 
L 1797 3500 
L 2753 3500 
L 2753 2700 
L 1797 2700 
L 1797 0 
L 678 0 
L 678 2700 
L 122 2700 
L 122 3500 
L 678 3500 
L 678 3744 
Q 678 4316 997 4589 
Q 1316 4863 1984 4863 
L 2841 4863 
z
" transform="scale(0.015625)"/>
        <path id="DejaVuSans-Bold-48" d="M 588 4666 
L 1791 4666 
L 1791 2888 
L 3566 2888 
L 3566 4666 
L 4769 4666 
L 4769 0 
L 3566 0 
L 3566 1978 
L 1791 1978 
L 1791 0 
L 588 0 
L 588 4666 
z
" transform="scale(0.015625)"/>
        <path id="DejaVuSans-Bold-49" d="M 588 4666 
L 1791 4666 
L 1791 0 
L 588 0 
L 588 4666 
z
" transform="scale(0.015625)"/>
        <path id="DejaVuSans-Bold-55" d="M 588 4666 
L 1791 4666 
L 1791 1869 
Q 1791 1291 1980 1042 
Q 2169 794 2597 794 
Q 3028 794 3217 1042 
Q 3406 1291 3406 1869 
L 3406 4666 
L 4609 4666 
L 4609 1869 
Q 4609 878 4112 393 
Q 3616 -91 2597 -91 
Q 1581 -91 1084 393 
Q 588 878 588 1869 
L 588 4666 
z
" transform="scale(0.015625)"/>
        <path id="DejaVuSans-Bold-47" d="M 4781 347 
Q 4331 128 3847 18 
Q 3363 -91 2847 -91 
Q 1681 -91 1000 561 
Q 319 1213 319 2328 
Q 319 3456 1012 4103 
Q 1706 4750 2913 4750 
Q 3378 4750 3804 4662 
Q 4231 4575 4609 4403 
L 4609 3438 
Q 4219 3659 3833 3768 
Q 3447 3878 3059 3878 
Q 2341 3878 1952 3476 
Q 1563 3075 1563 2328 
Q 1563 1588 1938 1184 
Q 2313 781 3003 781 
Q 3191 781 3352 804 
Q 3513 828 3641 878 
L 3641 1784 
L 2906 1784 
L 2906 2591 
L 4781 2591 
L 4781 347 
z
" transform="scale(0.015625)"/>
        <path id="DejaVuSans-Bold-23" d="M 2847 4594 
L 2547 3391 
L 3372 3391 
L 3675 4594 
L 4366 4594 
L 4063 3391 
L 4928 3391 
L 4928 2725 
L 3897 2725 
L 3681 1869 
L 4569 1869 
L 4569 1197 
L 3519 1197 
L 3219 0 
L 2528 0 
L 2828 1197 
L 2003 1197 
L 1703 0 
L 1006 0 
L 1306 1197 
L 434 1197 
L 434 1869 
L 1459 1869 
L 1678 2725 
L 794 2725 
L 794 3391 
L 1850 3391 
L 2150 4594 
L 2847 4594 
z
M 3200 2725 
L 2375 2725 
L 2156 1869 
L 2981 1869 
L 3200 2725 
z
" transform="scale(0.015625)"/>
        <path id="DejaVuSans-Bold-33" d="M 2981 2516 
Q 3453 2394 3698 2092 
Q 3944 1791 3944 1325 
Q 3944 631 3412 270 
Q 2881 -91 1863 -91 
Q 1503 -91 1142 -33 
Q 781 25 428 141 
L 428 1069 
Q 766 900 1098 814 
Q 1431 728 1753 728 
Q 2231 728 2486 893 
Q 2741 1059 2741 1369 
Q 2741 1688 2480 1852 
Q 2219 2016 1709 2016 
L 1228 2016 
L 1228 2791 
L 1734 2791 
Q 2188 2791 2409 2933 
Q 2631 3075 2631 3366 
Q 2631 3634 2415 3781 
Q 2200 3928 1806 3928 
Q 1516 3928 1219 3862 
Q 922 3797 628 3669 
L 628 4550 
Q 984 4650 1334 4700 
Q 1684 4750 2022 4750 
Q 2931 4750 3382 4451 
Q 3834 4153 3834 3553 
Q 3834 3144 3618 2883 
Q 3403 2622 2981 2516 
z
" transform="scale(0.015625)"/>
       </defs>
       <use xlink:href="#DejaVuSans-Bold-66"/>
       <use xlink:href="#DejaVuSans-Bold-6c" transform="translate(43.505859 0)"/>
       <use xlink:href="#DejaVuSans-Bold-75" transform="translate(77.783203 0)"/>
       <use xlink:href="#DejaVuSans-Bold-74" transform="translate(148.974609 0)"/>
       <use xlink:href="#DejaVuSans-Bold-69" transform="translate(196.777344 0)"/>
       <use xlink:href="#DejaVuSans-Bold-63" transform="translate(231.054688 0)"/>
       <use xlink:href="#DejaVuSans-Bold-61" transform="translate(290.332031 0)"/>
       <use xlink:href="#DejaVuSans-Bold-73" transform="translate(357.8125 0)"/>
       <use xlink:href="#DejaVuSans-Bold-6f" transform="translate(417.333984 0)"/>
       <use xlink:href="#DejaVuSans-Bold-6e" transform="translate(486.035156 0)"/>
       <use xlink:href="#DejaVuSans-Bold-65" transform="translate(557.226562 0)"/>
       <use xlink:href="#DejaVuSans-Bold-20" transform="translate(625.048828 0)"/>
       <use xlink:href="#DejaVuSans-Bold-d7" transform="translate(659.863281 0)"/>
       <use xlink:href="#DejaVuSans-Bold-20" transform="translate(743.652344 0)"/>
       <use xlink:href="#DejaVuSans-Bold-48" transform="translate(778.466797 0)"/>
       <use xlink:href="#DejaVuSans-Bold-4f" transform="translate(862.158203 0)"/>
       <use xlink:href="#DejaVuSans-Bold-49" transform="translate(947.167969 0)"/>
       <use xlink:href="#DejaVuSans-Bold-20" transform="translate(984.375 0)"/>
       <use xlink:href="#DejaVuSans-Bold-55" transform="translate(1019.189453 0)"/>
       <use xlink:href="#DejaVuSans-Bold-70" transform="translate(1100.390625 0)"/>
       <use xlink:href="#DejaVuSans-Bold-70" transform="translate(1171.972656 0)"/>
       <use xlink:href="#DejaVuSans-Bold-65" transform="translate(1243.554688 0)"/>
       <use xlink:href="#DejaVuSans-Bold-72" transform="translate(1311.376953 0)"/>
       <use xlink:href="#DejaVuSans-Bold-20" transform="translate(1360.693359 0)"/>
       <use xlink:href="#DejaVuSans-Bold-47" transform="translate(1395.507812 0)"/>
       <use xlink:href="#DejaVuSans-Bold-49" transform="translate(1477.587891 0)"/>
       <use xlink:href="#DejaVuSans-Bold-20" transform="translate(1514.794922 0)"/>
       <use xlink:href="#DejaVuSans-Bold-23" transform="translate(1549.609375 0)"/>
       <use xlink:href="#DejaVuSans-Bold-33" transform="translate(1633.398438 0)"/>
      </g>
     </g>
    </g>
    <g id="ytick_4">
     <g id="line2d_18">
      <g>
       <use xlink:href="#mc2f43b2964" x="267.9475" y="113.491615" style="stroke: #000000; stroke-width: 0.8"/>
      </g>
     </g>
     <g id="text_7">
      <!-- Interferon beta-1a × OMOP Acute Liver Failure 1 -->
      <g transform="translate(41.93625 116.53099) scale(0.08 -0.08)">
       <defs>
        <path id="DejaVuSans-Bold-2d" d="M 347 2297 
L 2309 2297 
L 2309 1388 
L 347 1388 
L 347 2297 
z
" transform="scale(0.015625)"/>
       </defs>
       <use xlink:href="#DejaVuSans-Bold-49"/>
       <use xlink:href="#DejaVuSans-Bold-6e" transform="translate(37.207031 0)"/>
       <use xlink:href="#DejaVuSans-Bold-74" transform="translate(108.398438 0)"/>
       <use xlink:href="#DejaVuSans-Bold-65" transform="translate(156.201172 0)"/>
       <use xlink:href="#DejaVuSans-Bold-72" transform="translate(224.023438 0)"/>
       <use xlink:href="#DejaVuSans-Bold-66" transform="translate(273.339844 0)"/>
       <use xlink:href="#DejaVuSans-Bold-65" transform="translate(316.845703 0)"/>
       <use xlink:href="#DejaVuSans-Bold-72" transform="translate(384.667969 0)"/>
       <use xlink:href="#DejaVuSans-Bold-6f" transform="translate(433.984375 0)"/>
       <use xlink:href="#DejaVuSans-Bold-6e" transform="translate(502.685547 0)"/>
       <use xlink:href="#DejaVuSans-Bold-20" transform="translate(573.876953 0)"/>
       <use xlink:href="#DejaVuSans-Bold-62" transform="translate(608.691406 0)"/>
       <use xlink:href="#DejaVuSans-Bold-65" transform="translate(680.273438 0)"/>
       <use xlink:href="#DejaVuSans-Bold-74" transform="translate(748.095703 0)"/>
       <use xlink:href="#DejaVuSans-Bold-61" transform="translate(795.898438 0)"/>
       <use xlink:href="#DejaVuSans-Bold-2d" transform="translate(863.378906 0)"/>
       <use xlink:href="#DejaVuSans-Bold-31" transform="translate(904.882812 0)"/>
       <use xlink:href="#DejaVuSans-Bold-61" transform="translate(974.462891 0)"/>
       <use xlink:href="#DejaVuSans-Bold-20" transform="translate(1041.943359 0)"/>
       <use xlink:href="#DejaVuSans-Bold-d7" transform="translate(1076.757812 0)"/>
       <use xlink:href="#DejaVuSans-Bold-20" transform="translate(1160.546875 0)"/>
       <use xlink:href="#DejaVuSans-Bold-4f" transform="translate(1195.361328 0)"/>
       <use xlink:href="#DejaVuSans-Bold-4d" transform="translate(1280.371094 0)"/>
       <use xlink:href="#DejaVuSans-Bold-4f" transform="translate(1379.882812 0)"/>
       <use xlink:href="#DejaVuSans-Bold-50" transform="translate(1464.892578 0)"/>
       <use xlink:href="#DejaVuSans-Bold-20" transform="translate(1538.183594 0)"/>
       <use xlink:href="#DejaVuSans-Bold-41" transform="translate(1572.998047 0)"/>
       <use xlink:href="#DejaVuSans-Bold-63" transform="translate(1650.390625 0)"/>
       <use xlink:href="#DejaVuSans-Bold-75" transform="translate(1709.667969 0)"/>
       <use xlink:href="#DejaVuSans-Bold-74" transform="translate(1780.859375 0)"/>
       <use xlink:href="#DejaVuSans-Bold-65" transform="translate(1828.662109 0)"/>
       <use xlink:href="#DejaVuSans-Bold-20" transform="translate(1896.484375 0)"/>
       <use xlink:href="#DejaVuSans-Bold-4c" transform="translate(1931.298828 0)"/>
       <use xlink:href="#DejaVuSans-Bold-69" transform="translate(1995.019531 0)"/>
       <use xlink:href="#DejaVuSans-Bold-76" transform="translate(2029.296875 0)"/>
       <use xlink:href="#DejaVuSans-Bold-65" transform="translate(2094.482422 0)"/>
       <use xlink:href="#DejaVuSans-Bold-72" transform="translate(2162.304688 0)"/>
       <use xlink:href="#DejaVuSans-Bold-20" transform="translate(2211.621094 0)"/>
       <use xlink:href="#DejaVuSans-Bold-46" transform="translate(2246.435547 0)"/>
       <use xlink:href="#DejaVuSans-Bold-61" transform="translate(2308.871094 0)"/>
       <use xlink:href="#DejaVuSans-Bold-69" transform="translate(2376.351562 0)"/>
       <use xlink:href="#DejaVuSans-Bold-6c" transform="translate(2410.628906 0)"/>
       <use xlink:href="#DejaVuSans-Bold-75" transform="translate(2444.90625 0)"/>
       <use xlink:href="#DejaVuSans-Bold-72" transform="translate(2516.097656 0)"/>
       <use xlink:href="#DejaVuSans-Bold-65" transform="translate(2565.414062 0)"/>
       <use xlink:href="#DejaVuSans-Bold-20" transform="translate(2633.236328 0)"/>
       <use xlink:href="#DejaVuSans-Bold-31" transform="translate(2668.050781 0)"/>
      </g>
     </g>
    </g>
    <g id="ytick_5">
     <g id="line2d_19">
      <g>
       <use xlink:href="#mc2f43b2964" x="267.9475" y="136.824948" style="stroke: #000000; stroke-width: 0.8"/>
      </g>
     </g>
     <g id="text_8">
      <!-- darbepoetin alfa × OMOP Acute myocardial Infarction  1 -->
      <g transform="translate(7.2 139.864323) scale(0.08 -0.08)">
       <defs>
        <path id="DejaVuSans-Bold-64" d="M 2919 2988 
L 2919 4863 
L 4044 4863 
L 4044 0 
L 2919 0 
L 2919 506 
Q 2688 197 2409 53 
Q 2131 -91 1766 -91 
Q 1119 -91 703 423 
Q 288 938 288 1747 
Q 288 2556 703 3070 
Q 1119 3584 1766 3584 
Q 2128 3584 2408 3439 
Q 2688 3294 2919 2988 
z
M 2181 722 
Q 2541 722 2730 984 
Q 2919 1247 2919 1747 
Q 2919 2247 2730 2509 
Q 2541 2772 2181 2772 
Q 1825 2772 1636 2509 
Q 1447 2247 1447 1747 
Q 1447 1247 1636 984 
Q 1825 722 2181 722 
z
" transform="scale(0.015625)"/>
       </defs>
       <use xlink:href="#DejaVuSans-Bold-64"/>
       <use xlink:href="#DejaVuSans-Bold-61" transform="translate(71.582031 0)"/>
       <use xlink:href="#DejaVuSans-Bold-72" transform="translate(139.0625 0)"/>
       <use xlink:href="#DejaVuSans-Bold-62" transform="translate(188.378906 0)"/>
       <use xlink:href="#DejaVuSans-Bold-65" transform="translate(259.960938 0)"/>
       <use xlink:href="#DejaVuSans-Bold-70" transform="translate(327.783203 0)"/>
       <use xlink:href="#DejaVuSans-Bold-6f" transform="translate(399.365234 0)"/>
       <use xlink:href="#DejaVuSans-Bold-65" transform="translate(468.066406 0)"/>
       <use xlink:href="#DejaVuSans-Bold-74" transform="translate(535.888672 0)"/>
       <use xlink:href="#DejaVuSans-Bold-69" transform="translate(583.691406 0)"/>
       <use xlink:href="#DejaVuSans-Bold-6e" transform="translate(617.96875 0)"/>
       <use xlink:href="#DejaVuSans-Bold-20" transform="translate(689.160156 0)"/>
       <use xlink:href="#DejaVuSans-Bold-61" transform="translate(723.974609 0)"/>
       <use xlink:href="#DejaVuSans-Bold-6c" transform="translate(791.455078 0)"/>
       <use xlink:href="#DejaVuSans-Bold-66" transform="translate(825.732422 0)"/>
       <use xlink:href="#DejaVuSans-Bold-61" transform="translate(869.238281 0)"/>
       <use xlink:href="#DejaVuSans-Bold-20" transform="translate(936.71875 0)"/>
       <use xlink:href="#DejaVuSans-Bold-d7" transform="translate(971.533203 0)"/>
       <use xlink:href="#DejaVuSans-Bold-20" transform="translate(1055.322266 0)"/>
       <use xlink:href="#DejaVuSans-Bold-4f" transform="translate(1090.136719 0)"/>
       <use xlink:href="#DejaVuSans-Bold-4d" transform="translate(1175.146484 0)"/>
       <use xlink:href="#DejaVuSans-Bold-4f" transform="translate(1274.658203 0)"/>
       <use xlink:href="#DejaVuSans-Bold-50" transform="translate(1359.667969 0)"/>
       <use xlink:href="#DejaVuSans-Bold-20" transform="translate(1432.958984 0)"/>
       <use xlink:href="#DejaVuSans-Bold-41" transform="translate(1467.773438 0)"/>
       <use xlink:href="#DejaVuSans-Bold-63" transform="translate(1545.166016 0)"/>
       <use xlink:href="#DejaVuSans-Bold-75" transform="translate(1604.443359 0)"/>
       <use xlink:href="#DejaVuSans-Bold-74" transform="translate(1675.634766 0)"/>
       <use xlink:href="#DejaVuSans-Bold-65" transform="translate(1723.4375 0)"/>
       <use xlink:href="#DejaVuSans-Bold-20" transform="translate(1791.259766 0)"/>
       <use xlink:href="#DejaVuSans-Bold-6d" transform="translate(1826.074219 0)"/>
       <use xlink:href="#DejaVuSans-Bold-79" transform="translate(1930.273438 0)"/>
       <use xlink:href="#DejaVuSans-Bold-6f" transform="translate(1995.458984 0)"/>
       <use xlink:href="#DejaVuSans-Bold-63" transform="translate(2064.160156 0)"/>
       <use xlink:href="#DejaVuSans-Bold-61" transform="translate(2123.4375 0)"/>
       <use xlink:href="#DejaVuSans-Bold-72" transform="translate(2190.917969 0)"/>
       <use xlink:href="#DejaVuSans-Bold-64" transform="translate(2240.234375 0)"/>
       <use xlink:href="#DejaVuSans-Bold-69" transform="translate(2311.816406 0)"/>
       <use xlink:href="#DejaVuSans-Bold-61" transform="translate(2346.09375 0)"/>
       <use xlink:href="#DejaVuSans-Bold-6c" transform="translate(2413.574219 0)"/>
       <use xlink:href="#DejaVuSans-Bold-20" transform="translate(2447.851562 0)"/>
       <use xlink:href="#DejaVuSans-Bold-49" transform="translate(2482.666016 0)"/>
       <use xlink:href="#DejaVuSans-Bold-6e" transform="translate(2519.873047 0)"/>
       <use xlink:href="#DejaVuSans-Bold-66" transform="translate(2591.064453 0)"/>
       <use xlink:href="#DejaVuSans-Bold-61" transform="translate(2634.570312 0)"/>
       <use xlink:href="#DejaVuSans-Bold-72" transform="translate(2702.050781 0)"/>
       <use xlink:href="#DejaVuSans-Bold-63" transform="translate(2751.367188 0)"/>
       <use xlink:href="#DejaVuSans-Bold-74" transform="translate(2810.644531 0)"/>
       <use xlink:href="#DejaVuSans-Bold-69" transform="translate(2858.447266 0)"/>
       <use xlink:href="#DejaVuSans-Bold-6f" transform="translate(2892.724609 0)"/>
       <use xlink:href="#DejaVuSans-Bold-6e" transform="translate(2961.425781 0)"/>
       <use xlink:href="#DejaVuSans-Bold-20" transform="translate(3032.617188 0)"/>
       <use xlink:href="#DejaVuSans-Bold-20" transform="translate(3067.431641 0)"/>
       <use xlink:href="#DejaVuSans-Bold-31" transform="translate(3102.246094 0)"/>
      </g>
     </g>
    </g>
    <g id="ytick_6">
     <g id="line2d_20">
      <g>
       <use xlink:href="#mc2f43b2964" x="267.9475" y="160.158281" style="stroke: #000000; stroke-width: 0.8"/>
      </g>
     </g>
     <g id="text_9">
      <!-- Primidone × OMOP Acute Liver Failure 1 -->
      <g transform="translate(79.31625 163.197656) scale(0.08 -0.08)">
       <use xlink:href="#DejaVuSans-Bold-50"/>
       <use xlink:href="#DejaVuSans-Bold-72" transform="translate(73.291016 0)"/>
       <use xlink:href="#DejaVuSans-Bold-69" transform="translate(122.607422 0)"/>
       <use xlink:href="#DejaVuSans-Bold-6d" transform="translate(156.884766 0)"/>
       <use xlink:href="#DejaVuSans-Bold-69" transform="translate(261.083984 0)"/>
       <use xlink:href="#DejaVuSans-Bold-64" transform="translate(295.361328 0)"/>
       <use xlink:href="#DejaVuSans-Bold-6f" transform="translate(366.943359 0)"/>
       <use xlink:href="#DejaVuSans-Bold-6e" transform="translate(435.644531 0)"/>
       <use xlink:href="#DejaVuSans-Bold-65" transform="translate(506.835938 0)"/>
       <use xlink:href="#DejaVuSans-Bold-20" transform="translate(574.658203 0)"/>
       <use xlink:href="#DejaVuSans-Bold-d7" transform="translate(609.472656 0)"/>
       <use xlink:href="#DejaVuSans-Bold-20" transform="translate(693.261719 0)"/>
       <use xlink:href="#DejaVuSans-Bold-4f" transform="translate(728.076172 0)"/>
       <use xlink:href="#DejaVuSans-Bold-4d" transform="translate(813.085938 0)"/>
       <use xlink:href="#DejaVuSans-Bold-4f" transform="translate(912.597656 0)"/>
       <use xlink:href="#DejaVuSans-Bold-50" transform="translate(997.607422 0)"/>
       <use xlink:href="#DejaVuSans-Bold-20" transform="translate(1070.898438 0)"/>
       <use xlink:href="#DejaVuSans-Bold-41" transform="translate(1105.712891 0)"/>
       <use xlink:href="#DejaVuSans-Bold-63" transform="translate(1183.105469 0)"/>
       <use xlink:href="#DejaVuSans-Bold-75" transform="translate(1242.382812 0)"/>
       <use xlink:href="#DejaVuSans-Bold-74" transform="translate(1313.574219 0)"/>
       <use xlink:href="#DejaVuSans-Bold-65" transform="translate(1361.376953 0)"/>
       <use xlink:href="#DejaVuSans-Bold-20" transform="translate(1429.199219 0)"/>
       <use xlink:href="#DejaVuSans-Bold-4c" transform="translate(1464.013672 0)"/>
       <use xlink:href="#DejaVuSans-Bold-69" transform="translate(1527.734375 0)"/>
       <use xlink:href="#DejaVuSans-Bold-76" transform="translate(1562.011719 0)"/>
       <use xlink:href="#DejaVuSans-Bold-65" transform="translate(1627.197266 0)"/>
       <use xlink:href="#DejaVuSans-Bold-72" transform="translate(1695.019531 0)"/>
       <use xlink:href="#DejaVuSans-Bold-20" transform="translate(1744.335938 0)"/>
       <use xlink:href="#DejaVuSans-Bold-46" transform="translate(1779.150391 0)"/>
       <use xlink:href="#DejaVuSans-Bold-61" transform="translate(1841.585938 0)"/>
       <use xlink:href="#DejaVuSans-Bold-69" transform="translate(1909.066406 0)"/>
       <use xlink:href="#DejaVuSans-Bold-6c" transform="translate(1943.34375 0)"/>
       <use xlink:href="#DejaVuSans-Bold-75" transform="translate(1977.621094 0)"/>
       <use xlink:href="#DejaVuSans-Bold-72" transform="translate(2048.8125 0)"/>
       <use xlink:href="#DejaVuSans-Bold-65" transform="translate(2098.128906 0)"/>
       <use xlink:href="#DejaVuSans-Bold-20" transform="translate(2165.951172 0)"/>
       <use xlink:href="#DejaVuSans-Bold-31" transform="translate(2200.765625 0)"/>
      </g>
     </g>
    </g>
    <g id="ytick_7">
     <g id="line2d_21">
      <g>
       <use xlink:href="#mc2f43b2964" x="267.9475" y="183.491615" style="stroke: #000000; stroke-width: 0.8"/>
      </g>
     </g>
     <g id="text_10">
      <!-- pioglitazone × OMOP Acute Liver Failure 1 -->
      <g transform="translate(69.6175 186.53099) scale(0.08 -0.08)">
       <use xlink:href="#DejaVuSans-Bold-70"/>
       <use xlink:href="#DejaVuSans-Bold-69" transform="translate(71.582031 0)"/>
       <use xlink:href="#DejaVuSans-Bold-6f" transform="translate(105.859375 0)"/>
       <use xlink:href="#DejaVuSans-Bold-67" transform="translate(174.560547 0)"/>
       <use xlink:href="#DejaVuSans-Bold-6c" transform="translate(246.142578 0)"/>
       <use xlink:href="#DejaVuSans-Bold-69" transform="translate(280.419922 0)"/>
       <use xlink:href="#DejaVuSans-Bold-74" transform="translate(314.697266 0)"/>
       <use xlink:href="#DejaVuSans-Bold-61" transform="translate(362.5 0)"/>
       <use xlink:href="#DejaVuSans-Bold-7a" transform="translate(429.980469 0)"/>
       <use xlink:href="#DejaVuSans-Bold-6f" transform="translate(488.183594 0)"/>
       <use xlink:href="#DejaVuSans-Bold-6e" transform="translate(556.884766 0)"/>
       <use xlink:href="#DejaVuSans-Bold-65" transform="translate(628.076172 0)"/>
       <use xlink:href="#DejaVuSans-Bold-20" transform="translate(695.898438 0)"/>
       <use xlink:href="#DejaVuSans-Bold-d7" transform="translate(730.712891 0)"/>
       <use xlink:href="#DejaVuSans-Bold-20" transform="translate(814.501953 0)"/>
       <use xlink:href="#DejaVuSans-Bold-4f" transform="translate(849.316406 0)"/>
       <use xlink:href="#DejaVuSans-Bold-4d" transform="translate(934.326172 0)"/>
       <use xlink:href="#DejaVuSans-Bold-4f" transform="translate(1033.837891 0)"/>
       <use xlink:href="#DejaVuSans-Bold-50" transform="translate(1118.847656 0)"/>
       <use xlink:href="#DejaVuSans-Bold-20" transform="translate(1192.138672 0)"/>
       <use xlink:href="#DejaVuSans-Bold-41" transform="translate(1226.953125 0)"/>
       <use xlink:href="#DejaVuSans-Bold-63" transform="translate(1304.345703 0)"/>
       <use xlink:href="#DejaVuSans-Bold-75" transform="translate(1363.623047 0)"/>
       <use xlink:href="#DejaVuSans-Bold-74" transform="translate(1434.814453 0)"/>
       <use xlink:href="#DejaVuSans-Bold-65" transform="translate(1482.617188 0)"/>
       <use xlink:href="#DejaVuSans-Bold-20" transform="translate(1550.439453 0)"/>
       <use xlink:href="#DejaVuSans-Bold-4c" transform="translate(1585.253906 0)"/>
       <use xlink:href="#DejaVuSans-Bold-69" transform="translate(1648.974609 0)"/>
       <use xlink:href="#DejaVuSans-Bold-76" transform="translate(1683.251953 0)"/>
       <use xlink:href="#DejaVuSans-Bold-65" transform="translate(1748.4375 0)"/>
       <use xlink:href="#DejaVuSans-Bold-72" transform="translate(1816.259766 0)"/>
       <use xlink:href="#DejaVuSans-Bold-20" transform="translate(1865.576172 0)"/>
       <use xlink:href="#DejaVuSans-Bold-46" transform="translate(1900.390625 0)"/>
       <use xlink:href="#DejaVuSans-Bold-61" transform="translate(1962.826172 0)"/>
       <use xlink:href="#DejaVuSans-Bold-69" transform="translate(2030.306641 0)"/>
       <use xlink:href="#DejaVuSans-Bold-6c" transform="translate(2064.583984 0)"/>
       <use xlink:href="#DejaVuSans-Bold-75" transform="translate(2098.861328 0)"/>
       <use xlink:href="#DejaVuSans-Bold-72" transform="translate(2170.052734 0)"/>
       <use xlink:href="#DejaVuSans-Bold-65" transform="translate(2219.369141 0)"/>
       <use xlink:href="#DejaVuSans-Bold-20" transform="translate(2287.191406 0)"/>
       <use xlink:href="#DejaVuSans-Bold-31" transform="translate(2322.005859 0)"/>
      </g>
     </g>
    </g>
    <g id="ytick_8">
     <g id="line2d_22">
      <g>
       <use xlink:href="#mc2f43b2964" x="267.9475" y="206.824948" style="stroke: #000000; stroke-width: 0.8"/>
      </g>
     </g>
     <g id="text_11">
      <!-- Hyoscyamine × OMOP Acute Liver Failure 1 -->
      <g transform="translate(65.56625 209.864323) scale(0.08 -0.08)">
       <use xlink:href="#DejaVuSans-Bold-48"/>
       <use xlink:href="#DejaVuSans-Bold-79" transform="translate(83.691406 0)"/>
       <use xlink:href="#DejaVuSans-Bold-6f" transform="translate(148.876953 0)"/>
       <use xlink:href="#DejaVuSans-Bold-73" transform="translate(217.578125 0)"/>
       <use xlink:href="#DejaVuSans-Bold-63" transform="translate(277.099609 0)"/>
       <use xlink:href="#DejaVuSans-Bold-79" transform="translate(336.376953 0)"/>
       <use xlink:href="#DejaVuSans-Bold-61" transform="translate(401.5625 0)"/>
       <use xlink:href="#DejaVuSans-Bold-6d" transform="translate(469.042969 0)"/>
       <use xlink:href="#DejaVuSans-Bold-69" transform="translate(573.242188 0)"/>
       <use xlink:href="#DejaVuSans-Bold-6e" transform="translate(607.519531 0)"/>
       <use xlink:href="#DejaVuSans-Bold-65" transform="translate(678.710938 0)"/>
       <use xlink:href="#DejaVuSans-Bold-20" transform="translate(746.533203 0)"/>
       <use xlink:href="#DejaVuSans-Bold-d7" transform="translate(781.347656 0)"/>
       <use xlink:href="#DejaVuSans-Bold-20" transform="translate(865.136719 0)"/>
       <use xlink:href="#DejaVuSans-Bold-4f" transform="translate(899.951172 0)"/>
       <use xlink:href="#DejaVuSans-Bold-4d" transform="translate(984.960938 0)"/>
       <use xlink:href="#DejaVuSans-Bold-4f" transform="translate(1084.472656 0)"/>
       <use xlink:href="#DejaVuSans-Bold-50" transform="translate(1169.482422 0)"/>
       <use xlink:href="#DejaVuSans-Bold-20" transform="translate(1242.773438 0)"/>
       <use xlink:href="#DejaVuSans-Bold-41" transform="translate(1277.587891 0)"/>
       <use xlink:href="#DejaVuSans-Bold-63" transform="translate(1354.980469 0)"/>
       <use xlink:href="#DejaVuSans-Bold-75" transform="translate(1414.257812 0)"/>
       <use xlink:href="#DejaVuSans-Bold-74" transform="translate(1485.449219 0)"/>
       <use xlink:href="#DejaVuSans-Bold-65" transform="translate(1533.251953 0)"/>
       <use xlink:href="#DejaVuSans-Bold-20" transform="translate(1601.074219 0)"/>
       <use xlink:href="#DejaVuSans-Bold-4c" transform="translate(1635.888672 0)"/>
       <use xlink:href="#DejaVuSans-Bold-69" transform="translate(1699.609375 0)"/>
       <use xlink:href="#DejaVuSans-Bold-76" transform="translate(1733.886719 0)"/>
       <use xlink:href="#DejaVuSans-Bold-65" transform="translate(1799.072266 0)"/>
       <use xlink:href="#DejaVuSans-Bold-72" transform="translate(1866.894531 0)"/>
       <use xlink:href="#DejaVuSans-Bold-20" transform="translate(1916.210938 0)"/>
       <use xlink:href="#DejaVuSans-Bold-46" transform="translate(1951.025391 0)"/>
       <use xlink:href="#DejaVuSans-Bold-61" transform="translate(2013.460938 0)"/>
       <use xlink:href="#DejaVuSans-Bold-69" transform="translate(2080.941406 0)"/>
       <use xlink:href="#DejaVuSans-Bold-6c" transform="translate(2115.21875 0)"/>
       <use xlink:href="#DejaVuSans-Bold-75" transform="translate(2149.496094 0)"/>
       <use xlink:href="#DejaVuSans-Bold-72" transform="translate(2220.6875 0)"/>
       <use xlink:href="#DejaVuSans-Bold-65" transform="translate(2270.003906 0)"/>
       <use xlink:href="#DejaVuSans-Bold-20" transform="translate(2337.826172 0)"/>
       <use xlink:href="#DejaVuSans-Bold-31" transform="translate(2372.640625 0)"/>
      </g>
     </g>
    </g>
    <g id="ytick_9">
     <g id="line2d_23">
      <g>
       <use xlink:href="#mc2f43b2964" x="267.9475" y="230.158281" style="stroke: #000000; stroke-width: 0.8"/>
      </g>
     </g>
     <g id="text_12">
      <!-- Levodopa × OMOP Acute Renal Failure 1 -->
      <g transform="translate(78.71125 233.197656) scale(0.08 -0.08)">
       <use xlink:href="#DejaVuSans-Bold-4c"/>
       <use xlink:href="#DejaVuSans-Bold-65" transform="translate(63.720703 0)"/>
       <use xlink:href="#DejaVuSans-Bold-76" transform="translate(131.542969 0)"/>
       <use xlink:href="#DejaVuSans-Bold-6f" transform="translate(196.728516 0)"/>
       <use xlink:href="#DejaVuSans-Bold-64" transform="translate(265.429688 0)"/>
       <use xlink:href="#DejaVuSans-Bold-6f" transform="translate(337.011719 0)"/>
       <use xlink:href="#DejaVuSans-Bold-70" transform="translate(405.712891 0)"/>
       <use xlink:href="#DejaVuSans-Bold-61" transform="translate(477.294922 0)"/>
       <use xlink:href="#DejaVuSans-Bold-20" transform="translate(544.775391 0)"/>
       <use xlink:href="#DejaVuSans-Bold-d7" transform="translate(579.589844 0)"/>
       <use xlink:href="#DejaVuSans-Bold-20" transform="translate(663.378906 0)"/>
       <use xlink:href="#DejaVuSans-Bold-4f" transform="translate(698.193359 0)"/>
       <use xlink:href="#DejaVuSans-Bold-4d" transform="translate(783.203125 0)"/>
       <use xlink:href="#DejaVuSans-Bold-4f" transform="translate(882.714844 0)"/>
       <use xlink:href="#DejaVuSans-Bold-50" transform="translate(967.724609 0)"/>
       <use xlink:href="#DejaVuSans-Bold-20" transform="translate(1041.015625 0)"/>
       <use xlink:href="#DejaVuSans-Bold-41" transform="translate(1075.830078 0)"/>
       <use xlink:href="#DejaVuSans-Bold-63" transform="translate(1153.222656 0)"/>
       <use xlink:href="#DejaVuSans-Bold-75" transform="translate(1212.5 0)"/>
       <use xlink:href="#DejaVuSans-Bold-74" transform="translate(1283.691406 0)"/>
       <use xlink:href="#DejaVuSans-Bold-65" transform="translate(1331.494141 0)"/>
       <use xlink:href="#DejaVuSans-Bold-20" transform="translate(1399.316406 0)"/>
       <use xlink:href="#DejaVuSans-Bold-52" transform="translate(1434.130859 0)"/>
       <use xlink:href="#DejaVuSans-Bold-65" transform="translate(1511.132812 0)"/>
       <use xlink:href="#DejaVuSans-Bold-6e" transform="translate(1578.955078 0)"/>
       <use xlink:href="#DejaVuSans-Bold-61" transform="translate(1650.146484 0)"/>
       <use xlink:href="#DejaVuSans-Bold-6c" transform="translate(1717.626953 0)"/>
       <use xlink:href="#DejaVuSans-Bold-20" transform="translate(1751.904297 0)"/>
       <use xlink:href="#DejaVuSans-Bold-46" transform="translate(1786.71875 0)"/>
       <use xlink:href="#DejaVuSans-Bold-61" transform="translate(1849.154297 0)"/>
       <use xlink:href="#DejaVuSans-Bold-69" transform="translate(1916.634766 0)"/>
       <use xlink:href="#DejaVuSans-Bold-6c" transform="translate(1950.912109 0)"/>
       <use xlink:href="#DejaVuSans-Bold-75" transform="translate(1985.189453 0)"/>
       <use xlink:href="#DejaVuSans-Bold-72" transform="translate(2056.380859 0)"/>
       <use xlink:href="#DejaVuSans-Bold-65" transform="translate(2105.697266 0)"/>
       <use xlink:href="#DejaVuSans-Bold-20" transform="translate(2173.519531 0)"/>
       <use xlink:href="#DejaVuSans-Bold-31" transform="translate(2208.333984 0)"/>
      </g>
     </g>
    </g>
    <g id="ytick_10">
     <g id="line2d_24">
      <g>
       <use xlink:href="#mc2f43b2964" x="267.9475" y="253.491615" style="stroke: #000000; stroke-width: 0.8"/>
      </g>
     </g>
     <g id="text_13">
      <!-- dorzolamide × HOI Upper GI #3 -->
      <g transform="translate(119.02125 256.53099) scale(0.08 -0.08)">
       <use xlink:href="#DejaVuSans-Bold-64"/>
       <use xlink:href="#DejaVuSans-Bold-6f" transform="translate(71.582031 0)"/>
       <use xlink:href="#DejaVuSans-Bold-72" transform="translate(140.283203 0)"/>
       <use xlink:href="#DejaVuSans-Bold-7a" transform="translate(189.599609 0)"/>
       <use xlink:href="#DejaVuSans-Bold-6f" transform="translate(247.802734 0)"/>
       <use xlink:href="#DejaVuSans-Bold-6c" transform="translate(316.503906 0)"/>
       <use xlink:href="#DejaVuSans-Bold-61" transform="translate(350.78125 0)"/>
       <use xlink:href="#DejaVuSans-Bold-6d" transform="translate(418.261719 0)"/>
       <use xlink:href="#DejaVuSans-Bold-69" transform="translate(522.460938 0)"/>
       <use xlink:href="#DejaVuSans-Bold-64" transform="translate(556.738281 0)"/>
       <use xlink:href="#DejaVuSans-Bold-65" transform="translate(628.320312 0)"/>
       <use xlink:href="#DejaVuSans-Bold-20" transform="translate(696.142578 0)"/>
       <use xlink:href="#DejaVuSans-Bold-d7" transform="translate(730.957031 0)"/>
       <use xlink:href="#DejaVuSans-Bold-20" transform="translate(814.746094 0)"/>
       <use xlink:href="#DejaVuSans-Bold-48" transform="translate(849.560547 0)"/>
       <use xlink:href="#DejaVuSans-Bold-4f" transform="translate(933.251953 0)"/>
       <use xlink:href="#DejaVuSans-Bold-49" transform="translate(1018.261719 0)"/>
       <use xlink:href="#DejaVuSans-Bold-20" transform="translate(1055.46875 0)"/>
       <use xlink:href="#DejaVuSans-Bold-55" transform="translate(1090.283203 0)"/>
       <use xlink:href="#DejaVuSans-Bold-70" transform="translate(1171.484375 0)"/>
       <use xlink:href="#DejaVuSans-Bold-70" transform="translate(1243.066406 0)"/>
       <use xlink:href="#DejaVuSans-Bold-65" transform="translate(1314.648438 0)"/>
       <use xlink:href="#DejaVuSans-Bold-72" transform="translate(1382.470703 0)"/>
       <use xlink:href="#DejaVuSans-Bold-20" transform="translate(1431.787109 0)"/>
       <use xlink:href="#DejaVuSans-Bold-47" transform="translate(1466.601562 0)"/>
       <use xlink:href="#DejaVuSans-Bold-49" transform="translate(1548.681641 0)"/>
       <use xlink:href="#DejaVuSans-Bold-20" transform="translate(1585.888672 0)"/>
       <use xlink:href="#DejaVuSans-Bold-23" transform="translate(1620.703125 0)"/>
       <use xlink:href="#DejaVuSans-Bold-33" transform="translate(1704.492188 0)"/>
      </g>
     </g>
    </g>
    <g id="ytick_11">
     <g id="line2d_25">
      <g>
       <use xlink:href="#mc2f43b2964" x="267.9475" y="276.824948" style="stroke: #000000; stroke-width: 0.8"/>
      </g>
     </g>
     <g id="text_14">
      <!-- Nevirapine × OMOP Acute myocardial Infarction  1 -->
      <g transform="translate(33.125 279.864323) scale(0.08 -0.08)">
       <use xlink:href="#DejaVuSans-Bold-4e"/>
       <use xlink:href="#DejaVuSans-Bold-65" transform="translate(83.691406 0)"/>
       <use xlink:href="#DejaVuSans-Bold-76" transform="translate(151.513672 0)"/>
       <use xlink:href="#DejaVuSans-Bold-69" transform="translate(216.699219 0)"/>
       <use xlink:href="#DejaVuSans-Bold-72" transform="translate(250.976562 0)"/>
       <use xlink:href="#DejaVuSans-Bold-61" transform="translate(300.292969 0)"/>
       <use xlink:href="#DejaVuSans-Bold-70" transform="translate(367.773438 0)"/>
       <use xlink:href="#DejaVuSans-Bold-69" transform="translate(439.355469 0)"/>
       <use xlink:href="#DejaVuSans-Bold-6e" transform="translate(473.632812 0)"/>
       <use xlink:href="#DejaVuSans-Bold-65" transform="translate(544.824219 0)"/>
       <use xlink:href="#DejaVuSans-Bold-20" transform="translate(612.646484 0)"/>
       <use xlink:href="#DejaVuSans-Bold-d7" transform="translate(647.460938 0)"/>
       <use xlink:href="#DejaVuSans-Bold-20" transform="translate(731.25 0)"/>
       <use xlink:href="#DejaVuSans-Bold-4f" transform="translate(766.064453 0)"/>
       <use xlink:href="#DejaVuSans-Bold-4d" transform="translate(851.074219 0)"/>
       <use xlink:href="#DejaVuSans-Bold-4f" transform="translate(950.585938 0)"/>
       <use xlink:href="#DejaVuSans-Bold-50" transform="translate(1035.595703 0)"/>
       <use xlink:href="#DejaVuSans-Bold-20" transform="translate(1108.886719 0)"/>
       <use xlink:href="#DejaVuSans-Bold-41" transform="translate(1143.701172 0)"/>
       <use xlink:href="#DejaVuSans-Bold-63" transform="translate(1221.09375 0)"/>
       <use xlink:href="#DejaVuSans-Bold-75" transform="translate(1280.371094 0)"/>
       <use xlink:href="#DejaVuSans-Bold-74" transform="translate(1351.5625 0)"/>
       <use xlink:href="#DejaVuSans-Bold-65" transform="translate(1399.365234 0)"/>
       <use xlink:href="#DejaVuSans-Bold-20" transform="translate(1467.1875 0)"/>
       <use xlink:href="#DejaVuSans-Bold-6d" transform="translate(1502.001953 0)"/>
       <use xlink:href="#DejaVuSans-Bold-79" transform="translate(1606.201172 0)"/>
       <use xlink:href="#DejaVuSans-Bold-6f" transform="translate(1671.386719 0)"/>
       <use xlink:href="#DejaVuSans-Bold-63" transform="translate(1740.087891 0)"/>
       <use xlink:href="#DejaVuSans-Bold-61" transform="translate(1799.365234 0)"/>
       <use xlink:href="#DejaVuSans-Bold-72" transform="translate(1866.845703 0)"/>
       <use xlink:href="#DejaVuSans-Bold-64" transform="translate(1916.162109 0)"/>
       <use xlink:href="#DejaVuSans-Bold-69" transform="translate(1987.744141 0)"/>
       <use xlink:href="#DejaVuSans-Bold-61" transform="translate(2022.021484 0)"/>
       <use xlink:href="#DejaVuSans-Bold-6c" transform="translate(2089.501953 0)"/>
       <use xlink:href="#DejaVuSans-Bold-20" transform="translate(2123.779297 0)"/>
       <use xlink:href="#DejaVuSans-Bold-49" transform="translate(2158.59375 0)"/>
       <use xlink:href="#DejaVuSans-Bold-6e" transform="translate(2195.800781 0)"/>
       <use xlink:href="#DejaVuSans-Bold-66" transform="translate(2266.992188 0)"/>
       <use xlink:href="#DejaVuSans-Bold-61" transform="translate(2310.498047 0)"/>
       <use xlink:href="#DejaVuSans-Bold-72" transform="translate(2377.978516 0)"/>
       <use xlink:href="#DejaVuSans-Bold-63" transform="translate(2427.294922 0)"/>
       <use xlink:href="#DejaVuSans-Bold-74" transform="translate(2486.572266 0)"/>
       <use xlink:href="#DejaVuSans-Bold-69" transform="translate(2534.375 0)"/>
       <use xlink:href="#DejaVuSans-Bold-6f" transform="translate(2568.652344 0)"/>
       <use xlink:href="#DejaVuSans-Bold-6e" transform="translate(2637.353516 0)"/>
       <use xlink:href="#DejaVuSans-Bold-20" transform="translate(2708.544922 0)"/>
       <use xlink:href="#DejaVuSans-Bold-20" transform="translate(2743.359375 0)"/>
       <use xlink:href="#DejaVuSans-Bold-31" transform="translate(2778.173828 0)"/>
      </g>
     </g>
    </g>
   </g>
   <g id="line2d_26">
    <path d="M 327.315174 298.758281 
L 327.315174 21.558281 
" clip-path="url(#p42605f4b43)" style="fill: none; stroke-dasharray: 2.96,1.28; stroke-dashoffset: 0; stroke: #888888; stroke-width: 0.8"/>
   </g>
   <g id="patch_14">
    <path d="M 267.9475 298.758281 
L 267.9475 21.558281 
" style="fill: none; stroke: #000000; stroke-width: 0.8; stroke-linejoin: miter; stroke-linecap: square"/>
   </g>
   <g id="patch_15">
    <path d="M 267.9475 298.758281 
L 825.9475 298.758281 
" style="fill: none; stroke: #000000; stroke-width: 0.8; stroke-linejoin: miter; stroke-linecap: square"/>
   </g>
   <g id="text_15">
    <!-- H4 balance: Australian DAEN-only signals FAERS does not detect -->
    <g transform="translate(267.9475 15.558281) scale(0.11 -0.11)">
     <defs>
      <path id="DejaVuSans-Bold-34" d="M 2356 3675 
L 1038 1722 
L 2356 1722 
L 2356 3675 
z
M 2156 4666 
L 3494 4666 
L 3494 1722 
L 4159 1722 
L 4159 850 
L 3494 850 
L 3494 0 
L 2356 0 
L 2356 850 
L 288 850 
L 288 1881 
L 2156 4666 
z
" transform="scale(0.015625)"/>
      <path id="DejaVuSans-Bold-3a" d="M 716 3500 
L 1844 3500 
L 1844 2291 
L 716 2291 
L 716 3500 
z
M 716 1209 
L 1844 1209 
L 1844 0 
L 716 0 
L 716 1209 
z
" transform="scale(0.015625)"/>
      <path id="DejaVuSans-Bold-53" d="M 3834 4519 
L 3834 3531 
Q 3450 3703 3084 3790 
Q 2719 3878 2394 3878 
Q 1963 3878 1756 3759 
Q 1550 3641 1550 3391 
Q 1550 3203 1689 3098 
Q 1828 2994 2194 2919 
L 2706 2816 
Q 3484 2659 3812 2340 
Q 4141 2022 4141 1434 
Q 4141 663 3683 286 
Q 3225 -91 2284 -91 
Q 1841 -91 1394 -6 
Q 947 78 500 244 
L 500 1259 
Q 947 1022 1364 901 
Q 1781 781 2169 781 
Q 2563 781 2772 912 
Q 2981 1044 2981 1288 
Q 2981 1506 2839 1625 
Q 2697 1744 2272 1838 
L 1806 1941 
Q 1106 2091 782 2419 
Q 459 2747 459 3303 
Q 459 4000 909 4375 
Q 1359 4750 2203 4750 
Q 2588 4750 2994 4692 
Q 3400 4634 3834 4519 
z
" transform="scale(0.015625)"/>
     </defs>
     <use xlink:href="#DejaVuSans-Bold-48"/>
     <use xlink:href="#DejaVuSans-Bold-34" transform="translate(83.691406 0)"/>
     <use xlink:href="#DejaVuSans-Bold-20" transform="translate(153.271484 0)"/>
     <use xlink:href="#DejaVuSans-Bold-62" transform="translate(188.085938 0)"/>
     <use xlink:href="#DejaVuSans-Bold-61" transform="translate(259.667969 0)"/>
     <use xlink:href="#DejaVuSans-Bold-6c" transform="translate(327.148438 0)"/>
     <use xlink:href="#DejaVuSans-Bold-61" transform="translate(361.425781 0)"/>
     <use xlink:href="#DejaVuSans-Bold-6e" transform="translate(428.90625 0)"/>
     <use xlink:href="#DejaVuSans-Bold-63" transform="translate(500.097656 0)"/>
     <use xlink:href="#DejaVuSans-Bold-65" transform="translate(559.375 0)"/>
     <use xlink:href="#DejaVuSans-Bold-3a" transform="translate(627.197266 0)"/>
     <use xlink:href="#DejaVuSans-Bold-20" transform="translate(667.1875 0)"/>
     <use xlink:href="#DejaVuSans-Bold-41" transform="translate(702.001953 0)"/>
     <use xlink:href="#DejaVuSans-Bold-75" transform="translate(779.394531 0)"/>
     <use xlink:href="#DejaVuSans-Bold-73" transform="translate(850.585938 0)"/>
     <use xlink:href="#DejaVuSans-Bold-74" transform="translate(910.107422 0)"/>
     <use xlink:href="#DejaVuSans-Bold-72" transform="translate(957.910156 0)"/>
     <use xlink:href="#DejaVuSans-Bold-61" transform="translate(1007.226562 0)"/>
     <use xlink:href="#DejaVuSans-Bold-6c" transform="translate(1074.707031 0)"/>
     <use xlink:href="#DejaVuSans-Bold-69" transform="translate(1108.984375 0)"/>
     <use xlink:href="#DejaVuSans-Bold-61" transform="translate(1143.261719 0)"/>
     <use xlink:href="#DejaVuSans-Bold-6e" transform="translate(1210.742188 0)"/>
     <use xlink:href="#DejaVuSans-Bold-20" transform="translate(1281.933594 0)"/>
     <use xlink:href="#DejaVuSans-Bold-44" transform="translate(1316.748047 0)"/>
     <use xlink:href="#DejaVuSans-Bold-41" transform="translate(1399.755859 0)"/>
     <use xlink:href="#DejaVuSans-Bold-45" transform="translate(1477.148438 0)"/>
     <use xlink:href="#DejaVuSans-Bold-4e" transform="translate(1545.458984 0)"/>
     <use xlink:href="#DejaVuSans-Bold-2d" transform="translate(1629.150391 0)"/>
     <use xlink:href="#DejaVuSans-Bold-6f" transform="translate(1670.654297 0)"/>
     <use xlink:href="#DejaVuSans-Bold-6e" transform="translate(1739.355469 0)"/>
     <use xlink:href="#DejaVuSans-Bold-6c" transform="translate(1810.546875 0)"/>
     <use xlink:href="#DejaVuSans-Bold-79" transform="translate(1844.824219 0)"/>
     <use xlink:href="#DejaVuSans-Bold-20" transform="translate(1910.009766 0)"/>
     <use xlink:href="#DejaVuSans-Bold-73" transform="translate(1944.824219 0)"/>
     <use xlink:href="#DejaVuSans-Bold-69" transform="translate(2004.345703 0)"/>
     <use xlink:href="#DejaVuSans-Bold-67" transform="translate(2038.623047 0)"/>
     <use xlink:href="#DejaVuSans-Bold-6e" transform="translate(2110.205078 0)"/>
     <use xlink:href="#DejaVuSans-Bold-61" transform="translate(2181.396484 0)"/>
     <use xlink:href="#DejaVuSans-Bold-6c" transform="translate(2248.876953 0)"/>
     <use xlink:href="#DejaVuSans-Bold-73" transform="translate(2283.154297 0)"/>
     <use xlink:href="#DejaVuSans-Bold-20" transform="translate(2342.675781 0)"/>
     <use xlink:href="#DejaVuSans-Bold-46" transform="translate(2377.490234 0)"/>
     <use xlink:href="#DejaVuSans-Bold-41" transform="translate(2434.300781 0)"/>
     <use xlink:href="#DejaVuSans-Bold-45" transform="translate(2511.693359 0)"/>
     <use xlink:href="#DejaVuSans-Bold-52" transform="translate(2580.003906 0)"/>
     <use xlink:href="#DejaVuSans-Bold-53" transform="translate(2657.005859 0)"/>
     <use xlink:href="#DejaVuSans-Bold-20" transform="translate(2729.027344 0)"/>
     <use xlink:href="#DejaVuSans-Bold-64" transform="translate(2763.841797 0)"/>
     <use xlink:href="#DejaVuSans-Bold-6f" transform="translate(2835.423828 0)"/>
     <use xlink:href="#DejaVuSans-Bold-65" transform="translate(2904.125 0)"/>
     <use xlink:href="#DejaVuSans-Bold-73" transform="translate(2971.947266 0)"/>
     <use xlink:href="#DejaVuSans-Bold-20" transform="translate(3031.46875 0)"/>
     <use xlink:href="#DejaVuSans-Bold-6e" transform="translate(3066.283203 0)"/>
     <use xlink:href="#DejaVuSans-Bold-6f" transform="translate(3137.474609 0)"/>
     <use xlink:href="#DejaVuSans-Bold-74" transform="translate(3206.175781 0)"/>
     <use xlink:href="#DejaVuSans-Bold-20" transform="translate(3253.978516 0)"/>
     <use xlink:href="#DejaVuSans-Bold-64" transform="translate(3288.792969 0)"/>
     <use xlink:href="#DejaVuSans-Bold-65" transform="translate(3360.375 0)"/>
     <use xlink:href="#DejaVuSans-Bold-74" transform="translate(3428.197266 0)"/>
     <use xlink:href="#DejaVuSans-Bold-65" transform="translate(3476 0)"/>
     <use xlink:href="#DejaVuSans-Bold-63" transform="translate(3543.822266 0)"/>
     <use xlink:href="#DejaVuSans-Bold-74" transform="translate(3603.099609 0)"/>
    </g>
   </g>
   <g id="legend_1">
    <g id="patch_16">
     <path d="M 675.2 294.758281 
L 820.3475 294.758281 
Q 821.9475 294.758281 821.9475 293.158281 
L 821.9475 270.410781 
Q 821.9475 268.810781 820.3475 268.810781 
L 675.2 268.810781 
Q 673.6 268.810781 673.6 270.410781 
L 673.6 293.158281 
Q 673.6 294.758281 675.2 294.758281 
z
" style="fill: #ffffff; opacity: 0.8; stroke: #cccccc; stroke-linejoin: miter"/>
    </g>
    <g id="patch_17">
     <path d="M 676.8 278.089531 
L 692.8 278.089531 
L 692.8 272.489531 
L 676.8 272.489531 
z
" style="fill: #2c5f2c; stroke: #2c5f2c; stroke-linejoin: miter"/>
    </g>
    <g id="text_16">
     <!-- Known-positive reference -->
     <g transform="translate(699.2 278.089531) scale(0.08 -0.08)">
      <defs>
       <path id="DejaVuSans-Bold-4b" d="M 588 4666 
L 1791 4666 
L 1791 2963 
L 3525 4666 
L 4922 4666 
L 2675 2456 
L 5153 0 
L 3647 0 
L 1791 1838 
L 1791 0 
L 588 0 
L 588 4666 
z
" transform="scale(0.015625)"/>
       <path id="DejaVuSans-Bold-77" d="M 225 3500 
L 1313 3500 
L 1900 1088 
L 2491 3500 
L 3425 3500 
L 4013 1113 
L 4603 3500 
L 5691 3500 
L 4769 0 
L 3547 0 
L 2956 2406 
L 2369 0 
L 1147 0 
L 225 3500 
z
" transform="scale(0.015625)"/>
      </defs>
      <use xlink:href="#DejaVuSans-Bold-4b"/>
      <use xlink:href="#DejaVuSans-Bold-6e" transform="translate(77.490234 0)"/>
      <use xlink:href="#DejaVuSans-Bold-6f" transform="translate(148.681641 0)"/>
      <use xlink:href="#DejaVuSans-Bold-77" transform="translate(217.382812 0)"/>
      <use xlink:href="#DejaVuSans-Bold-6e" transform="translate(309.765625 0)"/>
      <use xlink:href="#DejaVuSans-Bold-2d" transform="translate(380.957031 0)"/>
      <use xlink:href="#DejaVuSans-Bold-70" transform="translate(422.460938 0)"/>
      <use xlink:href="#DejaVuSans-Bold-6f" transform="translate(494.042969 0)"/>
      <use xlink:href="#DejaVuSans-Bold-73" transform="translate(562.744141 0)"/>
      <use xlink:href="#DejaVuSans-Bold-69" transform="translate(622.265625 0)"/>
      <use xlink:href="#DejaVuSans-Bold-74" transform="translate(656.542969 0)"/>
      <use xlink:href="#DejaVuSans-Bold-69" transform="translate(704.345703 0)"/>
      <use xlink:href="#DejaVuSans-Bold-76" transform="translate(738.623047 0)"/>
      <use xlink:href="#DejaVuSans-Bold-65" transform="translate(803.808594 0)"/>
      <use xlink:href="#DejaVuSans-Bold-20" transform="translate(871.630859 0)"/>
      <use xlink:href="#DejaVuSans-Bold-72" transform="translate(906.445312 0)"/>
      <use xlink:href="#DejaVuSans-Bold-65" transform="translate(955.761719 0)"/>
      <use xlink:href="#DejaVuSans-Bold-66" transform="translate(1023.583984 0)"/>
      <use xlink:href="#DejaVuSans-Bold-65" transform="translate(1067.089844 0)"/>
      <use xlink:href="#DejaVuSans-Bold-72" transform="translate(1134.912109 0)"/>
      <use xlink:href="#DejaVuSans-Bold-65" transform="translate(1184.228516 0)"/>
      <use xlink:href="#DejaVuSans-Bold-6e" transform="translate(1252.050781 0)"/>
      <use xlink:href="#DejaVuSans-Bold-63" transform="translate(1323.242188 0)"/>
      <use xlink:href="#DejaVuSans-Bold-65" transform="translate(1382.519531 0)"/>
     </g>
    </g>
    <g id="patch_18">
     <path d="M 676.8 289.832031 
L 692.8 289.832031 
L 692.8 284.232031 
L 676.8 284.232031 
z
" style="fill: #c0392b; stroke: #c0392b; stroke-linejoin: miter"/>
    </g>
    <g id="text_17">
     <!-- Known-negative reference -->
     <g transform="translate(699.2 289.832031) scale(0.08 -0.08)">
      <use xlink:href="#DejaVuSans-Bold-4b"/>
      <use xlink:href="#DejaVuSans-Bold-6e" transform="translate(77.490234 0)"/>
      <use xlink:href="#DejaVuSans-Bold-6f" transform="translate(148.681641 0)"/>
      <use xlink:href="#DejaVuSans-Bold-77" transform="translate(217.382812 0)"/>
      <use xlink:href="#DejaVuSans-Bold-6e" transform="translate(309.765625 0)"/>
      <use xlink:href="#DejaVuSans-Bold-2d" transform="translate(380.957031 0)"/>
      <use xlink:href="#DejaVuSans-Bold-6e" transform="translate(422.460938 0)"/>
      <use xlink:href="#DejaVuSans-Bold-65" transform="translate(493.652344 0)"/>
      <use xlink:href="#DejaVuSans-Bold-67" transform="translate(561.474609 0)"/>
      <use xlink:href="#DejaVuSans-Bold-61" transform="translate(633.056641 0)"/>
      <use xlink:href="#DejaVuSans-Bold-74" transform="translate(700.537109 0)"/>
      <use xlink:href="#DejaVuSans-Bold-69" transform="translate(748.339844 0)"/>
      <use xlink:href="#DejaVuSans-Bold-76" transform="translate(782.617188 0)"/>
      <use xlink:href="#DejaVuSans-Bold-65" transform="translate(847.802734 0)"/>
      <use xlink:href="#DejaVuSans-Bold-20" transform="translate(915.625 0)"/>
      <use xlink:href="#DejaVuSans-Bold-72" transform="translate(950.439453 0)"/>
      <use xlink:href="#DejaVuSans-Bold-65" transform="translate(999.755859 0)"/>
      <use xlink:href="#DejaVuSans-Bold-66" transform="translate(1067.578125 0)"/>
      <use xlink:href="#DejaVuSans-Bold-65" transform="translate(1111.083984 0)"/>
      <use xlink:href="#DejaVuSans-Bold-72" transform="translate(1178.90625 0)"/>
      <use xlink:href="#DejaVuSans-Bold-65" transform="translate(1228.222656 0)"/>
      <use xlink:href="#DejaVuSans-Bold-6e" transform="translate(1296.044922 0)"/>
      <use xlink:href="#DejaVuSans-Bold-63" transform="translate(1367.236328 0)"/>
      <use xlink:href="#DejaVuSans-Bold-65" transform="translate(1426.513672 0)"/>
     </g>
    </g>
   </g>
  </g>
 </g>
 <defs>
  <clipPath id="p42605f4b43">
   <rect x="267.9475" y="21.558281" width="558" height="277.2"/>
  </clipPath>
 </defs>
</svg>
