<?xml version="1.0" encoding="utf-8" standalone="no"?>
<!DOCTYPE svg PUBLIC "-//W3C//DTD SVG 1.1//EN"
  "http://www.w3.org/Graphics/SVG/1.1/DTD/svg11.dtd">
<svg xmlns:xlink="http://www.w3.org/1999/xlink" width="397.19952pt" height="281.99952pt" viewBox="0 0 397.19952 281.99952" xmlns="http://www.w3.org/2000/svg" version="1.1">
 <metadata>
  <rdf:RDF xmlns:dc="http://purl.org/dc/elements/1.1/" xmlns:cc="http://creativecommons.org/ns#" xmlns:rdf="http://www.w3.org/1999/02/22-rdf-syntax-ns#">
   <cc:Work>
    <dc:type rdf:resource="http://purl.org/dc/dcmitype/StillImage"/>
    <dc:date>2026-06-10T03:59:20.462566</dc:date>
    <dc:format>image/svg+xml</dc:format>
    <dc:creator>
     <cc:Agent>
      <dc:title>Matplotlib v3.10.8, https://matplotlib.org/</dc:title>
     </cc:Agent>
    </dc:creator>
   </cc:Work>
  </rdf:RDF>
 </metadata>
 <defs>
  <style type="text/css">*{stroke-linejoin: round; stroke-linecap: butt}</style>
 </defs>
 <g id="figure_1">
  <g id="patch_1">
   <path d="M 0 281.99952 
L 397.19952 281.99952 
L 397.19952 0 
L 0 0 
z
" style="fill: #ffffff"/>
  </g>
  <g id="axes_1">
   <g id="patch_2">
    <path d="M 41.151875 247.276395 
L 389.99952 247.276395 
L 389.99952 20.798437 
L 41.151875 20.798437 
z
" style="fill: #ffffff"/>
   </g>
   <g id="matplotlib.axis_1">
    <g id="xtick_1">
     <g id="line2d_1">
      <defs>
       <path id="m72a758212b" d="M 0 0 
L 0 3.5 
" style="stroke: #000000; stroke-width: 0.8"/>
      </defs>
      <g>
       <use xlink:href="#m72a758212b" x="57.008586" y="247.276395" style="stroke: #000000; stroke-width: 0.8"/>
      </g>
     </g>
     <g id="text_1">
      <!-- 1.5 -->
      <g transform="translate(49.922961 260.355145) scale(0.08 -0.08)">
       <defs>
        <path id="DejaVuSans-Bold-31" d="M 750 831 
L 1813 831 
L 1813 3847 
L 722 3622 
L 722 4441 
L 1806 4666 
L 2950 4666 
L 2950 831 
L 4013 831 
L 4013 0 
L 750 0 
L 750 831 
z
" transform="scale(0.015625)"/>
        <path id="DejaVuSans-Bold-2e" d="M 653 1209 
L 1778 1209 
L 1778 0 
L 653 0 
L 653 1209 
z
" transform="scale(0.015625)"/>
        <path id="DejaVuSans-Bold-35" d="M 678 4666 
L 3669 4666 
L 3669 3781 
L 1638 3781 
L 1638 3059 
Q 1775 3097 1914 3117 
Q 2053 3138 2203 3138 
Q 3056 3138 3531 2711 
Q 4006 2284 4006 1522 
Q 4006 766 3489 337 
Q 2972 -91 2053 -91 
Q 1656 -91 1267 -14 
Q 878 63 494 219 
L 494 1166 
Q 875 947 1217 837 
Q 1559 728 1863 728 
Q 2300 728 2551 942 
Q 2803 1156 2803 1522 
Q 2803 1891 2551 2103 
Q 2300 2316 1863 2316 
Q 1603 2316 1309 2248 
Q 1016 2181 678 2041 
L 678 4666 
z
" transform="scale(0.015625)"/>
       </defs>
       <use xlink:href="#DejaVuSans-Bold-31"/>
       <use xlink:href="#DejaVuSans-Bold-2e" transform="translate(69.580078 0)"/>
       <use xlink:href="#DejaVuSans-Bold-35" transform="translate(107.568359 0)"/>
      </g>
     </g>
    </g>
    <g id="xtick_2">
     <g id="line2d_2">
      <g>
       <use xlink:href="#m72a758212b" x="102.313475" y="247.276395" style="stroke: #000000; stroke-width: 0.8"/>
      </g>
     </g>
     <g id="text_2">
      <!-- 2.0 -->
      <g transform="translate(95.22785 260.355145) scale(0.08 -0.08)">
       <defs>
        <path id="DejaVuSans-Bold-32" d="M 1844 884 
L 3897 884 
L 3897 0 
L 506 0 
L 506 884 
L 2209 2388 
Q 2438 2594 2547 2791 
Q 2656 2988 2656 3200 
Q 2656 3528 2436 3728 
Q 2216 3928 1850 3928 
Q 1569 3928 1234 3808 
Q 900 3688 519 3450 
L 519 4475 
Q 925 4609 1322 4679 
Q 1719 4750 2100 4750 
Q 2938 4750 3402 4381 
Q 3866 4013 3866 3353 
Q 3866 2972 3669 2642 
Q 3472 2313 2841 1759 
L 1844 884 
z
" transform="scale(0.015625)"/>
        <path id="DejaVuSans-Bold-30" d="M 2944 2338 
Q 2944 3213 2780 3570 
Q 2616 3928 2228 3928 
Q 1841 3928 1675 3570 
Q 1509 3213 1509 2338 
Q 1509 1453 1675 1090 
Q 1841 728 2228 728 
Q 2613 728 2778 1090 
Q 2944 1453 2944 2338 
z
M 4147 2328 
Q 4147 1169 3647 539 
Q 3147 -91 2228 -91 
Q 1306 -91 806 539 
Q 306 1169 306 2328 
Q 306 3491 806 4120 
Q 1306 4750 2228 4750 
Q 3147 4750 3647 4120 
Q 4147 3491 4147 2328 
z
" transform="scale(0.015625)"/>
       </defs>
       <use xlink:href="#DejaVuSans-Bold-32"/>
       <use xlink:href="#DejaVuSans-Bold-2e" transform="translate(69.580078 0)"/>
       <use xlink:href="#DejaVuSans-Bold-30" transform="translate(107.568359 0)"/>
      </g>
     </g>
    </g>
    <g id="xtick_3">
     <g id="line2d_3">
      <g>
       <use xlink:href="#m72a758212b" x="147.618364" y="247.276395" style="stroke: #000000; stroke-width: 0.8"/>
      </g>
     </g>
     <g id="text_3">
      <!-- 2.5 -->
      <g transform="translate(140.532739 260.355145) scale(0.08 -0.08)">
       <use xlink:href="#DejaVuSans-Bold-32"/>
       <use xlink:href="#DejaVuSans-Bold-2e" transform="translate(69.580078 0)"/>
       <use xlink:href="#DejaVuSans-Bold-35" transform="translate(107.568359 0)"/>
      </g>
     </g>
    </g>
    <g id="xtick_4">
     <g id="line2d_4">
      <g>
       <use xlink:href="#m72a758212b" x="192.923253" y="247.276395" style="stroke: #000000; stroke-width: 0.8"/>
      </g>
     </g>
     <g id="text_4">
      <!-- 3.0 -->
      <g transform="translate(185.837628 260.355145) scale(0.08 -0.08)">
       <defs>
        <path id="DejaVuSans-Bold-33" d="M 2981 2516 
Q 3453 2394 3698 2092 
Q 3944 1791 3944 1325 
Q 3944 631 3412 270 
Q 2881 -91 1863 -91 
Q 1503 -91 1142 -33 
Q 781 25 428 141 
L 428 1069 
Q 766 900 1098 814 
Q 1431 728 1753 728 
Q 2231 728 2486 893 
Q 2741 1059 2741 1369 
Q 2741 1688 2480 1852 
Q 2219 2016 1709 2016 
L 1228 2016 
L 1228 2791 
L 1734 2791 
Q 2188 2791 2409 2933 
Q 2631 3075 2631 3366 
Q 2631 3634 2415 3781 
Q 2200 3928 1806 3928 
Q 1516 3928 1219 3862 
Q 922 3797 628 3669 
L 628 4550 
Q 984 4650 1334 4700 
Q 1684 4750 2022 4750 
Q 2931 4750 3382 4451 
Q 3834 4153 3834 3553 
Q 3834 3144 3618 2883 
Q 3403 2622 2981 2516 
z
" transform="scale(0.015625)"/>
       </defs>
       <use xlink:href="#DejaVuSans-Bold-33"/>
       <use xlink:href="#DejaVuSans-Bold-2e" transform="translate(69.580078 0)"/>
       <use xlink:href="#DejaVuSans-Bold-30" transform="translate(107.568359 0)"/>
      </g>
     </g>
    </g>
    <g id="xtick_5">
     <g id="line2d_5">
      <g>
       <use xlink:href="#m72a758212b" x="238.228142" y="247.276395" style="stroke: #000000; stroke-width: 0.8"/>
      </g>
     </g>
     <g id="text_5">
      <!-- 3.5 -->
      <g transform="translate(231.142517 260.355145) scale(0.08 -0.08)">
       <use xlink:href="#DejaVuSans-Bold-33"/>
       <use xlink:href="#DejaVuSans-Bold-2e" transform="translate(69.580078 0)"/>
       <use xlink:href="#DejaVuSans-Bold-35" transform="translate(107.568359 0)"/>
      </g>
     </g>
    </g>
    <g id="xtick_6">
     <g id="line2d_6">
      <g>
       <use xlink:href="#m72a758212b" x="283.533031" y="247.276395" style="stroke: #000000; stroke-width: 0.8"/>
      </g>
     </g>
     <g id="text_6">
      <!-- 4.0 -->
      <g transform="translate(276.447406 260.355145) scale(0.08 -0.08)">
       <defs>
        <path id="DejaVuSans-Bold-34" d="M 2356 3675 
L 1038 1722 
L 2356 1722 
L 2356 3675 
z
M 2156 4666 
L 3494 4666 
L 3494 1722 
L 4159 1722 
L 4159 850 
L 3494 850 
L 3494 0 
L 2356 0 
L 2356 850 
L 288 850 
L 288 1881 
L 2156 4666 
z
" transform="scale(0.015625)"/>
       </defs>
       <use xlink:href="#DejaVuSans-Bold-34"/>
       <use xlink:href="#DejaVuSans-Bold-2e" transform="translate(69.580078 0)"/>
       <use xlink:href="#DejaVuSans-Bold-30" transform="translate(107.568359 0)"/>
      </g>
     </g>
    </g>
    <g id="xtick_7">
     <g id="line2d_7">
      <g>
       <use xlink:href="#m72a758212b" x="328.83792" y="247.276395" style="stroke: #000000; stroke-width: 0.8"/>
      </g>
     </g>
     <g id="text_7">
      <!-- 4.5 -->
      <g transform="translate(321.752295 260.355145) scale(0.08 -0.08)">
       <use xlink:href="#DejaVuSans-Bold-34"/>
       <use xlink:href="#DejaVuSans-Bold-2e" transform="translate(69.580078 0)"/>
       <use xlink:href="#DejaVuSans-Bold-35" transform="translate(107.568359 0)"/>
      </g>
     </g>
    </g>
    <g id="xtick_8">
     <g id="line2d_8">
      <g>
       <use xlink:href="#m72a758212b" x="374.142809" y="247.276395" style="stroke: #000000; stroke-width: 0.8"/>
      </g>
     </g>
     <g id="text_8">
      <!-- 5.0 -->
      <g transform="translate(367.057184 260.355145) scale(0.08 -0.08)">
       <use xlink:href="#DejaVuSans-Bold-35"/>
       <use xlink:href="#DejaVuSans-Bold-2e" transform="translate(69.580078 0)"/>
       <use xlink:href="#DejaVuSans-Bold-30" transform="translate(107.568359 0)"/>
      </g>
     </g>
    </g>
    <g id="text_9">
     <!-- true enrichment OR (artefact concentration in FAERS-only) -->
     <g transform="translate(66.405619 272.857489) scale(0.09 -0.09)">
      <defs>
       <path id="DejaVuSans-Bold-74" d="M 1759 4494 
L 1759 3500 
L 2913 3500 
L 2913 2700 
L 1759 2700 
L 1759 1216 
Q 1759 972 1856 886 
Q 1953 800 2241 800 
L 2816 800 
L 2816 0 
L 1856 0 
Q 1194 0 917 276 
Q 641 553 641 1216 
L 641 2700 
L 84 2700 
L 84 3500 
L 641 3500 
L 641 4494 
L 1759 4494 
z
" transform="scale(0.015625)"/>
       <path id="DejaVuSans-Bold-72" d="M 3138 2547 
Q 2991 2616 2845 2648 
Q 2700 2681 2553 2681 
Q 2122 2681 1889 2404 
Q 1656 2128 1656 1613 
L 1656 0 
L 538 0 
L 538 3500 
L 1656 3500 
L 1656 2925 
Q 1872 3269 2151 3426 
Q 2431 3584 2822 3584 
Q 2878 3584 2943 3579 
Q 3009 3575 3134 3559 
L 3138 2547 
z
" transform="scale(0.015625)"/>
       <path id="DejaVuSans-Bold-75" d="M 500 1363 
L 500 3500 
L 1625 3500 
L 1625 3150 
Q 1625 2866 1622 2436 
Q 1619 2006 1619 1863 
Q 1619 1441 1641 1255 
Q 1663 1069 1716 984 
Q 1784 875 1895 815 
Q 2006 756 2150 756 
Q 2500 756 2700 1025 
Q 2900 1294 2900 1772 
L 2900 3500 
L 4019 3500 
L 4019 0 
L 2900 0 
L 2900 506 
Q 2647 200 2364 54 
Q 2081 -91 1741 -91 
Q 1134 -91 817 281 
Q 500 653 500 1363 
z
" transform="scale(0.015625)"/>
       <path id="DejaVuSans-Bold-65" d="M 4031 1759 
L 4031 1441 
L 1416 1441 
Q 1456 1047 1700 850 
Q 1944 653 2381 653 
Q 2734 653 3104 758 
Q 3475 863 3866 1075 
L 3866 213 
Q 3469 63 3072 -14 
Q 2675 -91 2278 -91 
Q 1328 -91 801 392 
Q 275 875 275 1747 
Q 275 2603 792 3093 
Q 1309 3584 2216 3584 
Q 3041 3584 3536 3087 
Q 4031 2591 4031 1759 
z
M 2881 2131 
Q 2881 2450 2695 2645 
Q 2509 2841 2209 2841 
Q 1884 2841 1681 2658 
Q 1478 2475 1428 2131 
L 2881 2131 
z
" transform="scale(0.015625)"/>
       <path id="DejaVuSans-Bold-20" transform="scale(0.015625)"/>
       <path id="DejaVuSans-Bold-6e" d="M 4056 2131 
L 4056 0 
L 2931 0 
L 2931 347 
L 2931 1631 
Q 2931 2084 2911 2256 
Q 2891 2428 2841 2509 
Q 2775 2619 2662 2680 
Q 2550 2741 2406 2741 
Q 2056 2741 1856 2470 
Q 1656 2200 1656 1722 
L 1656 0 
L 538 0 
L 538 3500 
L 1656 3500 
L 1656 2988 
Q 1909 3294 2193 3439 
Q 2478 3584 2822 3584 
Q 3428 3584 3742 3212 
Q 4056 2841 4056 2131 
z
" transform="scale(0.015625)"/>
       <path id="DejaVuSans-Bold-69" d="M 538 3500 
L 1656 3500 
L 1656 0 
L 538 0 
L 538 3500 
z
M 538 4863 
L 1656 4863 
L 1656 3950 
L 538 3950 
L 538 4863 
z
" transform="scale(0.015625)"/>
       <path id="DejaVuSans-Bold-63" d="M 3366 3391 
L 3366 2478 
Q 3138 2634 2908 2709 
Q 2678 2784 2431 2784 
Q 1963 2784 1702 2511 
Q 1441 2238 1441 1747 
Q 1441 1256 1702 982 
Q 1963 709 2431 709 
Q 2694 709 2930 787 
Q 3166 866 3366 1019 
L 3366 103 
Q 3103 6 2833 -42 
Q 2563 -91 2291 -91 
Q 1344 -91 809 395 
Q 275 881 275 1747 
Q 275 2613 809 3098 
Q 1344 3584 2291 3584 
Q 2566 3584 2833 3536 
Q 3100 3488 3366 3391 
z
" transform="scale(0.015625)"/>
       <path id="DejaVuSans-Bold-68" d="M 4056 2131 
L 4056 0 
L 2931 0 
L 2931 347 
L 2931 1625 
Q 2931 2084 2911 2256 
Q 2891 2428 2841 2509 
Q 2775 2619 2662 2680 
Q 2550 2741 2406 2741 
Q 2056 2741 1856 2470 
Q 1656 2200 1656 1722 
L 1656 0 
L 538 0 
L 538 4863 
L 1656 4863 
L 1656 2988 
Q 1909 3294 2193 3439 
Q 2478 3584 2822 3584 
Q 3428 3584 3742 3212 
Q 4056 2841 4056 2131 
z
" transform="scale(0.015625)"/>
       <path id="DejaVuSans-Bold-6d" d="M 3781 2919 
Q 3994 3244 4286 3414 
Q 4578 3584 4928 3584 
Q 5531 3584 5847 3212 
Q 6163 2841 6163 2131 
L 6163 0 
L 5038 0 
L 5038 1825 
Q 5041 1866 5042 1909 
Q 5044 1953 5044 2034 
Q 5044 2406 4934 2573 
Q 4825 2741 4581 2741 
Q 4263 2741 4089 2478 
Q 3916 2216 3909 1719 
L 3909 0 
L 2784 0 
L 2784 1825 
Q 2784 2406 2684 2573 
Q 2584 2741 2328 2741 
Q 2006 2741 1831 2477 
Q 1656 2213 1656 1722 
L 1656 0 
L 531 0 
L 531 3500 
L 1656 3500 
L 1656 2988 
Q 1863 3284 2130 3434 
Q 2397 3584 2719 3584 
Q 3081 3584 3359 3409 
Q 3638 3234 3781 2919 
z
" transform="scale(0.015625)"/>
       <path id="DejaVuSans-Bold-4f" d="M 2719 3878 
Q 2169 3878 1866 3472 
Q 1563 3066 1563 2328 
Q 1563 1594 1866 1187 
Q 2169 781 2719 781 
Q 3272 781 3575 1187 
Q 3878 1594 3878 2328 
Q 3878 3066 3575 3472 
Q 3272 3878 2719 3878 
z
M 2719 4750 
Q 3844 4750 4481 4106 
Q 5119 3463 5119 2328 
Q 5119 1197 4481 553 
Q 3844 -91 2719 -91 
Q 1597 -91 958 553 
Q 319 1197 319 2328 
Q 319 3463 958 4106 
Q 1597 4750 2719 4750 
z
" transform="scale(0.015625)"/>
       <path id="DejaVuSans-Bold-52" d="M 2297 2597 
Q 2675 2597 2839 2737 
Q 3003 2878 3003 3200 
Q 3003 3519 2839 3656 
Q 2675 3794 2297 3794 
L 1791 3794 
L 1791 2597 
L 2297 2597 
z
M 1791 1766 
L 1791 0 
L 588 0 
L 588 4666 
L 2425 4666 
Q 3347 4666 3776 4356 
Q 4206 4047 4206 3378 
Q 4206 2916 3982 2619 
Q 3759 2322 3309 2181 
Q 3556 2125 3751 1926 
Q 3947 1728 4147 1325 
L 4800 0 
L 3519 0 
L 2950 1159 
Q 2778 1509 2601 1637 
Q 2425 1766 2131 1766 
L 1791 1766 
z
" transform="scale(0.015625)"/>
       <path id="DejaVuSans-Bold-28" d="M 2413 -844 
L 1484 -844 
Q 1006 -72 778 623 
Q 550 1319 550 2003 
Q 550 2688 779 3389 
Q 1009 4091 1484 4856 
L 2413 4856 
Q 2013 4116 1813 3408 
Q 1613 2700 1613 2009 
Q 1613 1319 1811 609 
Q 2009 -100 2413 -844 
z
" transform="scale(0.015625)"/>
       <path id="DejaVuSans-Bold-61" d="M 2106 1575 
Q 1756 1575 1579 1456 
Q 1403 1338 1403 1106 
Q 1403 894 1545 773 
Q 1688 653 1941 653 
Q 2256 653 2472 879 
Q 2688 1106 2688 1447 
L 2688 1575 
L 2106 1575 
z
M 3816 1997 
L 3816 0 
L 2688 0 
L 2688 519 
Q 2463 200 2181 54 
Q 1900 -91 1497 -91 
Q 953 -91 614 226 
Q 275 544 275 1050 
Q 275 1666 698 1953 
Q 1122 2241 2028 2241 
L 2688 2241 
L 2688 2328 
Q 2688 2594 2478 2717 
Q 2269 2841 1825 2841 
Q 1466 2841 1156 2769 
Q 847 2697 581 2553 
L 581 3406 
Q 941 3494 1303 3539 
Q 1666 3584 2028 3584 
Q 2975 3584 3395 3211 
Q 3816 2838 3816 1997 
z
" transform="scale(0.015625)"/>
       <path id="DejaVuSans-Bold-66" d="M 2841 4863 
L 2841 4128 
L 2222 4128 
Q 1984 4128 1890 4042 
Q 1797 3956 1797 3744 
L 1797 3500 
L 2753 3500 
L 2753 2700 
L 1797 2700 
L 1797 0 
L 678 0 
L 678 2700 
L 122 2700 
L 122 3500 
L 678 3500 
L 678 3744 
Q 678 4316 997 4589 
Q 1316 4863 1984 4863 
L 2841 4863 
z
" transform="scale(0.015625)"/>
       <path id="DejaVuSans-Bold-6f" d="M 2203 2784 
Q 1831 2784 1636 2517 
Q 1441 2250 1441 1747 
Q 1441 1244 1636 976 
Q 1831 709 2203 709 
Q 2569 709 2762 976 
Q 2956 1244 2956 1747 
Q 2956 2250 2762 2517 
Q 2569 2784 2203 2784 
z
M 2203 3584 
Q 3106 3584 3614 3096 
Q 4122 2609 4122 1747 
Q 4122 884 3614 396 
Q 3106 -91 2203 -91 
Q 1297 -91 786 396 
Q 275 884 275 1747 
Q 275 2609 786 3096 
Q 1297 3584 2203 3584 
z
" transform="scale(0.015625)"/>
       <path id="DejaVuSans-Bold-46" d="M 588 4666 
L 3834 4666 
L 3834 3756 
L 1791 3756 
L 1791 2888 
L 3713 2888 
L 3713 1978 
L 1791 1978 
L 1791 0 
L 588 0 
L 588 4666 
z
" transform="scale(0.015625)"/>
       <path id="DejaVuSans-Bold-41" d="M 3419 850 
L 1538 850 
L 1241 0 
L 31 0 
L 1759 4666 
L 3194 4666 
L 4922 0 
L 3713 0 
L 3419 850 
z
M 1838 1716 
L 3116 1716 
L 2478 3572 
L 1838 1716 
z
" transform="scale(0.015625)"/>
       <path id="DejaVuSans-Bold-45" d="M 588 4666 
L 3834 4666 
L 3834 3756 
L 1791 3756 
L 1791 2888 
L 3713 2888 
L 3713 1978 
L 1791 1978 
L 1791 909 
L 3903 909 
L 3903 0 
L 588 0 
L 588 4666 
z
" transform="scale(0.015625)"/>
       <path id="DejaVuSans-Bold-53" d="M 3834 4519 
L 3834 3531 
Q 3450 3703 3084 3790 
Q 2719 3878 2394 3878 
Q 1963 3878 1756 3759 
Q 1550 3641 1550 3391 
Q 1550 3203 1689 3098 
Q 1828 2994 2194 2919 
L 2706 2816 
Q 3484 2659 3812 2340 
Q 4141 2022 4141 1434 
Q 4141 663 3683 286 
Q 3225 -91 2284 -91 
Q 1841 -91 1394 -6 
Q 947 78 500 244 
L 500 1259 
Q 947 1022 1364 901 
Q 1781 781 2169 781 
Q 2563 781 2772 912 
Q 2981 1044 2981 1288 
Q 2981 1506 2839 1625 
Q 2697 1744 2272 1838 
L 1806 1941 
Q 1106 2091 782 2419 
Q 459 2747 459 3303 
Q 459 4000 909 4375 
Q 1359 4750 2203 4750 
Q 2588 4750 2994 4692 
Q 3400 4634 3834 4519 
z
" transform="scale(0.015625)"/>
       <path id="DejaVuSans-Bold-2d" d="M 347 2297 
L 2309 2297 
L 2309 1388 
L 347 1388 
L 347 2297 
z
" transform="scale(0.015625)"/>
       <path id="DejaVuSans-Bold-6c" d="M 538 4863 
L 1656 4863 
L 1656 0 
L 538 0 
L 538 4863 
z
" transform="scale(0.015625)"/>
       <path id="DejaVuSans-Bold-79" d="M 78 3500 
L 1197 3500 
L 2138 1125 
L 2938 3500 
L 4056 3500 
L 2584 -331 
Q 2363 -916 2067 -1148 
Q 1772 -1381 1288 -1381 
L 641 -1381 
L 641 -647 
L 991 -647 
Q 1275 -647 1404 -556 
Q 1534 -466 1606 -231 
L 1638 -134 
L 78 3500 
z
" transform="scale(0.015625)"/>
       <path id="DejaVuSans-Bold-29" d="M 513 -844 
Q 913 -100 1113 609 
Q 1313 1319 1313 2009 
Q 1313 2700 1113 3408 
Q 913 4116 513 4856 
L 1441 4856 
Q 1916 4091 2145 3389 
Q 2375 2688 2375 2003 
Q 2375 1319 2147 623 
Q 1919 -72 1441 -844 
L 513 -844 
z
" transform="scale(0.015625)"/>
      </defs>
      <use xlink:href="#DejaVuSans-Bold-74"/>
      <use xlink:href="#DejaVuSans-Bold-72" transform="translate(47.802734 0)"/>
      <use xlink:href="#DejaVuSans-Bold-75" transform="translate(97.119141 0)"/>
      <use xlink:href="#DejaVuSans-Bold-65" transform="translate(168.310547 0)"/>
      <use xlink:href="#DejaVuSans-Bold-20" transform="translate(236.132812 0)"/>
      <use xlink:href="#DejaVuSans-Bold-65" transform="translate(270.947266 0)"/>
      <use xlink:href="#DejaVuSans-Bold-6e" transform="translate(338.769531 0)"/>
      <use xlink:href="#DejaVuSans-Bold-72" transform="translate(409.960938 0)"/>
      <use xlink:href="#DejaVuSans-Bold-69" transform="translate(459.277344 0)"/>
      <use xlink:href="#DejaVuSans-Bold-63" transform="translate(493.554688 0)"/>
      <use xlink:href="#DejaVuSans-Bold-68" transform="translate(552.832031 0)"/>
      <use xlink:href="#DejaVuSans-Bold-6d" transform="translate(624.023438 0)"/>
      <use xlink:href="#DejaVuSans-Bold-65" transform="translate(728.222656 0)"/>
      <use xlink:href="#DejaVuSans-Bold-6e" transform="translate(796.044922 0)"/>
      <use xlink:href="#DejaVuSans-Bold-74" transform="translate(867.236328 0)"/>
      <use xlink:href="#DejaVuSans-Bold-20" transform="translate(915.039062 0)"/>
      <use xlink:href="#DejaVuSans-Bold-4f" transform="translate(949.853516 0)"/>
      <use xlink:href="#DejaVuSans-Bold-52" transform="translate(1034.863281 0)"/>
      <use xlink:href="#DejaVuSans-Bold-20" transform="translate(1111.865234 0)"/>
      <use xlink:href="#DejaVuSans-Bold-28" transform="translate(1146.679688 0)"/>
      <use xlink:href="#DejaVuSans-Bold-61" transform="translate(1192.382812 0)"/>
      <use xlink:href="#DejaVuSans-Bold-72" transform="translate(1259.863281 0)"/>
      <use xlink:href="#DejaVuSans-Bold-74" transform="translate(1309.179688 0)"/>
      <use xlink:href="#DejaVuSans-Bold-65" transform="translate(1356.982422 0)"/>
      <use xlink:href="#DejaVuSans-Bold-66" transform="translate(1424.804688 0)"/>
      <use xlink:href="#DejaVuSans-Bold-61" transform="translate(1468.310547 0)"/>
      <use xlink:href="#DejaVuSans-Bold-63" transform="translate(1535.791016 0)"/>
      <use xlink:href="#DejaVuSans-Bold-74" transform="translate(1595.068359 0)"/>
      <use xlink:href="#DejaVuSans-Bold-20" transform="translate(1642.871094 0)"/>
      <use xlink:href="#DejaVuSans-Bold-63" transform="translate(1677.685547 0)"/>
      <use xlink:href="#DejaVuSans-Bold-6f" transform="translate(1736.962891 0)"/>
      <use xlink:href="#DejaVuSans-Bold-6e" transform="translate(1805.664062 0)"/>
      <use xlink:href="#DejaVuSans-Bold-63" transform="translate(1876.855469 0)"/>
      <use xlink:href="#DejaVuSans-Bold-65" transform="translate(1936.132812 0)"/>
      <use xlink:href="#DejaVuSans-Bold-6e" transform="translate(2003.955078 0)"/>
      <use xlink:href="#DejaVuSans-Bold-74" transform="translate(2075.146484 0)"/>
      <use xlink:href="#DejaVuSans-Bold-72" transform="translate(2122.949219 0)"/>
      <use xlink:href="#DejaVuSans-Bold-61" transform="translate(2172.265625 0)"/>
      <use xlink:href="#DejaVuSans-Bold-74" transform="translate(2239.746094 0)"/>
      <use xlink:href="#DejaVuSans-Bold-69" transform="translate(2287.548828 0)"/>
      <use xlink:href="#DejaVuSans-Bold-6f" transform="translate(2321.826172 0)"/>
      <use xlink:href="#DejaVuSans-Bold-6e" transform="translate(2390.527344 0)"/>
      <use xlink:href="#DejaVuSans-Bold-20" transform="translate(2461.71875 0)"/>
      <use xlink:href="#DejaVuSans-Bold-69" transform="translate(2496.533203 0)"/>
      <use xlink:href="#DejaVuSans-Bold-6e" transform="translate(2530.810547 0)"/>
      <use xlink:href="#DejaVuSans-Bold-20" transform="translate(2602.001953 0)"/>
      <use xlink:href="#DejaVuSans-Bold-46" transform="translate(2636.816406 0)"/>
      <use xlink:href="#DejaVuSans-Bold-41" transform="translate(2693.626953 0)"/>
      <use xlink:href="#DejaVuSans-Bold-45" transform="translate(2771.019531 0)"/>
      <use xlink:href="#DejaVuSans-Bold-52" transform="translate(2839.330078 0)"/>
      <use xlink:href="#DejaVuSans-Bold-53" transform="translate(2916.332031 0)"/>
      <use xlink:href="#DejaVuSans-Bold-2d" transform="translate(2988.353516 0)"/>
      <use xlink:href="#DejaVuSans-Bold-6f" transform="translate(3029.857422 0)"/>
      <use xlink:href="#DejaVuSans-Bold-6e" transform="translate(3098.558594 0)"/>
      <use xlink:href="#DejaVuSans-Bold-6c" transform="translate(3169.75 0)"/>
      <use xlink:href="#DejaVuSans-Bold-79" transform="translate(3204.027344 0)"/>
      <use xlink:href="#DejaVuSans-Bold-29" transform="translate(3269.212891 0)"/>
     </g>
    </g>
   </g>
   <g id="matplotlib.axis_2">
    <g id="ytick_1">
     <g id="line2d_9">
      <defs>
       <path id="mce35e346e7" d="M 0 0 
L -3.5 0 
" style="stroke: #000000; stroke-width: 0.8"/>
      </defs>
      <g>
       <use xlink:href="#mce35e346e7" x="41.151875" y="242.835651" style="stroke: #000000; stroke-width: 0.8"/>
      </g>
     </g>
     <g id="text_10">
      <!-- 0.0 -->
      <g transform="translate(19.980625 245.875026) scale(0.08 -0.08)">
       <use xlink:href="#DejaVuSans-Bold-30"/>
       <use xlink:href="#DejaVuSans-Bold-2e" transform="translate(69.580078 0)"/>
       <use xlink:href="#DejaVuSans-Bold-30" transform="translate(107.568359 0)"/>
      </g>
     </g>
    </g>
    <g id="ytick_2">
     <g id="line2d_10">
      <g>
       <use xlink:href="#mce35e346e7" x="41.151875" y="198.428208" style="stroke: #000000; stroke-width: 0.8"/>
      </g>
     </g>
     <g id="text_11">
      <!-- 0.2 -->
      <g transform="translate(19.980625 201.467583) scale(0.08 -0.08)">
       <use xlink:href="#DejaVuSans-Bold-30"/>
       <use xlink:href="#DejaVuSans-Bold-2e" transform="translate(69.580078 0)"/>
       <use xlink:href="#DejaVuSans-Bold-32" transform="translate(107.568359 0)"/>
      </g>
     </g>
    </g>
    <g id="ytick_3">
     <g id="line2d_11">
      <g>
       <use xlink:href="#mce35e346e7" x="41.151875" y="154.020765" style="stroke: #000000; stroke-width: 0.8"/>
      </g>
     </g>
     <g id="text_12">
      <!-- 0.4 -->
      <g transform="translate(19.980625 157.06014) scale(0.08 -0.08)">
       <use xlink:href="#DejaVuSans-Bold-30"/>
       <use xlink:href="#DejaVuSans-Bold-2e" transform="translate(69.580078 0)"/>
       <use xlink:href="#DejaVuSans-Bold-34" transform="translate(107.568359 0)"/>
      </g>
     </g>
    </g>
    <g id="ytick_4">
     <g id="line2d_12">
      <g>
       <use xlink:href="#mce35e346e7" x="41.151875" y="109.613323" style="stroke: #000000; stroke-width: 0.8"/>
      </g>
     </g>
     <g id="text_13">
      <!-- 0.6 -->
      <g transform="translate(19.980625 112.652698) scale(0.08 -0.08)">
       <defs>
        <path id="DejaVuSans-Bold-36" d="M 2316 2303 
Q 2000 2303 1842 2098 
Q 1684 1894 1684 1484 
Q 1684 1075 1842 870 
Q 2000 666 2316 666 
Q 2634 666 2792 870 
Q 2950 1075 2950 1484 
Q 2950 1894 2792 2098 
Q 2634 2303 2316 2303 
z
M 3803 4544 
L 3803 3681 
Q 3506 3822 3243 3889 
Q 2981 3956 2731 3956 
Q 2194 3956 1894 3657 
Q 1594 3359 1544 2772 
Q 1750 2925 1990 3001 
Q 2231 3078 2516 3078 
Q 3231 3078 3670 2659 
Q 4109 2241 4109 1563 
Q 4109 813 3618 361 
Q 3128 -91 2303 -91 
Q 1394 -91 895 523 
Q 397 1138 397 2266 
Q 397 3422 980 4083 
Q 1563 4744 2578 4744 
Q 2900 4744 3203 4694 
Q 3506 4644 3803 4544 
z
" transform="scale(0.015625)"/>
       </defs>
       <use xlink:href="#DejaVuSans-Bold-30"/>
       <use xlink:href="#DejaVuSans-Bold-2e" transform="translate(69.580078 0)"/>
       <use xlink:href="#DejaVuSans-Bold-36" transform="translate(107.568359 0)"/>
      </g>
     </g>
    </g>
    <g id="ytick_5">
     <g id="line2d_13">
      <g>
       <use xlink:href="#mce35e346e7" x="41.151875" y="65.20588" style="stroke: #000000; stroke-width: 0.8"/>
      </g>
     </g>
     <g id="text_14">
      <!-- 0.8 -->
      <g transform="translate(19.980625 68.245255) scale(0.08 -0.08)">
       <defs>
        <path id="DejaVuSans-Bold-38" d="M 2228 2088 
Q 1891 2088 1709 1903 
Q 1528 1719 1528 1375 
Q 1528 1031 1709 848 
Q 1891 666 2228 666 
Q 2563 666 2741 848 
Q 2919 1031 2919 1375 
Q 2919 1722 2741 1905 
Q 2563 2088 2228 2088 
z
M 1350 2484 
Q 925 2613 709 2878 
Q 494 3144 494 3541 
Q 494 4131 934 4440 
Q 1375 4750 2228 4750 
Q 3075 4750 3515 4442 
Q 3956 4134 3956 3541 
Q 3956 3144 3739 2878 
Q 3522 2613 3097 2484 
Q 3572 2353 3814 2058 
Q 4056 1763 4056 1313 
Q 4056 619 3595 264 
Q 3134 -91 2228 -91 
Q 1319 -91 855 264 
Q 391 619 391 1313 
Q 391 1763 633 2058 
Q 875 2353 1350 2484 
z
M 1631 3419 
Q 1631 3141 1786 2991 
Q 1941 2841 2228 2841 
Q 2509 2841 2662 2991 
Q 2816 3141 2816 3419 
Q 2816 3697 2662 3845 
Q 2509 3994 2228 3994 
Q 1941 3994 1786 3844 
Q 1631 3694 1631 3419 
z
" transform="scale(0.015625)"/>
       </defs>
       <use xlink:href="#DejaVuSans-Bold-30"/>
       <use xlink:href="#DejaVuSans-Bold-2e" transform="translate(69.580078 0)"/>
       <use xlink:href="#DejaVuSans-Bold-38" transform="translate(107.568359 0)"/>
      </g>
     </g>
    </g>
    <g id="ytick_6">
     <g id="line2d_14">
      <g>
       <use xlink:href="#mce35e346e7" x="41.151875" y="20.798437" style="stroke: #000000; stroke-width: 0.8"/>
      </g>
     </g>
     <g id="text_15">
      <!-- 1.0 -->
      <g transform="translate(19.980625 23.837812) scale(0.08 -0.08)">
       <use xlink:href="#DejaVuSans-Bold-31"/>
       <use xlink:href="#DejaVuSans-Bold-2e" transform="translate(69.580078 0)"/>
       <use xlink:href="#DejaVuSans-Bold-30" transform="translate(107.568359 0)"/>
      </g>
     </g>
    </g>
    <g id="text_16">
     <!-- power (correct-rejection rate) -->
     <g transform="translate(14.038594 209.942572) rotate(-90) scale(0.09 -0.09)">
      <defs>
       <path id="DejaVuSans-Bold-70" d="M 1656 506 
L 1656 -1331 
L 538 -1331 
L 538 3500 
L 1656 3500 
L 1656 2988 
Q 1888 3294 2169 3439 
Q 2450 3584 2816 3584 
Q 3463 3584 3878 3070 
Q 4294 2556 4294 1747 
Q 4294 938 3878 423 
Q 3463 -91 2816 -91 
Q 2450 -91 2169 54 
Q 1888 200 1656 506 
z
M 2400 2772 
Q 2041 2772 1848 2508 
Q 1656 2244 1656 1747 
Q 1656 1250 1848 986 
Q 2041 722 2400 722 
Q 2759 722 2948 984 
Q 3138 1247 3138 1747 
Q 3138 2247 2948 2509 
Q 2759 2772 2400 2772 
z
" transform="scale(0.015625)"/>
       <path id="DejaVuSans-Bold-77" d="M 225 3500 
L 1313 3500 
L 1900 1088 
L 2491 3500 
L 3425 3500 
L 4013 1113 
L 4603 3500 
L 5691 3500 
L 4769 0 
L 3547 0 
L 2956 2406 
L 2369 0 
L 1147 0 
L 225 3500 
z
" transform="scale(0.015625)"/>
       <path id="DejaVuSans-Bold-6a" d="M 538 3500 
L 1656 3500 
L 1656 63 
Q 1656 -641 1318 -1011 
Q 981 -1381 341 -1381 
L -213 -1381 
L -213 -647 
L -19 -647 
Q 300 -647 419 -503 
Q 538 -359 538 63 
L 538 3500 
z
M 538 4863 
L 1656 4863 
L 1656 3950 
L 538 3950 
L 538 4863 
z
" transform="scale(0.015625)"/>
      </defs>
      <use xlink:href="#DejaVuSans-Bold-70"/>
      <use xlink:href="#DejaVuSans-Bold-6f" transform="translate(71.582031 0)"/>
      <use xlink:href="#DejaVuSans-Bold-77" transform="translate(140.283203 0)"/>
      <use xlink:href="#DejaVuSans-Bold-65" transform="translate(232.666016 0)"/>
      <use xlink:href="#DejaVuSans-Bold-72" transform="translate(300.488281 0)"/>
      <use xlink:href="#DejaVuSans-Bold-20" transform="translate(349.804688 0)"/>
      <use xlink:href="#DejaVuSans-Bold-28" transform="translate(384.619141 0)"/>
      <use xlink:href="#DejaVuSans-Bold-63" transform="translate(430.322266 0)"/>
      <use xlink:href="#DejaVuSans-Bold-6f" transform="translate(489.599609 0)"/>
      <use xlink:href="#DejaVuSans-Bold-72" transform="translate(558.300781 0)"/>
      <use xlink:href="#DejaVuSans-Bold-72" transform="translate(607.617188 0)"/>
      <use xlink:href="#DejaVuSans-Bold-65" transform="translate(656.933594 0)"/>
      <use xlink:href="#DejaVuSans-Bold-63" transform="translate(724.755859 0)"/>
      <use xlink:href="#DejaVuSans-Bold-74" transform="translate(784.033203 0)"/>
      <use xlink:href="#DejaVuSans-Bold-2d" transform="translate(831.835938 0)"/>
      <use xlink:href="#DejaVuSans-Bold-72" transform="translate(873.339844 0)"/>
      <use xlink:href="#DejaVuSans-Bold-65" transform="translate(922.65625 0)"/>
      <use xlink:href="#DejaVuSans-Bold-6a" transform="translate(990.478516 0)"/>
      <use xlink:href="#DejaVuSans-Bold-65" transform="translate(1024.755859 0)"/>
      <use xlink:href="#DejaVuSans-Bold-63" transform="translate(1092.578125 0)"/>
      <use xlink:href="#DejaVuSans-Bold-74" transform="translate(1151.855469 0)"/>
      <use xlink:href="#DejaVuSans-Bold-69" transform="translate(1199.658203 0)"/>
      <use xlink:href="#DejaVuSans-Bold-6f" transform="translate(1233.935547 0)"/>
      <use xlink:href="#DejaVuSans-Bold-6e" transform="translate(1302.636719 0)"/>
      <use xlink:href="#DejaVuSans-Bold-20" transform="translate(1373.828125 0)"/>
      <use xlink:href="#DejaVuSans-Bold-72" transform="translate(1408.642578 0)"/>
      <use xlink:href="#DejaVuSans-Bold-61" transform="translate(1457.958984 0)"/>
      <use xlink:href="#DejaVuSans-Bold-74" transform="translate(1525.439453 0)"/>
      <use xlink:href="#DejaVuSans-Bold-65" transform="translate(1573.242188 0)"/>
      <use xlink:href="#DejaVuSans-Bold-29" transform="translate(1641.064453 0)"/>
     </g>
    </g>
   </g>
   <g id="line2d_15">
    <path d="M 57.008586 195.87478 
L 102.313475 194.931122 
L 192.923253 189.990794 
L 374.142809 197.318022 
" clip-path="url(#p63bc64cd13)" style="fill: none; stroke: #440154; stroke-width: 1.4; stroke-linecap: square"/>
    <defs>
     <path id="m2b9faeae48" d="M 0 2 
C 0.530406 2 1.03916 1.789267 1.414214 1.414214 
C 1.789267 1.03916 2 0.530406 2 0 
C 2 -0.530406 1.789267 -1.03916 1.414214 -1.414214 
C 1.03916 -1.789267 0.530406 -2 0 -2 
C -0.530406 -2 -1.03916 -1.789267 -1.414214 -1.414214 
C -1.789267 -1.03916 -2 -0.530406 -2 0 
C -2 0.530406 -1.789267 1.03916 -1.414214 1.414214 
C -1.03916 1.789267 -0.530406 2 0 2 
z
" style="stroke: #440154"/>
    </defs>
    <g clip-path="url(#p63bc64cd13)">
     <use xlink:href="#m2b9faeae48" x="57.008586" y="195.87478" style="fill: #440154; stroke: #440154"/>
     <use xlink:href="#m2b9faeae48" x="102.313475" y="194.931122" style="fill: #440154; stroke: #440154"/>
     <use xlink:href="#m2b9faeae48" x="192.923253" y="189.990794" style="fill: #440154; stroke: #440154"/>
     <use xlink:href="#m2b9faeae48" x="374.142809" y="197.318022" style="fill: #440154; stroke: #440154"/>
    </g>
   </g>
   <g id="line2d_16">
    <path d="M 57.008586 242.835651 
L 102.313475 242.835651 
L 192.923253 242.724632 
L 374.142809 242.613614 
" clip-path="url(#p63bc64cd13)" style="fill: none; stroke: #414487; stroke-width: 1.4; stroke-linecap: square"/>
    <defs>
     <path id="m29622c52c6" d="M 0 2 
C 0.530406 2 1.03916 1.789267 1.414214 1.414214 
C 1.789267 1.03916 2 0.530406 2 0 
C 2 -0.530406 1.789267 -1.03916 1.414214 -1.414214 
C 1.03916 -1.789267 0.530406 -2 0 -2 
C -0.530406 -2 -1.03916 -1.789267 -1.414214 -1.414214 
C -1.789267 -1.03916 -2 -0.530406 -2 0 
C -2 0.530406 -1.789267 1.03916 -1.414214 1.414214 
C -1.03916 1.789267 -0.530406 2 0 2 
z
" style="stroke: #414487"/>
    </defs>
    <g clip-path="url(#p63bc64cd13)">
     <use xlink:href="#m29622c52c6" x="57.008586" y="242.835651" style="fill: #414487; stroke: #414487"/>
     <use xlink:href="#m29622c52c6" x="102.313475" y="242.835651" style="fill: #414487; stroke: #414487"/>
     <use xlink:href="#m29622c52c6" x="192.923253" y="242.724632" style="fill: #414487; stroke: #414487"/>
     <use xlink:href="#m29622c52c6" x="374.142809" y="242.613614" style="fill: #414487; stroke: #414487"/>
    </g>
   </g>
   <g id="line2d_17">
    <path d="M 57.008586 242.835651 
L 102.313475 242.835651 
L 192.923253 242.835651 
L 374.142809 242.613614 
" clip-path="url(#p63bc64cd13)" style="fill: none; stroke: #2a788e; stroke-width: 1.4; stroke-linecap: square"/>
    <defs>
     <path id="m892cda883a" d="M 0 2 
C 0.530406 2 1.03916 1.789267 1.414214 1.414214 
C 1.789267 1.03916 2 0.530406 2 0 
C 2 -0.530406 1.789267 -1.03916 1.414214 -1.414214 
C 1.03916 -1.789267 0.530406 -2 0 -2 
C -0.530406 -2 -1.03916 -1.789267 -1.414214 -1.414214 
C -1.789267 -1.03916 -2 -0.530406 -2 0 
C -2 0.530406 -1.789267 1.03916 -1.414214 1.414214 
C -1.03916 1.789267 -0.530406 2 0 2 
z
" style="stroke: #2a788e"/>
    </defs>
    <g clip-path="url(#p63bc64cd13)">
     <use xlink:href="#m892cda883a" x="57.008586" y="242.835651" style="fill: #2a788e; stroke: #2a788e"/>
     <use xlink:href="#m892cda883a" x="102.313475" y="242.835651" style="fill: #2a788e; stroke: #2a788e"/>
     <use xlink:href="#m892cda883a" x="192.923253" y="242.835651" style="fill: #2a788e; stroke: #2a788e"/>
     <use xlink:href="#m892cda883a" x="374.142809" y="242.613614" style="fill: #2a788e; stroke: #2a788e"/>
    </g>
   </g>
   <g id="line2d_18">
    <path d="M 57.008586 230.95666 
L 102.313475 231.789299 
L 192.923253 231.400734 
L 374.142809 242.280558 
" clip-path="url(#p63bc64cd13)" style="fill: none; stroke: #22a884; stroke-width: 1.4; stroke-linecap: square"/>
    <defs>
     <path id="m2f9f68649e" d="M 0 2 
C 0.530406 2 1.03916 1.789267 1.414214 1.414214 
C 1.789267 1.03916 2 0.530406 2 0 
C 2 -0.530406 1.789267 -1.03916 1.414214 -1.414214 
C 1.03916 -1.789267 0.530406 -2 0 -2 
C -0.530406 -2 -1.03916 -1.789267 -1.414214 -1.414214 
C -1.789267 -1.03916 -2 -0.530406 -2 0 
C -2 0.530406 -1.789267 1.03916 -1.414214 1.414214 
C -1.03916 1.789267 -0.530406 2 0 2 
z
" style="stroke: #22a884"/>
    </defs>
    <g clip-path="url(#p63bc64cd13)">
     <use xlink:href="#m2f9f68649e" x="57.008586" y="230.95666" style="fill: #22a884; stroke: #22a884"/>
     <use xlink:href="#m2f9f68649e" x="102.313475" y="231.789299" style="fill: #22a884; stroke: #22a884"/>
     <use xlink:href="#m2f9f68649e" x="192.923253" y="231.400734" style="fill: #22a884; stroke: #22a884"/>
     <use xlink:href="#m2f9f68649e" x="374.142809" y="242.280558" style="fill: #22a884; stroke: #22a884"/>
    </g>
   </g>
   <g id="line2d_19">
    <path d="M 57.008586 236.396572 
L 102.313475 237.895323 
L 192.923253 242.724632 
L 374.142809 242.835651 
" clip-path="url(#p63bc64cd13)" style="fill: none; stroke: #7ad151; stroke-width: 1.4; stroke-linecap: square"/>
    <defs>
     <path id="maa9e1bdb2e" d="M 0 2 
C 0.530406 2 1.03916 1.789267 1.414214 1.414214 
C 1.789267 1.03916 2 0.530406 2 0 
C 2 -0.530406 1.789267 -1.03916 1.414214 -1.414214 
C 1.03916 -1.789267 0.530406 -2 0 -2 
C -0.530406 -2 -1.03916 -1.789267 -1.414214 -1.414214 
C -1.789267 -1.03916 -2 -0.530406 -2 0 
C -2 0.530406 -1.789267 1.03916 -1.414214 1.414214 
C -1.03916 1.789267 -0.530406 2 0 2 
z
" style="stroke: #7ad151"/>
    </defs>
    <g clip-path="url(#p63bc64cd13)">
     <use xlink:href="#maa9e1bdb2e" x="57.008586" y="236.396572" style="fill: #7ad151; stroke: #7ad151"/>
     <use xlink:href="#maa9e1bdb2e" x="102.313475" y="237.895323" style="fill: #7ad151; stroke: #7ad151"/>
     <use xlink:href="#maa9e1bdb2e" x="192.923253" y="242.724632" style="fill: #7ad151; stroke: #7ad151"/>
     <use xlink:href="#maa9e1bdb2e" x="374.142809" y="242.835651" style="fill: #7ad151; stroke: #7ad151"/>
    </g>
   </g>
   <g id="line2d_20">
    <path d="M 57.008586 240.837316 
L 102.313475 242.835651 
L 192.923253 242.835651 
L 374.142809 242.835651 
" clip-path="url(#p63bc64cd13)" style="fill: none; stroke: #fde725; stroke-width: 1.4; stroke-linecap: square"/>
    <defs>
     <path id="md31bd9d81e" d="M 0 2 
C 0.530406 2 1.03916 1.789267 1.414214 1.414214 
C 1.789267 1.03916 2 0.530406 2 0 
C 2 -0.530406 1.789267 -1.03916 1.414214 -1.414214 
C 1.03916 -1.789267 0.530406 -2 0 -2 
C -0.530406 -2 -1.03916 -1.789267 -1.414214 -1.414214 
C -1.789267 -1.03916 -2 -0.530406 -2 0 
C -2 0.530406 -1.789267 1.03916 -1.414214 1.414214 
C -1.03916 1.789267 -0.530406 2 0 2 
z
" style="stroke: #fde725"/>
    </defs>
    <g clip-path="url(#p63bc64cd13)">
     <use xlink:href="#md31bd9d81e" x="57.008586" y="240.837316" style="fill: #fde725; stroke: #fde725"/>
     <use xlink:href="#md31bd9d81e" x="102.313475" y="242.835651" style="fill: #fde725; stroke: #fde725"/>
     <use xlink:href="#md31bd9d81e" x="192.923253" y="242.835651" style="fill: #fde725; stroke: #fde725"/>
     <use xlink:href="#md31bd9d81e" x="374.142809" y="242.835651" style="fill: #fde725; stroke: #fde725"/>
    </g>
   </g>
   <g id="patch_3">
    <path d="M 41.151875 247.276395 
L 41.151875 20.798437 
" style="fill: none; stroke: #000000; stroke-width: 0.8; stroke-linejoin: miter; stroke-linecap: square"/>
   </g>
   <g id="patch_4">
    <path d="M 41.151875 247.276395 
L 389.99952 247.276395 
" style="fill: none; stroke: #000000; stroke-width: 0.8; stroke-linejoin: miter; stroke-linecap: square"/>
   </g>
   <g id="text_17">
    <!-- Q2 power vs effect size (Q2_alt, wild_cluster_bootstrap) -->
    <g transform="translate(58.310854 14.798437) scale(0.1 -0.1)">
     <defs>
      <path id="DejaVuSans-Bold-51" d="M 2847 -84 
L 2753 -84 
Q 1600 -84 959 553 
Q 319 1191 319 2328 
Q 319 3463 958 4106 
Q 1597 4750 2719 4750 
Q 3853 4750 4486 4112 
Q 5119 3475 5119 2328 
Q 5119 1541 4783 972 
Q 4447 403 3816 116 
L 4756 -934 
L 3609 -934 
L 2847 -84 
z
M 2719 3878 
Q 2169 3878 1866 3472 
Q 1563 3066 1563 2328 
Q 1563 1578 1859 1179 
Q 2156 781 2719 781 
Q 3272 781 3575 1187 
Q 3878 1594 3878 2328 
Q 3878 3066 3575 3472 
Q 3272 3878 2719 3878 
z
" transform="scale(0.015625)"/>
      <path id="DejaVuSans-Bold-76" d="M 97 3500 
L 1216 3500 
L 2088 1081 
L 2956 3500 
L 4078 3500 
L 2700 0 
L 1472 0 
L 97 3500 
z
" transform="scale(0.015625)"/>
      <path id="DejaVuSans-Bold-73" d="M 3272 3391 
L 3272 2541 
Q 2913 2691 2578 2766 
Q 2244 2841 1947 2841 
Q 1628 2841 1473 2761 
Q 1319 2681 1319 2516 
Q 1319 2381 1436 2309 
Q 1553 2238 1856 2203 
L 2053 2175 
Q 2913 2066 3209 1816 
Q 3506 1566 3506 1031 
Q 3506 472 3093 190 
Q 2681 -91 1863 -91 
Q 1516 -91 1145 -36 
Q 775 19 384 128 
L 384 978 
Q 719 816 1070 734 
Q 1422 653 1784 653 
Q 2113 653 2278 743 
Q 2444 834 2444 1013 
Q 2444 1163 2330 1236 
Q 2216 1309 1875 1350 
L 1678 1375 
Q 931 1469 631 1722 
Q 331 1975 331 2491 
Q 331 3047 712 3315 
Q 1094 3584 1881 3584 
Q 2191 3584 2531 3537 
Q 2872 3491 3272 3391 
z
" transform="scale(0.015625)"/>
      <path id="DejaVuSans-Bold-7a" d="M 366 3500 
L 3419 3500 
L 3419 2719 
L 1575 800 
L 3419 800 
L 3419 0 
L 288 0 
L 288 781 
L 2131 2700 
L 366 2700 
L 366 3500 
z
" transform="scale(0.015625)"/>
      <path id="DejaVuSans-Bold-5f" d="M 3200 -916 
L 3200 -1509 
L 0 -1509 
L 0 -916 
L 3200 -916 
z
" transform="scale(0.015625)"/>
      <path id="DejaVuSans-Bold-2c" d="M 653 1209 
L 1778 1209 
L 1778 256 
L 1006 -909 
L 341 -909 
L 653 256 
L 653 1209 
z
" transform="scale(0.015625)"/>
      <path id="DejaVuSans-Bold-64" d="M 2919 2988 
L 2919 4863 
L 4044 4863 
L 4044 0 
L 2919 0 
L 2919 506 
Q 2688 197 2409 53 
Q 2131 -91 1766 -91 
Q 1119 -91 703 423 
Q 288 938 288 1747 
Q 288 2556 703 3070 
Q 1119 3584 1766 3584 
Q 2128 3584 2408 3439 
Q 2688 3294 2919 2988 
z
M 2181 722 
Q 2541 722 2730 984 
Q 2919 1247 2919 1747 
Q 2919 2247 2730 2509 
Q 2541 2772 2181 2772 
Q 1825 2772 1636 2509 
Q 1447 2247 1447 1747 
Q 1447 1247 1636 984 
Q 1825 722 2181 722 
z
" transform="scale(0.015625)"/>
      <path id="DejaVuSans-Bold-62" d="M 2400 722 
Q 2759 722 2948 984 
Q 3138 1247 3138 1747 
Q 3138 2247 2948 2509 
Q 2759 2772 2400 2772 
Q 2041 2772 1848 2508 
Q 1656 2244 1656 1747 
Q 1656 1250 1848 986 
Q 2041 722 2400 722 
z
M 1656 2988 
Q 1888 3294 2169 3439 
Q 2450 3584 2816 3584 
Q 3463 3584 3878 3070 
Q 4294 2556 4294 1747 
Q 4294 938 3878 423 
Q 3463 -91 2816 -91 
Q 2450 -91 2169 54 
Q 1888 200 1656 506 
L 1656 0 
L 538 0 
L 538 4863 
L 1656 4863 
L 1656 2988 
z
" transform="scale(0.015625)"/>
     </defs>
     <use xlink:href="#DejaVuSans-Bold-51"/>
     <use xlink:href="#DejaVuSans-Bold-32" transform="translate(85.009766 0)"/>
     <use xlink:href="#DejaVuSans-Bold-20" transform="translate(154.589844 0)"/>
     <use xlink:href="#DejaVuSans-Bold-70" transform="translate(189.404297 0)"/>
     <use xlink:href="#DejaVuSans-Bold-6f" transform="translate(260.986328 0)"/>
     <use xlink:href="#DejaVuSans-Bold-77" transform="translate(329.6875 0)"/>
     <use xlink:href="#DejaVuSans-Bold-65" transform="translate(422.070312 0)"/>
     <use xlink:href="#DejaVuSans-Bold-72" transform="translate(489.892578 0)"/>
     <use xlink:href="#DejaVuSans-Bold-20" transform="translate(539.208984 0)"/>
     <use xlink:href="#DejaVuSans-Bold-76" transform="translate(574.023438 0)"/>
     <use xlink:href="#DejaVuSans-Bold-73" transform="translate(639.208984 0)"/>
     <use xlink:href="#DejaVuSans-Bold-20" transform="translate(698.730469 0)"/>
     <use xlink:href="#DejaVuSans-Bold-65" transform="translate(733.544922 0)"/>
     <use xlink:href="#DejaVuSans-Bold-66" transform="translate(801.367188 0)"/>
     <use xlink:href="#DejaVuSans-Bold-66" transform="translate(844.873047 0)"/>
     <use xlink:href="#DejaVuSans-Bold-65" transform="translate(888.378906 0)"/>
     <use xlink:href="#DejaVuSans-Bold-63" transform="translate(956.201172 0)"/>
     <use xlink:href="#DejaVuSans-Bold-74" transform="translate(1015.478516 0)"/>
     <use xlink:href="#DejaVuSans-Bold-20" transform="translate(1063.28125 0)"/>
     <use xlink:href="#DejaVuSans-Bold-73" transform="translate(1098.095703 0)"/>
     <use xlink:href="#DejaVuSans-Bold-69" transform="translate(1157.617188 0)"/>
     <use xlink:href="#DejaVuSans-Bold-7a" transform="translate(1191.894531 0)"/>
     <use xlink:href="#DejaVuSans-Bold-65" transform="translate(1250.097656 0)"/>
     <use xlink:href="#DejaVuSans-Bold-20" transform="translate(1317.919922 0)"/>
     <use xlink:href="#DejaVuSans-Bold-28" transform="translate(1352.734375 0)"/>
     <use xlink:href="#DejaVuSans-Bold-51" transform="translate(1398.4375 0)"/>
     <use xlink:href="#DejaVuSans-Bold-32" transform="translate(1483.447266 0)"/>
     <use xlink:href="#DejaVuSans-Bold-5f" transform="translate(1553.027344 0)"/>
     <use xlink:href="#DejaVuSans-Bold-61" transform="translate(1603.027344 0)"/>
     <use xlink:href="#DejaVuSans-Bold-6c" transform="translate(1670.507812 0)"/>
     <use xlink:href="#DejaVuSans-Bold-74" transform="translate(1704.785156 0)"/>
     <use xlink:href="#DejaVuSans-Bold-2c" transform="translate(1752.587891 0)"/>
     <use xlink:href="#DejaVuSans-Bold-20" transform="translate(1790.576172 0)"/>
     <use xlink:href="#DejaVuSans-Bold-77" transform="translate(1825.390625 0)"/>
     <use xlink:href="#DejaVuSans-Bold-69" transform="translate(1917.773438 0)"/>
     <use xlink:href="#DejaVuSans-Bold-6c" transform="translate(1952.050781 0)"/>
     <use xlink:href="#DejaVuSans-Bold-64" transform="translate(1986.328125 0)"/>
     <use xlink:href="#DejaVuSans-Bold-5f" transform="translate(2057.910156 0)"/>
     <use xlink:href="#DejaVuSans-Bold-63" transform="translate(2107.910156 0)"/>
     <use xlink:href="#DejaVuSans-Bold-6c" transform="translate(2167.1875 0)"/>
     <use xlink:href="#DejaVuSans-Bold-75" transform="translate(2201.464844 0)"/>
     <use xlink:href="#DejaVuSans-Bold-73" transform="translate(2272.65625 0)"/>
     <use xlink:href="#DejaVuSans-Bold-74" transform="translate(2332.177734 0)"/>
     <use xlink:href="#DejaVuSans-Bold-65" transform="translate(2379.980469 0)"/>
     <use xlink:href="#DejaVuSans-Bold-72" transform="translate(2447.802734 0)"/>
     <use xlink:href="#DejaVuSans-Bold-5f" transform="translate(2497.119141 0)"/>
     <use xlink:href="#DejaVuSans-Bold-62" transform="translate(2547.119141 0)"/>
     <use xlink:href="#DejaVuSans-Bold-6f" transform="translate(2618.701172 0)"/>
     <use xlink:href="#DejaVuSans-Bold-6f" transform="translate(2687.402344 0)"/>
     <use xlink:href="#DejaVuSans-Bold-74" transform="translate(2756.103516 0)"/>
     <use xlink:href="#DejaVuSans-Bold-73" transform="translate(2803.90625 0)"/>
     <use xlink:href="#DejaVuSans-Bold-74" transform="translate(2863.427734 0)"/>
     <use xlink:href="#DejaVuSans-Bold-72" transform="translate(2911.230469 0)"/>
     <use xlink:href="#DejaVuSans-Bold-61" transform="translate(2960.546875 0)"/>
     <use xlink:href="#DejaVuSans-Bold-70" transform="translate(3028.027344 0)"/>
     <use xlink:href="#DejaVuSans-Bold-29" transform="translate(3099.609375 0)"/>
    </g>
   </g>
   <g id="legend_1">
    <g id="text_18">
     <!-- selection rule -->
     <g transform="translate(273.756395 34.837031) scale(0.09 -0.09)">
      <use xlink:href="#DejaVuSans-Bold-73"/>
      <use xlink:href="#DejaVuSans-Bold-65" transform="translate(59.521484 0)"/>
      <use xlink:href="#DejaVuSans-Bold-6c" transform="translate(127.34375 0)"/>
      <use xlink:href="#DejaVuSans-Bold-65" transform="translate(161.621094 0)"/>
      <use xlink:href="#DejaVuSans-Bold-63" transform="translate(229.443359 0)"/>
      <use xlink:href="#DejaVuSans-Bold-74" transform="translate(288.720703 0)"/>
      <use xlink:href="#DejaVuSans-Bold-69" transform="translate(336.523438 0)"/>
      <use xlink:href="#DejaVuSans-Bold-6f" transform="translate(370.800781 0)"/>
      <use xlink:href="#DejaVuSans-Bold-6e" transform="translate(439.501953 0)"/>
      <use xlink:href="#DejaVuSans-Bold-20" transform="translate(510.693359 0)"/>
      <use xlink:href="#DejaVuSans-Bold-72" transform="translate(545.507812 0)"/>
      <use xlink:href="#DejaVuSans-Bold-75" transform="translate(594.824219 0)"/>
      <use xlink:href="#DejaVuSans-Bold-6c" transform="translate(666.015625 0)"/>
      <use xlink:href="#DejaVuSans-Bold-65" transform="translate(700.292969 0)"/>
     </g>
    </g>
    <g id="line2d_21">
     <path d="M 233.84452 43.9875 
L 241.84452 43.9875 
L 249.84452 43.9875 
" style="fill: none; stroke: #440154; stroke-width: 1.4; stroke-linecap: square"/>
     <g>
      <use xlink:href="#m2b9faeae48" x="241.84452" y="43.9875" style="fill: #440154; stroke: #440154"/>
     </g>
    </g>
    <g id="text_19">
     <!-- none -->
     <g transform="translate(256.24452 46.7875) scale(0.08 -0.08)">
      <use xlink:href="#DejaVuSans-Bold-6e"/>
      <use xlink:href="#DejaVuSans-Bold-6f" transform="translate(71.191406 0)"/>
      <use xlink:href="#DejaVuSans-Bold-6e" transform="translate(139.892578 0)"/>
      <use xlink:href="#DejaVuSans-Bold-65" transform="translate(211.083984 0)"/>
     </g>
    </g>
    <g id="line2d_22">
     <path d="M 233.84452 55.73 
L 241.84452 55.73 
L 249.84452 55.73 
" style="fill: none; stroke: #414487; stroke-width: 1.4; stroke-linecap: square"/>
     <g>
      <use xlink:href="#m29622c52c6" x="241.84452" y="55.73" style="fill: #414487; stroke: #414487"/>
     </g>
    </g>
    <g id="text_20">
     <!-- faers_point -->
     <g transform="translate(256.24452 58.53) scale(0.08 -0.08)">
      <use xlink:href="#DejaVuSans-Bold-66"/>
      <use xlink:href="#DejaVuSans-Bold-61" transform="translate(43.505859 0)"/>
      <use xlink:href="#DejaVuSans-Bold-65" transform="translate(110.986328 0)"/>
      <use xlink:href="#DejaVuSans-Bold-72" transform="translate(178.808594 0)"/>
      <use xlink:href="#DejaVuSans-Bold-73" transform="translate(228.125 0)"/>
      <use xlink:href="#DejaVuSans-Bold-5f" transform="translate(287.646484 0)"/>
      <use xlink:href="#DejaVuSans-Bold-70" transform="translate(337.646484 0)"/>
      <use xlink:href="#DejaVuSans-Bold-6f" transform="translate(409.228516 0)"/>
      <use xlink:href="#DejaVuSans-Bold-69" transform="translate(477.929688 0)"/>
      <use xlink:href="#DejaVuSans-Bold-6e" transform="translate(512.207031 0)"/>
      <use xlink:href="#DejaVuSans-Bold-74" transform="translate(583.398438 0)"/>
     </g>
    </g>
    <g id="line2d_23">
     <path d="M 233.84452 67.695 
L 241.84452 67.695 
L 249.84452 67.695 
" style="fill: none; stroke: #2a788e; stroke-width: 1.4; stroke-linecap: square"/>
     <g>
      <use xlink:href="#m892cda883a" x="241.84452" y="67.695" style="fill: #2a788e; stroke: #2a788e"/>
     </g>
    </g>
    <g id="text_21">
     <!-- faers_lb -->
     <g transform="translate(256.24452 70.495) scale(0.08 -0.08)">
      <use xlink:href="#DejaVuSans-Bold-66"/>
      <use xlink:href="#DejaVuSans-Bold-61" transform="translate(43.505859 0)"/>
      <use xlink:href="#DejaVuSans-Bold-65" transform="translate(110.986328 0)"/>
      <use xlink:href="#DejaVuSans-Bold-72" transform="translate(178.808594 0)"/>
      <use xlink:href="#DejaVuSans-Bold-73" transform="translate(228.125 0)"/>
      <use xlink:href="#DejaVuSans-Bold-5f" transform="translate(287.646484 0)"/>
      <use xlink:href="#DejaVuSans-Bold-6c" transform="translate(337.646484 0)"/>
      <use xlink:href="#DejaVuSans-Bold-62" transform="translate(371.923828 0)"/>
     </g>
    </g>
    <g id="line2d_24">
     <path d="M 322.73952 43.9875 
L 330.73952 43.9875 
L 338.73952 43.9875 
" style="fill: none; stroke: #22a884; stroke-width: 1.4; stroke-linecap: square"/>
     <g>
      <use xlink:href="#m2f9f68649e" x="330.73952" y="43.9875" style="fill: #22a884; stroke: #22a884"/>
     </g>
    </g>
    <g id="text_22">
     <!-- mde_3.0 -->
     <g transform="translate(345.13952 46.7875) scale(0.08 -0.08)">
      <use xlink:href="#DejaVuSans-Bold-6d"/>
      <use xlink:href="#DejaVuSans-Bold-64" transform="translate(104.199219 0)"/>
      <use xlink:href="#DejaVuSans-Bold-65" transform="translate(175.78125 0)"/>
      <use xlink:href="#DejaVuSans-Bold-5f" transform="translate(243.603516 0)"/>
      <use xlink:href="#DejaVuSans-Bold-33" transform="translate(293.603516 0)"/>
      <use xlink:href="#DejaVuSans-Bold-2e" transform="translate(363.183594 0)"/>
      <use xlink:href="#DejaVuSans-Bold-30" transform="translate(401.171875 0)"/>
     </g>
    </g>
    <g id="line2d_25">
     <path d="M 322.73952 55.9525 
L 330.73952 55.9525 
L 338.73952 55.9525 
" style="fill: none; stroke: #7ad151; stroke-width: 1.4; stroke-linecap: square"/>
     <g>
      <use xlink:href="#maa9e1bdb2e" x="330.73952" y="55.9525" style="fill: #7ad151; stroke: #7ad151"/>
     </g>
    </g>
    <g id="text_23">
     <!-- mde_2.0 -->
     <g transform="translate(345.13952 58.7525) scale(0.08 -0.08)">
      <use xlink:href="#DejaVuSans-Bold-6d"/>
      <use xlink:href="#DejaVuSans-Bold-64" transform="translate(104.199219 0)"/>
      <use xlink:href="#DejaVuSans-Bold-65" transform="translate(175.78125 0)"/>
      <use xlink:href="#DejaVuSans-Bold-5f" transform="translate(243.603516 0)"/>
      <use xlink:href="#DejaVuSans-Bold-32" transform="translate(293.603516 0)"/>
      <use xlink:href="#DejaVuSans-Bold-2e" transform="translate(363.183594 0)"/>
      <use xlink:href="#DejaVuSans-Bold-30" transform="translate(401.171875 0)"/>
     </g>
    </g>
    <g id="line2d_26">
     <path d="M 322.73952 67.9175 
L 330.73952 67.9175 
L 338.73952 67.9175 
" style="fill: none; stroke: #fde725; stroke-width: 1.4; stroke-linecap: square"/>
     <g>
      <use xlink:href="#md31bd9d81e" x="330.73952" y="67.9175" style="fill: #fde725; stroke: #fde725"/>
     </g>
    </g>
    <g id="text_24">
     <!-- mde_1.5 -->
     <g transform="translate(345.13952 70.7175) scale(0.08 -0.08)">
      <use xlink:href="#DejaVuSans-Bold-6d"/>
      <use xlink:href="#DejaVuSans-Bold-64" transform="translate(104.199219 0)"/>
      <use xlink:href="#DejaVuSans-Bold-65" transform="translate(175.78125 0)"/>
      <use xlink:href="#DejaVuSans-Bold-5f" transform="translate(243.603516 0)"/>
      <use xlink:href="#DejaVuSans-Bold-31" transform="translate(293.603516 0)"/>
      <use xlink:href="#DejaVuSans-Bold-2e" transform="translate(363.183594 0)"/>
      <use xlink:href="#DejaVuSans-Bold-35" transform="translate(401.171875 0)"/>
     </g>
    </g>
   </g>
  </g>
 </g>
 <defs>
  <clipPath id="p63bc64cd13">
   <rect x="41.151875" y="20.798437" width="348.847645" height="226.477958"/>
  </clipPath>
 </defs>
</svg>
